<?xml version="1.0" encoding="UTF-8"?>
<svg width="26px" height="25px" viewBox="0 0 26 25" version="1.1" xmlns="http://www.w3.org/2000/svg" xmlns:xlink="http://www.w3.org/1999/xlink">
    <!-- Generator: Sketch 54.1 (76490) - https://sketchapp.com -->
    <title>icon_linkedin</title>
    <desc>Created with Sketch.</desc>
    <g id="Page-1" stroke="none" stroke-width="1" fill="none" fill-rule="evenodd">
        <g id="Article-Desktop" transform="translate(-264.000000, -2513.000000)" fill="#ACADB3">
            <g id="Group-3-Copy" transform="translate(183.000000, 2513.000000)">
                <g id="icon_linkedin" transform="translate(81.000000, 0.000000)">
                    <path d="M9.55006105,8.14406375 L14.5024603,8.14406375 L14.5024603,10.4119942 L14.5730983,10.4119942 C15.2620604,9.10650888 16.948663,7.73048292 19.4626007,7.73048292 C24.6898107,7.73048292 25.6574542,11.1676489 25.6574542,15.6387669 L25.6574542,24.7443095 L20.4950763,24.7443095 L20.4950763,16.672719 C20.4950763,14.7468625 20.4563706,12.270209 17.808898,12.270209 C15.1207845,12.270209 14.7105037,14.3671025 14.7105037,16.532604 L14.7105037,24.7443095 L9.55006105,24.7443095 L9.55006105,8.14406375 Z" id="Fill-4"></path>
                    <path d="M3.8390293,0 C5.49176435,0 6.83388584,1.34123879 6.83388584,2.99073058 C6.83388584,4.64215499 5.49176435,5.98242747 3.8390293,5.98242747 C2.17855311,5.98242747 0.841269841,4.64215499 0.841269841,2.99073058 C0.841269841,1.34123879 2.17855311,0 3.8390293,0 L3.8390293,0 Z M1.25155067,24.8535026 L6.42263736,24.8535026 L6.42263736,8.25325682 L1.25155067,8.25325682 L1.25155067,24.8535026 Z" id="Fill-1"></path>
                </g>
            </g>
        </g>
    </g>
</svg>