<?xml version="1.0" standalone="no"?>
<!DOCTYPE svg PUBLIC "-//W3C//DTD SVG 1.1//EN"
 "http://www.w3.org/Graphics/SVG/1.1/DTD/svg11.dtd">
<!-- Created with svg_stack (http://github.com/astraw/svg_stack) -->
<svg xmlns:sodipodi="http://sodipodi.sourceforge.net/DTD/sodipodi-0.dtd" xmlns="http://www.w3.org/2000/svg" version="1.1" width="25.0" height="25.0">
  <defs/>
  <g id="id0:id0" transform="matrix(1.25,0,0,1.25,0.0,0.0)"><g transform="translate(0.000000,20.000000) scale(0.040000,-0.040000)" fill="#ffffff" stroke="none">
<path d="M30 250 c0 -140 4 -220 10 -220 6 0 10 9 10 21 0 11 4 18 10 14 5 -3 7 -12 3 -20 -4 -13 22 -15 187 -15 165 0 191 2 187 15 -4 8 -2 17 3 20 6 4 10 -3 10 -14 0 -12 5 -21 10 -21 6 0 10 80 10 220 0 140 -4 220 -10 220 -5 0 -10 -9 -10 -21 0 -11 -4 -18 -10 -14 -5 3 -7 12 -3 20 4 13 -22 15 -187 15 -165 0 -191 -2 -187 -15 4 -8 2 -17 -3 -20 -6 -4 -10 3 -10 14 0 12 -4 21 -10 21 -6 0 -10 -80 -10 -220z m137 204 c-3 -3 -12 -4 -19 -1 -8 3 -5 6 6 6 11 1 17 -2 13 -5z m193 -12 c0 -4 -34 -6 -76 -4 -72 4 -109 -6 -90 -25 4 -4 11 -2 15 5 6 9 12 8 25 -7 11 -12 14 -21 7 -26 -6 -3 -11 1 -11 9 0 9 -4 16 -10 16 -14 0 -12 -12 6 -35 13 -17 16 -18 25 -5 7 11 8 8 4 -11 -8 -34 16 -45 39 -17 10 11 15 23 12 26 -4 3 -13 -3 -21 -14 -11 -14 -14 -15 -14 -4 0 8 13 25 30 38 16 13 29 19 29 13 0 -6 5 -11 11 -11 6 0 8 7 5 16 -3 8 -2 12 3 9 5 -3 12 -1 16 5 11 18 45 11 45 -9 0 -11 3 -28 6 -38 4 -11 3 -14 -3 -6 -6 8 -13 8 -28 -3 -15 -11 -16 -17 -7 -26 9 -9 12 -8 12 6 0 10 5 14 11 10 7 -4 -3 -21 -27 -45 -35 -36 -37 -40 -21 -57 13 -14 14 -21 5 -30 -6 -6 -8 -15 -4 -19 4 -4 12 -1 17 7 8 11 9 8 5 -13 -4 -15 -2 -27 4 -27 5 0 10 5 10 12 0 6 9 3 20 -7 15 -14 17 -21 9 -32 -7 -7 -9 -16 -5 -20 3 -4 13 2 21 13 13 17 14 17 15 2 0 -10 -4 -18 -10 -18 -5 0 -10 -11 -10 -25 0 -24 -3 -25 -55 -25 -30 0 -55 -4 -55 -10 0 -5 14 -10 32 -10 17 0 29 -2 27 -4 -2 -3 -54 -1 -114 3 -89 7 -97 8 -45 10 66 1 102 13 86 28 -5 4 -11 2 -13 -5 -4 -10 -9 -9 -24 4 -15 13 -16 20 -8 31 7 7 9 17 5 20 -4 4 -12 1 -17 -7 -8 -12 -10 -10 -5 9 3 14 -1 30 -10 38 -8 9 -16 14 -17 12 -1 -2 -13 -16 -26 -31 -20 -23 -22 -30 -11 -43 7 -9 8 -15 2 -15 -6 0 -12 6 -15 13 -2 6 -8 9 -12 5 -4 -4 -3 -13 3 -20 7 -9 7 -18 -2 -31 -14 -19 -36 -23 -36 -7 0 6 -12 10 -26 10 -25 0 -25 2 -19 42 8 43 35 86 35 54 0 -26 13 -18 50 31 23 31 31 48 22 51 -6 2 -12 10 -12 18 0 8 -4 14 -10 14 -5 0 -10 -7 -10 -15 0 -8 5 -15 10 -15 6 0 10 -8 10 -17 0 -15 -4 -13 -20 7 -13 17 -16 28 -8 37 5 7 6 18 2 24 -5 9 -10 7 -16 -7 -6 -14 -7 -12 -3 9 3 15 1 27 -5 27 -5 0 -10 -5 -10 -12 0 -6 -9 -3 -20 7 -15 14 -17 21 -9 32 7 7 9 16 5 20 -3 4 -13 -2 -21 -13 -13 -17 -14 -17 -15 -1 0 9 5 17 10 17 6 0 10 11 10 25 0 24 3 25 54 25 30 0 58 5 61 10 7 12 175 14 175 2z m89 -160 c-1 -70 -3 -120 -5 -112 -7 35 -10 248 -2 244 4 -3 7 -62 7 -132z m-392 -79 c-2 -27 -3 -5 -3 47 0 52 1 74 3 48 2 -27 2 -69 0 -95z m173 -48 c0 -8 -4 -15 -10 -15 -5 0 -10 7 -10 15 0 8 5 15 10 15 6 0 10 -7 10 -15z m-166 -20 c3 -8 1 -15 -4 -15 -6 0 -10 7 -10 15 0 8 2 15 4 15 2 0 6 -7 10 -15z"/>
<path d="M310 380 c0 -5 5 -10 10 -10 6 0 10 5 10 10 0 6 -4 10 -10 10 -5 0 -10 -4 -10 -10z"/>
<path d="M150 373 c0 -7 4 -13 8 -13 4 0 16 -13 25 -30 10 -16 23 -35 30 -42 7 -7 24 -29 37 -48 13 -19 27 -37 30 -40 3 -3 18 -22 34 -43 15 -21 31 -36 34 -32 4 3 2 9 -4 13 -5 4 -21 23 -34 42 -13 19 -27 37 -30 40 -3 3 -17 21 -30 40 -52 74 -99 128 -100 113z"/>
<path d="M90 345 c0 -8 5 -15 10 -15 6 0 10 7 10 15 0 8 -4 15 -10 15 -5 0 -10 -7 -10 -15z"/>
<path d="M333 310 c-24 -29 -30 -60 -13 -60 6 0 10 -7 10 -15 0 -8 5 -15 10 -15 6 0 10 7 10 15 0 8 -4 15 -10 15 -5 0 -10 9 -10 20 0 11 5 20 10 20 6 0 10 7 10 16 0 8 5 12 10 9 6 -3 10 1 10 9 0 23 -12 19 -37 -14z"/>
<path d="M390 155 c0 -8 5 -15 10 -15 6 0 10 7 10 15 0 8 -4 15 -10 15 -5 0 -10 -7 -10 -15z"/>
<path d="M90 140 c0 -5 5 -10 10 -10 6 0 10 5 10 10 0 6 -4 10 -10 10 -5 0 -10 -4 -10 -10z"/>
<path d="M270 105 c0 -8 5 -15 10 -15 6 0 10 7 10 15 0 8 -4 15 -10 15 -5 0 -10 -7 -10 -15z"/>
<path d="M130 85 c0 -8 5 -15 10 -15 6 0 10 7 10 15 0 8 -4 15 -10 15 -5 0 -10 -7 -10 -15z"/>
</g>
</g>
  <g id="id1:id1" transform="matrix(1.25,0,0,1.25,0.0,0.0)"><g transform="translate(0.000000,20.000000) scale(0.040000,-0.040000)" fill="#ffffff" stroke="none">
<path d="M30 250 c0 -140 4 -220 10 -220 6 0 10 9 10 21 0 11 4 18 10 14 5 -3 7 -12 3 -20 -4 -13 22 -15 187 -15 165 0 191 2 187 15 -4 8 -2 17 3 20 6 4 10 -3 10 -14 0 -12 5 -21 10 -21 6 0 10 80 10 220 0 140 -4 220 -10 220 -5 0 -10 -9 -10 -21 0 -11 -4 -18 -10 -14 -5 3 -7 12 -3 20 4 13 -22 15 -187 15 -165 0 -191 -2 -187 -15 4 -8 2 -17 -3 -20 -6 -4 -10 3 -10 14 0 12 -4 21 -10 21 -6 0 -10 -80 -10 -220z m137 204 c-3 -3 -12 -4 -19 -1 -8 3 -5 6 6 6 11 1 17 -2 13 -5z m193 -12 c0 -4 -34 -6 -76 -4 -72 4 -109 -6 -90 -25 4 -4 11 -2 15 5 6 9 12 8 25 -7 11 -12 14 -21 7 -26 -6 -3 -11 1 -11 9 0 9 -4 16 -10 16 -14 0 -12 -12 6 -35 13 -17 16 -18 25 -5 7 11 8 8 4 -11 -8 -34 16 -45 39 -17 10 11 15 23 12 26 -4 3 -13 -3 -21 -14 -11 -14 -14 -15 -14 -4 0 8 13 25 30 38 16 13 29 19 29 13 0 -6 5 -11 11 -11 6 0 8 7 5 16 -3 8 -2 12 3 9 5 -3 12 -1 16 5 11 18 45 11 45 -9 0 -11 3 -28 6 -38 4 -11 3 -14 -3 -6 -6 8 -13 8 -28 -3 -15 -11 -16 -17 -7 -26 9 -9 12 -8 12 6 0 10 5 14 11 10 7 -4 -3 -21 -27 -45 -35 -36 -37 -40 -21 -57 13 -14 14 -21 5 -30 -6 -6 -8 -15 -4 -19 4 -4 12 -1 17 7 8 11 9 8 5 -13 -4 -15 -2 -27 4 -27 5 0 10 5 10 12 0 6 9 3 20 -7 15 -14 17 -21 9 -32 -7 -7 -9 -16 -5 -20 3 -4 13 2 21 13 13 17 14 17 15 2 0 -10 -4 -18 -10 -18 -5 0 -10 -11 -10 -25 0 -24 -3 -25 -55 -25 -30 0 -55 -4 -55 -10 0 -5 14 -10 32 -10 17 0 29 -2 27 -4 -2 -3 -54 -1 -114 3 -89 7 -97 8 -45 10 66 1 102 13 86 28 -5 4 -11 2 -13 -5 -4 -10 -9 -9 -24 4 -15 13 -16 20 -8 31 7 7 9 17 5 20 -4 4 -12 1 -17 -7 -8 -12 -10 -10 -5 9 3 14 -1 30 -10 38 -8 9 -16 14 -17 12 -1 -2 -13 -16 -26 -31 -20 -23 -22 -30 -11 -43 7 -9 8 -15 2 -15 -6 0 -12 6 -15 13 -2 6 -8 9 -12 5 -4 -4 -3 -13 3 -20 7 -9 7 -18 -2 -31 -14 -19 -36 -23 -36 -7 0 6 -12 10 -26 10 -25 0 -25 2 -19 42 8 43 35 86 35 54 0 -26 13 -18 50 31 23 31 31 48 22 51 -6 2 -12 10 -12 18 0 8 -4 14 -10 14 -5 0 -10 -7 -10 -15 0 -8 5 -15 10 -15 6 0 10 -8 10 -17 0 -15 -4 -13 -20 7 -13 17 -16 28 -8 37 5 7 6 18 2 24 -5 9 -10 7 -16 -7 -6 -14 -7 -12 -3 9 3 15 1 27 -5 27 -5 0 -10 -5 -10 -12 0 -6 -9 -3 -20 7 -15 14 -17 21 -9 32 7 7 9 16 5 20 -3 4 -13 -2 -21 -13 -13 -17 -14 -17 -15 -1 0 9 5 17 10 17 6 0 10 11 10 25 0 24 3 25 54 25 30 0 58 5 61 10 7 12 175 14 175 2z m89 -160 c-1 -70 -3 -120 -5 -112 -7 35 -10 248 -2 244 4 -3 7 -62 7 -132z m-392 -79 c-2 -27 -3 -5 -3 47 0 52 1 74 3 48 2 -27 2 -69 0 -95z m173 -48 c0 -8 -4 -15 -10 -15 -5 0 -10 7 -10 15 0 8 5 15 10 15 6 0 10 -7 10 -15z m-166 -20 c3 -8 1 -15 -4 -15 -6 0 -10 7 -10 15 0 8 2 15 4 15 2 0 6 -7 10 -15z"/>
<path d="M310 380 c0 -5 5 -10 10 -10 6 0 10 5 10 10 0 6 -4 10 -10 10 -5 0 -10 -4 -10 -10z"/>
<path d="M150 373 c0 -7 4 -13 8 -13 4 0 16 -13 25 -30 10 -16 23 -35 30 -42 7 -7 24 -29 37 -48 13 -19 27 -37 30 -40 3 -3 18 -22 34 -43 15 -21 31 -36 34 -32 4 3 2 9 -4 13 -5 4 -21 23 -34 42 -13 19 -27 37 -30 40 -3 3 -17 21 -30 40 -52 74 -99 128 -100 113z"/>
<path d="M90 345 c0 -8 5 -15 10 -15 6 0 10 7 10 15 0 8 -4 15 -10 15 -5 0 -10 -7 -10 -15z"/>
<path d="M333 310 c-24 -29 -30 -60 -13 -60 6 0 10 -7 10 -15 0 -8 5 -15 10 -15 6 0 10 7 10 15 0 8 -4 15 -10 15 -5 0 -10 9 -10 20 0 11 5 20 10 20 6 0 10 7 10 16 0 8 5 12 10 9 6 -3 10 1 10 9 0 23 -12 19 -37 -14z"/>
<path d="M390 155 c0 -8 5 -15 10 -15 6 0 10 7 10 15 0 8 -4 15 -10 15 -5 0 -10 -7 -10 -15z"/>
<path d="M90 140 c0 -5 5 -10 10 -10 6 0 10 5 10 10 0 6 -4 10 -10 10 -5 0 -10 -4 -10 -10z"/>
<path d="M270 105 c0 -8 5 -15 10 -15 6 0 10 7 10 15 0 8 -4 15 -10 15 -5 0 -10 -7 -10 -15z"/>
<path d="M130 85 c0 -8 5 -15 10 -15 6 0 10 7 10 15 0 8 -4 15 -10 15 -5 0 -10 -7 -10 -15z"/>
</g>
</g>
  <g id="id2:id2" transform="matrix(1.25,0,0,1.25,0.0,0.0)"><g transform="translate(0.000000,20.000000) scale(0.040000,-0.040000)" fill="#ffffff" stroke="none">
<path d="M30 250 c0 -140 4 -220 10 -220 6 0 10 9 10 21 0 11 4 18 10 14 5 -3 7 -12 3 -20 -4 -13 22 -15 187 -15 165 0 191 2 187 15 -4 8 -2 17 3 20 6 4 10 -3 10 -14 0 -12 5 -21 10 -21 6 0 10 80 10 220 0 140 -4 220 -10 220 -5 0 -10 -9 -10 -21 0 -11 -4 -18 -10 -14 -5 3 -7 12 -3 20 4 13 -22 15 -187 15 -165 0 -191 -2 -187 -15 4 -8 2 -17 -3 -20 -6 -4 -10 3 -10 14 0 12 -4 21 -10 21 -6 0 -10 -80 -10 -220z m137 204 c-3 -3 -12 -4 -19 -1 -8 3 -5 6 6 6 11 1 17 -2 13 -5z m193 -12 c0 -4 -34 -6 -76 -4 -72 4 -109 -6 -90 -25 4 -4 11 -2 15 5 6 9 12 8 25 -7 11 -12 14 -21 7 -26 -6 -3 -11 1 -11 9 0 9 -4 16 -10 16 -14 0 -12 -12 6 -35 13 -17 16 -18 25 -5 7 11 8 8 4 -11 -8 -34 16 -45 39 -17 10 11 15 23 12 26 -4 3 -13 -3 -21 -14 -11 -14 -14 -15 -14 -4 0 8 13 25 30 38 16 13 29 19 29 13 0 -6 5 -11 11 -11 6 0 8 7 5 16 -3 8 -2 12 3 9 5 -3 12 -1 16 5 11 18 45 11 45 -9 0 -11 3 -28 6 -38 4 -11 3 -14 -3 -6 -6 8 -13 8 -28 -3 -15 -11 -16 -17 -7 -26 9 -9 12 -8 12 6 0 10 5 14 11 10 7 -4 -3 -21 -27 -45 -35 -36 -37 -40 -21 -57 13 -14 14 -21 5 -30 -6 -6 -8 -15 -4 -19 4 -4 12 -1 17 7 8 11 9 8 5 -13 -4 -15 -2 -27 4 -27 5 0 10 5 10 12 0 6 9 3 20 -7 15 -14 17 -21 9 -32 -7 -7 -9 -16 -5 -20 3 -4 13 2 21 13 13 17 14 17 15 2 0 -10 -4 -18 -10 -18 -5 0 -10 -11 -10 -25 0 -24 -3 -25 -55 -25 -30 0 -55 -4 -55 -10 0 -5 14 -10 32 -10 17 0 29 -2 27 -4 -2 -3 -54 -1 -114 3 -89 7 -97 8 -45 10 66 1 102 13 86 28 -5 4 -11 2 -13 -5 -4 -10 -9 -9 -24 4 -15 13 -16 20 -8 31 7 7 9 17 5 20 -4 4 -12 1 -17 -7 -8 -12 -10 -10 -5 9 3 14 -1 30 -10 38 -8 9 -16 14 -17 12 -1 -2 -13 -16 -26 -31 -20 -23 -22 -30 -11 -43 7 -9 8 -15 2 -15 -6 0 -12 6 -15 13 -2 6 -8 9 -12 5 -4 -4 -3 -13 3 -20 7 -9 7 -18 -2 -31 -14 -19 -36 -23 -36 -7 0 6 -12 10 -26 10 -25 0 -25 2 -19 42 8 43 35 86 35 54 0 -26 13 -18 50 31 23 31 31 48 22 51 -6 2 -12 10 -12 18 0 8 -4 14 -10 14 -5 0 -10 -7 -10 -15 0 -8 5 -15 10 -15 6 0 10 -8 10 -17 0 -15 -4 -13 -20 7 -13 17 -16 28 -8 37 5 7 6 18 2 24 -5 9 -10 7 -16 -7 -6 -14 -7 -12 -3 9 3 15 1 27 -5 27 -5 0 -10 -5 -10 -12 0 -6 -9 -3 -20 7 -15 14 -17 21 -9 32 7 7 9 16 5 20 -3 4 -13 -2 -21 -13 -13 -17 -14 -17 -15 -1 0 9 5 17 10 17 6 0 10 11 10 25 0 24 3 25 54 25 30 0 58 5 61 10 7 12 175 14 175 2z m89 -160 c-1 -70 -3 -120 -5 -112 -7 35 -10 248 -2 244 4 -3 7 -62 7 -132z m-392 -79 c-2 -27 -3 -5 -3 47 0 52 1 74 3 48 2 -27 2 -69 0 -95z m173 -48 c0 -8 -4 -15 -10 -15 -5 0 -10 7 -10 15 0 8 5 15 10 15 6 0 10 -7 10 -15z m-166 -20 c3 -8 1 -15 -4 -15 -6 0 -10 7 -10 15 0 8 2 15 4 15 2 0 6 -7 10 -15z"/>
<path d="M310 380 c0 -5 5 -10 10 -10 6 0 10 5 10 10 0 6 -4 10 -10 10 -5 0 -10 -4 -10 -10z"/>
<path d="M150 373 c0 -7 4 -13 8 -13 4 0 16 -13 25 -30 10 -16 23 -35 30 -42 7 -7 24 -29 37 -48 13 -19 27 -37 30 -40 3 -3 18 -22 34 -43 15 -21 31 -36 34 -32 4 3 2 9 -4 13 -5 4 -21 23 -34 42 -13 19 -27 37 -30 40 -3 3 -17 21 -30 40 -52 74 -99 128 -100 113z"/>
<path d="M90 345 c0 -8 5 -15 10 -15 6 0 10 7 10 15 0 8 -4 15 -10 15 -5 0 -10 -7 -10 -15z"/>
<path d="M333 310 c-24 -29 -30 -60 -13 -60 6 0 10 -7 10 -15 0 -8 5 -15 10 -15 6 0 10 7 10 15 0 8 -4 15 -10 15 -5 0 -10 9 -10 20 0 11 5 20 10 20 6 0 10 7 10 16 0 8 5 12 10 9 6 -3 10 1 10 9 0 23 -12 19 -37 -14z"/>
<path d="M390 155 c0 -8 5 -15 10 -15 6 0 10 7 10 15 0 8 -4 15 -10 15 -5 0 -10 -7 -10 -15z"/>
<path d="M90 140 c0 -5 5 -10 10 -10 6 0 10 5 10 10 0 6 -4 10 -10 10 -5 0 -10 -4 -10 -10z"/>
<path d="M270 105 c0 -8 5 -15 10 -15 6 0 10 7 10 15 0 8 -4 15 -10 15 -5 0 -10 -7 -10 -15z"/>
<path d="M130 85 c0 -8 5 -15 10 -15 6 0 10 7 10 15 0 8 -4 15 -10 15 -5 0 -10 -7 -10 -15z"/>
</g>
</g>
  <g id="id3:id3" transform="matrix(1.25,0,0,1.25,0.0,0.0)"><g transform="translate(0.000000,20.000000) scale(0.040000,-0.040000)" fill="#ffffff" stroke="none">
<path d="M30 250 c0 -140 4 -220 10 -220 6 0 10 9 10 21 0 11 4 18 10 14 5 -3 7 -12 3 -20 -4 -13 22 -15 187 -15 165 0 191 2 187 15 -4 8 -2 17 3 20 6 4 10 -3 10 -14 0 -12 5 -21 10 -21 6 0 10 80 10 220 0 140 -4 220 -10 220 -5 0 -10 -9 -10 -21 0 -11 -4 -18 -10 -14 -5 3 -7 12 -3 20 4 13 -22 15 -187 15 -165 0 -191 -2 -187 -15 4 -8 2 -17 -3 -20 -6 -4 -10 3 -10 14 0 12 -4 21 -10 21 -6 0 -10 -80 -10 -220z m137 204 c-3 -3 -12 -4 -19 -1 -8 3 -5 6 6 6 11 1 17 -2 13 -5z m193 -12 c0 -4 -34 -6 -76 -4 -72 4 -109 -6 -90 -25 4 -4 11 -2 15 5 6 9 12 8 25 -7 11 -12 14 -21 7 -26 -6 -3 -11 1 -11 9 0 9 -4 16 -10 16 -14 0 -12 -12 6 -35 13 -17 16 -18 25 -5 7 11 8 8 4 -11 -8 -34 16 -45 39 -17 10 11 15 23 12 26 -4 3 -13 -3 -21 -14 -11 -14 -14 -15 -14 -4 0 8 13 25 30 38 16 13 29 19 29 13 0 -6 5 -11 11 -11 6 0 8 7 5 16 -3 8 -2 12 3 9 5 -3 12 -1 16 5 11 18 45 11 45 -9 0 -11 3 -28 6 -38 4 -11 3 -14 -3 -6 -6 8 -13 8 -28 -3 -15 -11 -16 -17 -7 -26 9 -9 12 -8 12 6 0 10 5 14 11 10 7 -4 -3 -21 -27 -45 -35 -36 -37 -40 -21 -57 13 -14 14 -21 5 -30 -6 -6 -8 -15 -4 -19 4 -4 12 -1 17 7 8 11 9 8 5 -13 -4 -15 -2 -27 4 -27 5 0 10 5 10 12 0 6 9 3 20 -7 15 -14 17 -21 9 -32 -7 -7 -9 -16 -5 -20 3 -4 13 2 21 13 13 17 14 17 15 2 0 -10 -4 -18 -10 -18 -5 0 -10 -11 -10 -25 0 -24 -3 -25 -55 -25 -30 0 -55 -4 -55 -10 0 -5 14 -10 32 -10 17 0 29 -2 27 -4 -2 -3 -54 -1 -114 3 -89 7 -97 8 -45 10 66 1 102 13 86 28 -5 4 -11 2 -13 -5 -4 -10 -9 -9 -24 4 -15 13 -16 20 -8 31 7 7 9 17 5 20 -4 4 -12 1 -17 -7 -8 -12 -10 -10 -5 9 3 14 -1 30 -10 38 -8 9 -16 14 -17 12 -1 -2 -13 -16 -26 -31 -20 -23 -22 -30 -11 -43 7 -9 8 -15 2 -15 -6 0 -12 6 -15 13 -2 6 -8 9 -12 5 -4 -4 -3 -13 3 -20 7 -9 7 -18 -2 -31 -14 -19 -36 -23 -36 -7 0 6 -12 10 -26 10 -25 0 -25 2 -19 42 8 43 35 86 35 54 0 -26 13 -18 50 31 23 31 31 48 22 51 -6 2 -12 10 -12 18 0 8 -4 14 -10 14 -5 0 -10 -7 -10 -15 0 -8 5 -15 10 -15 6 0 10 -8 10 -17 0 -15 -4 -13 -20 7 -13 17 -16 28 -8 37 5 7 6 18 2 24 -5 9 -10 7 -16 -7 -6 -14 -7 -12 -3 9 3 15 1 27 -5 27 -5 0 -10 -5 -10 -12 0 -6 -9 -3 -20 7 -15 14 -17 21 -9 32 7 7 9 16 5 20 -3 4 -13 -2 -21 -13 -13 -17 -14 -17 -15 -1 0 9 5 17 10 17 6 0 10 11 10 25 0 24 3 25 54 25 30 0 58 5 61 10 7 12 175 14 175 2z m89 -160 c-1 -70 -3 -120 -5 -112 -7 35 -10 248 -2 244 4 -3 7 -62 7 -132z m-392 -79 c-2 -27 -3 -5 -3 47 0 52 1 74 3 48 2 -27 2 -69 0 -95z m173 -48 c0 -8 -4 -15 -10 -15 -5 0 -10 7 -10 15 0 8 5 15 10 15 6 0 10 -7 10 -15z m-166 -20 c3 -8 1 -15 -4 -15 -6 0 -10 7 -10 15 0 8 2 15 4 15 2 0 6 -7 10 -15z"/>
<path d="M310 380 c0 -5 5 -10 10 -10 6 0 10 5 10 10 0 6 -4 10 -10 10 -5 0 -10 -4 -10 -10z"/>
<path d="M150 373 c0 -7 4 -13 8 -13 4 0 16 -13 25 -30 10 -16 23 -35 30 -42 7 -7 24 -29 37 -48 13 -19 27 -37 30 -40 3 -3 18 -22 34 -43 15 -21 31 -36 34 -32 4 3 2 9 -4 13 -5 4 -21 23 -34 42 -13 19 -27 37 -30 40 -3 3 -17 21 -30 40 -52 74 -99 128 -100 113z"/>
<path d="M90 345 c0 -8 5 -15 10 -15 6 0 10 7 10 15 0 8 -4 15 -10 15 -5 0 -10 -7 -10 -15z"/>
<path d="M333 310 c-24 -29 -30 -60 -13 -60 6 0 10 -7 10 -15 0 -8 5 -15 10 -15 6 0 10 7 10 15 0 8 -4 15 -10 15 -5 0 -10 9 -10 20 0 11 5 20 10 20 6 0 10 7 10 16 0 8 5 12 10 9 6 -3 10 1 10 9 0 23 -12 19 -37 -14z"/>
<path d="M390 155 c0 -8 5 -15 10 -15 6 0 10 7 10 15 0 8 -4 15 -10 15 -5 0 -10 -7 -10 -15z"/>
<path d="M90 140 c0 -5 5 -10 10 -10 6 0 10 5 10 10 0 6 -4 10 -10 10 -5 0 -10 -4 -10 -10z"/>
<path d="M270 105 c0 -8 5 -15 10 -15 6 0 10 7 10 15 0 8 -4 15 -10 15 -5 0 -10 -7 -10 -15z"/>
<path d="M130 85 c0 -8 5 -15 10 -15 6 0 10 7 10 15 0 8 -4 15 -10 15 -5 0 -10 -7 -10 -15z"/>
</g>
</g>
  <g id="id4:id4" transform="matrix(1.25,0,0,1.25,0.0,0.0)"><g transform="translate(0.000000,20.000000) scale(0.040000,-0.040000)" fill="#ffffff" stroke="none">
<path d="M30 250 c0 -140 4 -220 10 -220 6 0 10 9 10 21 0 11 4 18 10 14 5 -3 7 -12 3 -20 -4 -13 22 -15 187 -15 165 0 191 2 187 15 -4 8 -2 17 3 20 6 4 10 -3 10 -14 0 -12 5 -21 10 -21 6 0 10 80 10 220 0 140 -4 220 -10 220 -5 0 -10 -9 -10 -21 0 -11 -4 -18 -10 -14 -5 3 -7 12 -3 20 4 13 -22 15 -187 15 -165 0 -191 -2 -187 -15 4 -8 2 -17 -3 -20 -6 -4 -10 3 -10 14 0 12 -4 21 -10 21 -6 0 -10 -80 -10 -220z m137 204 c-3 -3 -12 -4 -19 -1 -8 3 -5 6 6 6 11 1 17 -2 13 -5z m193 -12 c0 -4 -34 -6 -76 -4 -72 4 -109 -6 -90 -25 4 -4 11 -2 15 5 6 9 12 8 25 -7 11 -12 14 -21 7 -26 -6 -3 -11 1 -11 9 0 9 -4 16 -10 16 -14 0 -12 -12 6 -35 13 -17 16 -18 25 -5 7 11 8 8 4 -11 -8 -34 16 -45 39 -17 10 11 15 23 12 26 -4 3 -13 -3 -21 -14 -11 -14 -14 -15 -14 -4 0 8 13 25 30 38 16 13 29 19 29 13 0 -6 5 -11 11 -11 6 0 8 7 5 16 -3 8 -2 12 3 9 5 -3 12 -1 16 5 11 18 45 11 45 -9 0 -11 3 -28 6 -38 4 -11 3 -14 -3 -6 -6 8 -13 8 -28 -3 -15 -11 -16 -17 -7 -26 9 -9 12 -8 12 6 0 10 5 14 11 10 7 -4 -3 -21 -27 -45 -35 -36 -37 -40 -21 -57 13 -14 14 -21 5 -30 -6 -6 -8 -15 -4 -19 4 -4 12 -1 17 7 8 11 9 8 5 -13 -4 -15 -2 -27 4 -27 5 0 10 5 10 12 0 6 9 3 20 -7 15 -14 17 -21 9 -32 -7 -7 -9 -16 -5 -20 3 -4 13 2 21 13 13 17 14 17 15 2 0 -10 -4 -18 -10 -18 -5 0 -10 -11 -10 -25 0 -24 -3 -25 -55 -25 -30 0 -55 -4 -55 -10 0 -5 14 -10 32 -10 17 0 29 -2 27 -4 -2 -3 -54 -1 -114 3 -89 7 -97 8 -45 10 66 1 102 13 86 28 -5 4 -11 2 -13 -5 -4 -10 -9 -9 -24 4 -15 13 -16 20 -8 31 7 7 9 17 5 20 -4 4 -12 1 -17 -7 -8 -12 -10 -10 -5 9 3 14 -1 30 -10 38 -8 9 -16 14 -17 12 -1 -2 -13 -16 -26 -31 -20 -23 -22 -30 -11 -43 7 -9 8 -15 2 -15 -6 0 -12 6 -15 13 -2 6 -8 9 -12 5 -4 -4 -3 -13 3 -20 7 -9 7 -18 -2 -31 -14 -19 -36 -23 -36 -7 0 6 -12 10 -26 10 -25 0 -25 2 -19 42 8 43 35 86 35 54 0 -26 13 -18 50 31 23 31 31 48 22 51 -6 2 -12 10 -12 18 0 8 -4 14 -10 14 -5 0 -10 -7 -10 -15 0 -8 5 -15 10 -15 6 0 10 -8 10 -17 0 -15 -4 -13 -20 7 -13 17 -16 28 -8 37 5 7 6 18 2 24 -5 9 -10 7 -16 -7 -6 -14 -7 -12 -3 9 3 15 1 27 -5 27 -5 0 -10 -5 -10 -12 0 -6 -9 -3 -20 7 -15 14 -17 21 -9 32 7 7 9 16 5 20 -3 4 -13 -2 -21 -13 -13 -17 -14 -17 -15 -1 0 9 5 17 10 17 6 0 10 11 10 25 0 24 3 25 54 25 30 0 58 5 61 10 7 12 175 14 175 2z m89 -160 c-1 -70 -3 -120 -5 -112 -7 35 -10 248 -2 244 4 -3 7 -62 7 -132z m-392 -79 c-2 -27 -3 -5 -3 47 0 52 1 74 3 48 2 -27 2 -69 0 -95z m173 -48 c0 -8 -4 -15 -10 -15 -5 0 -10 7 -10 15 0 8 5 15 10 15 6 0 10 -7 10 -15z m-166 -20 c3 -8 1 -15 -4 -15 -6 0 -10 7 -10 15 0 8 2 15 4 15 2 0 6 -7 10 -15z"/>
<path d="M310 380 c0 -5 5 -10 10 -10 6 0 10 5 10 10 0 6 -4 10 -10 10 -5 0 -10 -4 -10 -10z"/>
<path d="M150 373 c0 -7 4 -13 8 -13 4 0 16 -13 25 -30 10 -16 23 -35 30 -42 7 -7 24 -29 37 -48 13 -19 27 -37 30 -40 3 -3 18 -22 34 -43 15 -21 31 -36 34 -32 4 3 2 9 -4 13 -5 4 -21 23 -34 42 -13 19 -27 37 -30 40 -3 3 -17 21 -30 40 -52 74 -99 128 -100 113z"/>
<path d="M90 345 c0 -8 5 -15 10 -15 6 0 10 7 10 15 0 8 -4 15 -10 15 -5 0 -10 -7 -10 -15z"/>
<path d="M333 310 c-24 -29 -30 -60 -13 -60 6 0 10 -7 10 -15 0 -8 5 -15 10 -15 6 0 10 7 10 15 0 8 -4 15 -10 15 -5 0 -10 9 -10 20 0 11 5 20 10 20 6 0 10 7 10 16 0 8 5 12 10 9 6 -3 10 1 10 9 0 23 -12 19 -37 -14z"/>
<path d="M390 155 c0 -8 5 -15 10 -15 6 0 10 7 10 15 0 8 -4 15 -10 15 -5 0 -10 -7 -10 -15z"/>
<path d="M90 140 c0 -5 5 -10 10 -10 6 0 10 5 10 10 0 6 -4 10 -10 10 -5 0 -10 -4 -10 -10z"/>
<path d="M270 105 c0 -8 5 -15 10 -15 6 0 10 7 10 15 0 8 -4 15 -10 15 -5 0 -10 -7 -10 -15z"/>
<path d="M130 85 c0 -8 5 -15 10 -15 6 0 10 7 10 15 0 8 -4 15 -10 15 -5 0 -10 -7 -10 -15z"/>
</g>
</g>
  <g id="id5:id5" transform="matrix(1.25,0,0,1.25,0.0,0.0)"><g transform="translate(0.000000,20.000000) scale(0.040000,-0.040000)" fill="#ffffff" stroke="none">
<path d="M30 250 c0 -140 4 -220 10 -220 6 0 10 9 10 21 0 11 4 18 10 14 5 -3 7 -12 3 -20 -4 -13 22 -15 187 -15 165 0 191 2 187 15 -4 8 -2 17 3 20 6 4 10 -3 10 -14 0 -12 5 -21 10 -21 6 0 10 80 10 220 0 140 -4 220 -10 220 -5 0 -10 -9 -10 -21 0 -11 -4 -18 -10 -14 -5 3 -7 12 -3 20 4 13 -22 15 -187 15 -165 0 -191 -2 -187 -15 4 -8 2 -17 -3 -20 -6 -4 -10 3 -10 14 0 12 -4 21 -10 21 -6 0 -10 -80 -10 -220z m137 204 c-3 -3 -12 -4 -19 -1 -8 3 -5 6 6 6 11 1 17 -2 13 -5z m193 -12 c0 -4 -34 -6 -76 -4 -72 4 -109 -6 -90 -25 4 -4 11 -2 15 5 6 9 12 8 25 -7 11 -12 14 -21 7 -26 -6 -3 -11 1 -11 9 0 9 -4 16 -10 16 -14 0 -12 -12 6 -35 13 -17 16 -18 25 -5 7 11 8 8 4 -11 -8 -34 16 -45 39 -17 10 11 15 23 12 26 -4 3 -13 -3 -21 -14 -11 -14 -14 -15 -14 -4 0 8 13 25 30 38 16 13 29 19 29 13 0 -6 5 -11 11 -11 6 0 8 7 5 16 -3 8 -2 12 3 9 5 -3 12 -1 16 5 11 18 45 11 45 -9 0 -11 3 -28 6 -38 4 -11 3 -14 -3 -6 -6 8 -13 8 -28 -3 -15 -11 -16 -17 -7 -26 9 -9 12 -8 12 6 0 10 5 14 11 10 7 -4 -3 -21 -27 -45 -35 -36 -37 -40 -21 -57 13 -14 14 -21 5 -30 -6 -6 -8 -15 -4 -19 4 -4 12 -1 17 7 8 11 9 8 5 -13 -4 -15 -2 -27 4 -27 5 0 10 5 10 12 0 6 9 3 20 -7 15 -14 17 -21 9 -32 -7 -7 -9 -16 -5 -20 3 -4 13 2 21 13 13 17 14 17 15 2 0 -10 -4 -18 -10 -18 -5 0 -10 -11 -10 -25 0 -24 -3 -25 -55 -25 -30 0 -55 -4 -55 -10 0 -5 14 -10 32 -10 17 0 29 -2 27 -4 -2 -3 -54 -1 -114 3 -89 7 -97 8 -45 10 66 1 102 13 86 28 -5 4 -11 2 -13 -5 -4 -10 -9 -9 -24 4 -15 13 -16 20 -8 31 7 7 9 17 5 20 -4 4 -12 1 -17 -7 -8 -12 -10 -10 -5 9 3 14 -1 30 -10 38 -8 9 -16 14 -17 12 -1 -2 -13 -16 -26 -31 -20 -23 -22 -30 -11 -43 7 -9 8 -15 2 -15 -6 0 -12 6 -15 13 -2 6 -8 9 -12 5 -4 -4 -3 -13 3 -20 7 -9 7 -18 -2 -31 -14 -19 -36 -23 -36 -7 0 6 -12 10 -26 10 -25 0 -25 2 -19 42 8 43 35 86 35 54 0 -26 13 -18 50 31 23 31 31 48 22 51 -6 2 -12 10 -12 18 0 8 -4 14 -10 14 -5 0 -10 -7 -10 -15 0 -8 5 -15 10 -15 6 0 10 -8 10 -17 0 -15 -4 -13 -20 7 -13 17 -16 28 -8 37 5 7 6 18 2 24 -5 9 -10 7 -16 -7 -6 -14 -7 -12 -3 9 3 15 1 27 -5 27 -5 0 -10 -5 -10 -12 0 -6 -9 -3 -20 7 -15 14 -17 21 -9 32 7 7 9 16 5 20 -3 4 -13 -2 -21 -13 -13 -17 -14 -17 -15 -1 0 9 5 17 10 17 6 0 10 11 10 25 0 24 3 25 54 25 30 0 58 5 61 10 7 12 175 14 175 2z m89 -160 c-1 -70 -3 -120 -5 -112 -7 35 -10 248 -2 244 4 -3 7 -62 7 -132z m-392 -79 c-2 -27 -3 -5 -3 47 0 52 1 74 3 48 2 -27 2 -69 0 -95z m173 -48 c0 -8 -4 -15 -10 -15 -5 0 -10 7 -10 15 0 8 5 15 10 15 6 0 10 -7 10 -15z m-166 -20 c3 -8 1 -15 -4 -15 -6 0 -10 7 -10 15 0 8 2 15 4 15 2 0 6 -7 10 -15z"/>
<path d="M310 380 c0 -5 5 -10 10 -10 6 0 10 5 10 10 0 6 -4 10 -10 10 -5 0 -10 -4 -10 -10z"/>
<path d="M150 373 c0 -7 4 -13 8 -13 4 0 16 -13 25 -30 10 -16 23 -35 30 -42 7 -7 24 -29 37 -48 13 -19 27 -37 30 -40 3 -3 18 -22 34 -43 15 -21 31 -36 34 -32 4 3 2 9 -4 13 -5 4 -21 23 -34 42 -13 19 -27 37 -30 40 -3 3 -17 21 -30 40 -52 74 -99 128 -100 113z"/>
<path d="M90 345 c0 -8 5 -15 10 -15 6 0 10 7 10 15 0 8 -4 15 -10 15 -5 0 -10 -7 -10 -15z"/>
<path d="M333 310 c-24 -29 -30 -60 -13 -60 6 0 10 -7 10 -15 0 -8 5 -15 10 -15 6 0 10 7 10 15 0 8 -4 15 -10 15 -5 0 -10 9 -10 20 0 11 5 20 10 20 6 0 10 7 10 16 0 8 5 12 10 9 6 -3 10 1 10 9 0 23 -12 19 -37 -14z"/>
<path d="M390 155 c0 -8 5 -15 10 -15 6 0 10 7 10 15 0 8 -4 15 -10 15 -5 0 -10 -7 -10 -15z"/>
<path d="M90 140 c0 -5 5 -10 10 -10 6 0 10 5 10 10 0 6 -4 10 -10 10 -5 0 -10 -4 -10 -10z"/>
<path d="M270 105 c0 -8 5 -15 10 -15 6 0 10 7 10 15 0 8 -4 15 -10 15 -5 0 -10 -7 -10 -15z"/>
<path d="M130 85 c0 -8 5 -15 10 -15 6 0 10 7 10 15 0 8 -4 15 -10 15 -5 0 -10 -7 -10 -15z"/>
</g>
</g>
  <g id="id6:id6" transform="matrix(1.25,0,0,1.25,0.0,0.0)"><g transform="translate(0.000000,20.000000) scale(0.040000,-0.040000)" fill="#ffffff" stroke="none">
<path d="M30 250 c0 -140 4 -220 10 -220 6 0 10 9 10 21 0 11 4 18 10 14 5 -3 7 -12 3 -20 -4 -13 22 -15 187 -15 165 0 191 2 187 15 -4 8 -2 17 3 20 6 4 10 -3 10 -14 0 -12 5 -21 10 -21 6 0 10 80 10 220 0 140 -4 220 -10 220 -5 0 -10 -9 -10 -21 0 -11 -4 -18 -10 -14 -5 3 -7 12 -3 20 4 13 -22 15 -187 15 -165 0 -191 -2 -187 -15 4 -8 2 -17 -3 -20 -6 -4 -10 3 -10 14 0 12 -4 21 -10 21 -6 0 -10 -80 -10 -220z m137 204 c-3 -3 -12 -4 -19 -1 -8 3 -5 6 6 6 11 1 17 -2 13 -5z m193 -12 c0 -4 -34 -6 -76 -4 -72 4 -109 -6 -90 -25 4 -4 11 -2 15 5 6 9 12 8 25 -7 11 -12 14 -21 7 -26 -6 -3 -11 1 -11 9 0 9 -4 16 -10 16 -14 0 -12 -12 6 -35 13 -17 16 -18 25 -5 7 11 8 8 4 -11 -8 -34 16 -45 39 -17 10 11 15 23 12 26 -4 3 -13 -3 -21 -14 -11 -14 -14 -15 -14 -4 0 8 13 25 30 38 16 13 29 19 29 13 0 -6 5 -11 11 -11 6 0 8 7 5 16 -3 8 -2 12 3 9 5 -3 12 -1 16 5 11 18 45 11 45 -9 0 -11 3 -28 6 -38 4 -11 3 -14 -3 -6 -6 8 -13 8 -28 -3 -15 -11 -16 -17 -7 -26 9 -9 12 -8 12 6 0 10 5 14 11 10 7 -4 -3 -21 -27 -45 -35 -36 -37 -40 -21 -57 13 -14 14 -21 5 -30 -6 -6 -8 -15 -4 -19 4 -4 12 -1 17 7 8 11 9 8 5 -13 -4 -15 -2 -27 4 -27 5 0 10 5 10 12 0 6 9 3 20 -7 15 -14 17 -21 9 -32 -7 -7 -9 -16 -5 -20 3 -4 13 2 21 13 13 17 14 17 15 2 0 -10 -4 -18 -10 -18 -5 0 -10 -11 -10 -25 0 -24 -3 -25 -55 -25 -30 0 -55 -4 -55 -10 0 -5 14 -10 32 -10 17 0 29 -2 27 -4 -2 -3 -54 -1 -114 3 -89 7 -97 8 -45 10 66 1 102 13 86 28 -5 4 -11 2 -13 -5 -4 -10 -9 -9 -24 4 -15 13 -16 20 -8 31 7 7 9 17 5 20 -4 4 -12 1 -17 -7 -8 -12 -10 -10 -5 9 3 14 -1 30 -10 38 -8 9 -16 14 -17 12 -1 -2 -13 -16 -26 -31 -20 -23 -22 -30 -11 -43 7 -9 8 -15 2 -15 -6 0 -12 6 -15 13 -2 6 -8 9 -12 5 -4 -4 -3 -13 3 -20 7 -9 7 -18 -2 -31 -14 -19 -36 -23 -36 -7 0 6 -12 10 -26 10 -25 0 -25 2 -19 42 8 43 35 86 35 54 0 -26 13 -18 50 31 23 31 31 48 22 51 -6 2 -12 10 -12 18 0 8 -4 14 -10 14 -5 0 -10 -7 -10 -15 0 -8 5 -15 10 -15 6 0 10 -8 10 -17 0 -15 -4 -13 -20 7 -13 17 -16 28 -8 37 5 7 6 18 2 24 -5 9 -10 7 -16 -7 -6 -14 -7 -12 -3 9 3 15 1 27 -5 27 -5 0 -10 -5 -10 -12 0 -6 -9 -3 -20 7 -15 14 -17 21 -9 32 7 7 9 16 5 20 -3 4 -13 -2 -21 -13 -13 -17 -14 -17 -15 -1 0 9 5 17 10 17 6 0 10 11 10 25 0 24 3 25 54 25 30 0 58 5 61 10 7 12 175 14 175 2z m89 -160 c-1 -70 -3 -120 -5 -112 -7 35 -10 248 -2 244 4 -3 7 -62 7 -132z m-392 -79 c-2 -27 -3 -5 -3 47 0 52 1 74 3 48 2 -27 2 -69 0 -95z m173 -48 c0 -8 -4 -15 -10 -15 -5 0 -10 7 -10 15 0 8 5 15 10 15 6 0 10 -7 10 -15z m-166 -20 c3 -8 1 -15 -4 -15 -6 0 -10 7 -10 15 0 8 2 15 4 15 2 0 6 -7 10 -15z"/>
<path d="M310 380 c0 -5 5 -10 10 -10 6 0 10 5 10 10 0 6 -4 10 -10 10 -5 0 -10 -4 -10 -10z"/>
<path d="M150 373 c0 -7 4 -13 8 -13 4 0 16 -13 25 -30 10 -16 23 -35 30 -42 7 -7 24 -29 37 -48 13 -19 27 -37 30 -40 3 -3 18 -22 34 -43 15 -21 31 -36 34 -32 4 3 2 9 -4 13 -5 4 -21 23 -34 42 -13 19 -27 37 -30 40 -3 3 -17 21 -30 40 -52 74 -99 128 -100 113z"/>
<path d="M90 345 c0 -8 5 -15 10 -15 6 0 10 7 10 15 0 8 -4 15 -10 15 -5 0 -10 -7 -10 -15z"/>
<path d="M333 310 c-24 -29 -30 -60 -13 -60 6 0 10 -7 10 -15 0 -8 5 -15 10 -15 6 0 10 7 10 15 0 8 -4 15 -10 15 -5 0 -10 9 -10 20 0 11 5 20 10 20 6 0 10 7 10 16 0 8 5 12 10 9 6 -3 10 1 10 9 0 23 -12 19 -37 -14z"/>
<path d="M390 155 c0 -8 5 -15 10 -15 6 0 10 7 10 15 0 8 -4 15 -10 15 -5 0 -10 -7 -10 -15z"/>
<path d="M90 140 c0 -5 5 -10 10 -10 6 0 10 5 10 10 0 6 -4 10 -10 10 -5 0 -10 -4 -10 -10z"/>
<path d="M270 105 c0 -8 5 -15 10 -15 6 0 10 7 10 15 0 8 -4 15 -10 15 -5 0 -10 -7 -10 -15z"/>
<path d="M130 85 c0 -8 5 -15 10 -15 6 0 10 7 10 15 0 8 -4 15 -10 15 -5 0 -10 -7 -10 -15z"/>
</g>
</g>
  <g id="id7:id7" transform="matrix(1.25,0,0,1.25,0.0,0.0)"><g transform="translate(0.000000,20.000000) scale(0.040000,-0.040000)" fill="#ffffff" stroke="none">
<path d="M30 250 c0 -140 4 -220 10 -220 6 0 10 9 10 21 0 11 4 18 10 14 5 -3 7 -12 3 -20 -4 -13 22 -15 187 -15 165 0 191 2 187 15 -4 8 -2 17 3 20 6 4 10 -3 10 -14 0 -12 5 -21 10 -21 6 0 10 80 10 220 0 140 -4 220 -10 220 -5 0 -10 -9 -10 -21 0 -11 -4 -18 -10 -14 -5 3 -7 12 -3 20 4 13 -22 15 -187 15 -165 0 -191 -2 -187 -15 4 -8 2 -17 -3 -20 -6 -4 -10 3 -10 14 0 12 -4 21 -10 21 -6 0 -10 -80 -10 -220z m137 204 c-3 -3 -12 -4 -19 -1 -8 3 -5 6 6 6 11 1 17 -2 13 -5z m193 -12 c0 -4 -34 -6 -76 -4 -72 4 -109 -6 -90 -25 4 -4 11 -2 15 5 6 9 12 8 25 -7 11 -12 14 -21 7 -26 -6 -3 -11 1 -11 9 0 9 -4 16 -10 16 -14 0 -12 -12 6 -35 13 -17 16 -18 25 -5 7 11 8 8 4 -11 -8 -34 16 -45 39 -17 10 11 15 23 12 26 -4 3 -13 -3 -21 -14 -11 -14 -14 -15 -14 -4 0 8 13 25 30 38 16 13 29 19 29 13 0 -6 5 -11 11 -11 6 0 8 7 5 16 -3 8 -2 12 3 9 5 -3 12 -1 16 5 11 18 45 11 45 -9 0 -11 3 -28 6 -38 4 -11 3 -14 -3 -6 -6 8 -13 8 -28 -3 -15 -11 -16 -17 -7 -26 9 -9 12 -8 12 6 0 10 5 14 11 10 7 -4 -3 -21 -27 -45 -35 -36 -37 -40 -21 -57 13 -14 14 -21 5 -30 -6 -6 -8 -15 -4 -19 4 -4 12 -1 17 7 8 11 9 8 5 -13 -4 -15 -2 -27 4 -27 5 0 10 5 10 12 0 6 9 3 20 -7 15 -14 17 -21 9 -32 -7 -7 -9 -16 -5 -20 3 -4 13 2 21 13 13 17 14 17 15 2 0 -10 -4 -18 -10 -18 -5 0 -10 -11 -10 -25 0 -24 -3 -25 -55 -25 -30 0 -55 -4 -55 -10 0 -5 14 -10 32 -10 17 0 29 -2 27 -4 -2 -3 -54 -1 -114 3 -89 7 -97 8 -45 10 66 1 102 13 86 28 -5 4 -11 2 -13 -5 -4 -10 -9 -9 -24 4 -15 13 -16 20 -8 31 7 7 9 17 5 20 -4 4 -12 1 -17 -7 -8 -12 -10 -10 -5 9 3 14 -1 30 -10 38 -8 9 -16 14 -17 12 -1 -2 -13 -16 -26 -31 -20 -23 -22 -30 -11 -43 7 -9 8 -15 2 -15 -6 0 -12 6 -15 13 -2 6 -8 9 -12 5 -4 -4 -3 -13 3 -20 7 -9 7 -18 -2 -31 -14 -19 -36 -23 -36 -7 0 6 -12 10 -26 10 -25 0 -25 2 -19 42 8 43 35 86 35 54 0 -26 13 -18 50 31 23 31 31 48 22 51 -6 2 -12 10 -12 18 0 8 -4 14 -10 14 -5 0 -10 -7 -10 -15 0 -8 5 -15 10 -15 6 0 10 -8 10 -17 0 -15 -4 -13 -20 7 -13 17 -16 28 -8 37 5 7 6 18 2 24 -5 9 -10 7 -16 -7 -6 -14 -7 -12 -3 9 3 15 1 27 -5 27 -5 0 -10 -5 -10 -12 0 -6 -9 -3 -20 7 -15 14 -17 21 -9 32 7 7 9 16 5 20 -3 4 -13 -2 -21 -13 -13 -17 -14 -17 -15 -1 0 9 5 17 10 17 6 0 10 11 10 25 0 24 3 25 54 25 30 0 58 5 61 10 7 12 175 14 175 2z m89 -160 c-1 -70 -3 -120 -5 -112 -7 35 -10 248 -2 244 4 -3 7 -62 7 -132z m-392 -79 c-2 -27 -3 -5 -3 47 0 52 1 74 3 48 2 -27 2 -69 0 -95z m173 -48 c0 -8 -4 -15 -10 -15 -5 0 -10 7 -10 15 0 8 5 15 10 15 6 0 10 -7 10 -15z m-166 -20 c3 -8 1 -15 -4 -15 -6 0 -10 7 -10 15 0 8 2 15 4 15 2 0 6 -7 10 -15z"/>
<path d="M310 380 c0 -5 5 -10 10 -10 6 0 10 5 10 10 0 6 -4 10 -10 10 -5 0 -10 -4 -10 -10z"/>
<path d="M150 373 c0 -7 4 -13 8 -13 4 0 16 -13 25 -30 10 -16 23 -35 30 -42 7 -7 24 -29 37 -48 13 -19 27 -37 30 -40 3 -3 18 -22 34 -43 15 -21 31 -36 34 -32 4 3 2 9 -4 13 -5 4 -21 23 -34 42 -13 19 -27 37 -30 40 -3 3 -17 21 -30 40 -52 74 -99 128 -100 113z"/>
<path d="M90 345 c0 -8 5 -15 10 -15 6 0 10 7 10 15 0 8 -4 15 -10 15 -5 0 -10 -7 -10 -15z"/>
<path d="M333 310 c-24 -29 -30 -60 -13 -60 6 0 10 -7 10 -15 0 -8 5 -15 10 -15 6 0 10 7 10 15 0 8 -4 15 -10 15 -5 0 -10 9 -10 20 0 11 5 20 10 20 6 0 10 7 10 16 0 8 5 12 10 9 6 -3 10 1 10 9 0 23 -12 19 -37 -14z"/>
<path d="M390 155 c0 -8 5 -15 10 -15 6 0 10 7 10 15 0 8 -4 15 -10 15 -5 0 -10 -7 -10 -15z"/>
<path d="M90 140 c0 -5 5 -10 10 -10 6 0 10 5 10 10 0 6 -4 10 -10 10 -5 0 -10 -4 -10 -10z"/>
<path d="M270 105 c0 -8 5 -15 10 -15 6 0 10 7 10 15 0 8 -4 15 -10 15 -5 0 -10 -7 -10 -15z"/>
<path d="M130 85 c0 -8 5 -15 10 -15 6 0 10 7 10 15 0 8 -4 15 -10 15 -5 0 -10 -7 -10 -15z"/>
</g>
</g>
  <g id="id8:id8" transform="matrix(1.25,0,0,1.25,0.0,0.0)"><g transform="translate(0.000000,20.000000) scale(0.040000,-0.040000)" fill="#ffffff" stroke="none">
<path d="M30 250 c0 -140 4 -220 10 -220 6 0 10 9 10 21 0 11 4 18 10 14 5 -3 7 -12 3 -20 -4 -13 22 -15 187 -15 165 0 191 2 187 15 -4 8 -2 17 3 20 6 4 10 -3 10 -14 0 -12 5 -21 10 -21 6 0 10 80 10 220 0 140 -4 220 -10 220 -5 0 -10 -9 -10 -21 0 -11 -4 -18 -10 -14 -5 3 -7 12 -3 20 4 13 -22 15 -187 15 -165 0 -191 -2 -187 -15 4 -8 2 -17 -3 -20 -6 -4 -10 3 -10 14 0 12 -4 21 -10 21 -6 0 -10 -80 -10 -220z m137 204 c-3 -3 -12 -4 -19 -1 -8 3 -5 6 6 6 11 1 17 -2 13 -5z m193 -12 c0 -4 -34 -6 -76 -4 -72 4 -109 -6 -90 -25 4 -4 11 -2 15 5 6 9 12 8 25 -7 11 -12 14 -21 7 -26 -6 -3 -11 1 -11 9 0 9 -4 16 -10 16 -14 0 -12 -12 6 -35 13 -17 16 -18 25 -5 7 11 8 8 4 -11 -8 -34 16 -45 39 -17 10 11 15 23 12 26 -4 3 -13 -3 -21 -14 -11 -14 -14 -15 -14 -4 0 8 13 25 30 38 16 13 29 19 29 13 0 -6 5 -11 11 -11 6 0 8 7 5 16 -3 8 -2 12 3 9 5 -3 12 -1 16 5 11 18 45 11 45 -9 0 -11 3 -28 6 -38 4 -11 3 -14 -3 -6 -6 8 -13 8 -28 -3 -15 -11 -16 -17 -7 -26 9 -9 12 -8 12 6 0 10 5 14 11 10 7 -4 -3 -21 -27 -45 -35 -36 -37 -40 -21 -57 13 -14 14 -21 5 -30 -6 -6 -8 -15 -4 -19 4 -4 12 -1 17 7 8 11 9 8 5 -13 -4 -15 -2 -27 4 -27 5 0 10 5 10 12 0 6 9 3 20 -7 15 -14 17 -21 9 -32 -7 -7 -9 -16 -5 -20 3 -4 13 2 21 13 13 17 14 17 15 2 0 -10 -4 -18 -10 -18 -5 0 -10 -11 -10 -25 0 -24 -3 -25 -55 -25 -30 0 -55 -4 -55 -10 0 -5 14 -10 32 -10 17 0 29 -2 27 -4 -2 -3 -54 -1 -114 3 -89 7 -97 8 -45 10 66 1 102 13 86 28 -5 4 -11 2 -13 -5 -4 -10 -9 -9 -24 4 -15 13 -16 20 -8 31 7 7 9 17 5 20 -4 4 -12 1 -17 -7 -8 -12 -10 -10 -5 9 3 14 -1 30 -10 38 -8 9 -16 14 -17 12 -1 -2 -13 -16 -26 -31 -20 -23 -22 -30 -11 -43 7 -9 8 -15 2 -15 -6 0 -12 6 -15 13 -2 6 -8 9 -12 5 -4 -4 -3 -13 3 -20 7 -9 7 -18 -2 -31 -14 -19 -36 -23 -36 -7 0 6 -12 10 -26 10 -25 0 -25 2 -19 42 8 43 35 86 35 54 0 -26 13 -18 50 31 23 31 31 48 22 51 -6 2 -12 10 -12 18 0 8 -4 14 -10 14 -5 0 -10 -7 -10 -15 0 -8 5 -15 10 -15 6 0 10 -8 10 -17 0 -15 -4 -13 -20 7 -13 17 -16 28 -8 37 5 7 6 18 2 24 -5 9 -10 7 -16 -7 -6 -14 -7 -12 -3 9 3 15 1 27 -5 27 -5 0 -10 -5 -10 -12 0 -6 -9 -3 -20 7 -15 14 -17 21 -9 32 7 7 9 16 5 20 -3 4 -13 -2 -21 -13 -13 -17 -14 -17 -15 -1 0 9 5 17 10 17 6 0 10 11 10 25 0 24 3 25 54 25 30 0 58 5 61 10 7 12 175 14 175 2z m89 -160 c-1 -70 -3 -120 -5 -112 -7 35 -10 248 -2 244 4 -3 7 -62 7 -132z m-392 -79 c-2 -27 -3 -5 -3 47 0 52 1 74 3 48 2 -27 2 -69 0 -95z m173 -48 c0 -8 -4 -15 -10 -15 -5 0 -10 7 -10 15 0 8 5 15 10 15 6 0 10 -7 10 -15z m-166 -20 c3 -8 1 -15 -4 -15 -6 0 -10 7 -10 15 0 8 2 15 4 15 2 0 6 -7 10 -15z"/>
<path d="M310 380 c0 -5 5 -10 10 -10 6 0 10 5 10 10 0 6 -4 10 -10 10 -5 0 -10 -4 -10 -10z"/>
<path d="M150 373 c0 -7 4 -13 8 -13 4 0 16 -13 25 -30 10 -16 23 -35 30 -42 7 -7 24 -29 37 -48 13 -19 27 -37 30 -40 3 -3 18 -22 34 -43 15 -21 31 -36 34 -32 4 3 2 9 -4 13 -5 4 -21 23 -34 42 -13 19 -27 37 -30 40 -3 3 -17 21 -30 40 -52 74 -99 128 -100 113z"/>
<path d="M90 345 c0 -8 5 -15 10 -15 6 0 10 7 10 15 0 8 -4 15 -10 15 -5 0 -10 -7 -10 -15z"/>
<path d="M333 310 c-24 -29 -30 -60 -13 -60 6 0 10 -7 10 -15 0 -8 5 -15 10 -15 6 0 10 7 10 15 0 8 -4 15 -10 15 -5 0 -10 9 -10 20 0 11 5 20 10 20 6 0 10 7 10 16 0 8 5 12 10 9 6 -3 10 1 10 9 0 23 -12 19 -37 -14z"/>
<path d="M390 155 c0 -8 5 -15 10 -15 6 0 10 7 10 15 0 8 -4 15 -10 15 -5 0 -10 -7 -10 -15z"/>
<path d="M90 140 c0 -5 5 -10 10 -10 6 0 10 5 10 10 0 6 -4 10 -10 10 -5 0 -10 -4 -10 -10z"/>
<path d="M270 105 c0 -8 5 -15 10 -15 6 0 10 7 10 15 0 8 -4 15 -10 15 -5 0 -10 -7 -10 -15z"/>
<path d="M130 85 c0 -8 5 -15 10 -15 6 0 10 7 10 15 0 8 -4 15 -10 15 -5 0 -10 -7 -10 -15z"/>
</g>
</g>
  <g id="id9:id9" transform="matrix(1.25,0,0,1.25,0.0,0.0)"><g transform="translate(0.000000,20.000000) scale(0.040000,-0.040000)" fill="#ffffff" stroke="none">
<path d="M30 250 c0 -140 4 -220 10 -220 6 0 10 9 10 21 0 11 4 18 10 14 5 -3 7 -12 3 -20 -4 -13 22 -15 187 -15 165 0 191 2 187 15 -4 8 -2 17 3 20 6 4 10 -3 10 -14 0 -12 5 -21 10 -21 6 0 10 80 10 220 0 140 -4 220 -10 220 -5 0 -10 -9 -10 -21 0 -11 -4 -18 -10 -14 -5 3 -7 12 -3 20 4 13 -22 15 -187 15 -165 0 -191 -2 -187 -15 4 -8 2 -17 -3 -20 -6 -4 -10 3 -10 14 0 12 -4 21 -10 21 -6 0 -10 -80 -10 -220z m137 204 c-3 -3 -12 -4 -19 -1 -8 3 -5 6 6 6 11 1 17 -2 13 -5z m193 -12 c0 -4 -34 -6 -76 -4 -72 4 -109 -6 -90 -25 4 -4 11 -2 15 5 6 9 12 8 25 -7 11 -12 14 -21 7 -26 -6 -3 -11 1 -11 9 0 9 -4 16 -10 16 -14 0 -12 -12 6 -35 13 -17 16 -18 25 -5 7 11 8 8 4 -11 -8 -34 16 -45 39 -17 10 11 15 23 12 26 -4 3 -13 -3 -21 -14 -11 -14 -14 -15 -14 -4 0 8 13 25 30 38 16 13 29 19 29 13 0 -6 5 -11 11 -11 6 0 8 7 5 16 -3 8 -2 12 3 9 5 -3 12 -1 16 5 11 18 45 11 45 -9 0 -11 3 -28 6 -38 4 -11 3 -14 -3 -6 -6 8 -13 8 -28 -3 -15 -11 -16 -17 -7 -26 9 -9 12 -8 12 6 0 10 5 14 11 10 7 -4 -3 -21 -27 -45 -35 -36 -37 -40 -21 -57 13 -14 14 -21 5 -30 -6 -6 -8 -15 -4 -19 4 -4 12 -1 17 7 8 11 9 8 5 -13 -4 -15 -2 -27 4 -27 5 0 10 5 10 12 0 6 9 3 20 -7 15 -14 17 -21 9 -32 -7 -7 -9 -16 -5 -20 3 -4 13 2 21 13 13 17 14 17 15 2 0 -10 -4 -18 -10 -18 -5 0 -10 -11 -10 -25 0 -24 -3 -25 -55 -25 -30 0 -55 -4 -55 -10 0 -5 14 -10 32 -10 17 0 29 -2 27 -4 -2 -3 -54 -1 -114 3 -89 7 -97 8 -45 10 66 1 102 13 86 28 -5 4 -11 2 -13 -5 -4 -10 -9 -9 -24 4 -15 13 -16 20 -8 31 7 7 9 17 5 20 -4 4 -12 1 -17 -7 -8 -12 -10 -10 -5 9 3 14 -1 30 -10 38 -8 9 -16 14 -17 12 -1 -2 -13 -16 -26 -31 -20 -23 -22 -30 -11 -43 7 -9 8 -15 2 -15 -6 0 -12 6 -15 13 -2 6 -8 9 -12 5 -4 -4 -3 -13 3 -20 7 -9 7 -18 -2 -31 -14 -19 -36 -23 -36 -7 0 6 -12 10 -26 10 -25 0 -25 2 -19 42 8 43 35 86 35 54 0 -26 13 -18 50 31 23 31 31 48 22 51 -6 2 -12 10 -12 18 0 8 -4 14 -10 14 -5 0 -10 -7 -10 -15 0 -8 5 -15 10 -15 6 0 10 -8 10 -17 0 -15 -4 -13 -20 7 -13 17 -16 28 -8 37 5 7 6 18 2 24 -5 9 -10 7 -16 -7 -6 -14 -7 -12 -3 9 3 15 1 27 -5 27 -5 0 -10 -5 -10 -12 0 -6 -9 -3 -20 7 -15 14 -17 21 -9 32 7 7 9 16 5 20 -3 4 -13 -2 -21 -13 -13 -17 -14 -17 -15 -1 0 9 5 17 10 17 6 0 10 11 10 25 0 24 3 25 54 25 30 0 58 5 61 10 7 12 175 14 175 2z m89 -160 c-1 -70 -3 -120 -5 -112 -7 35 -10 248 -2 244 4 -3 7 -62 7 -132z m-392 -79 c-2 -27 -3 -5 -3 47 0 52 1 74 3 48 2 -27 2 -69 0 -95z m173 -48 c0 -8 -4 -15 -10 -15 -5 0 -10 7 -10 15 0 8 5 15 10 15 6 0 10 -7 10 -15z m-166 -20 c3 -8 1 -15 -4 -15 -6 0 -10 7 -10 15 0 8 2 15 4 15 2 0 6 -7 10 -15z"/>
<path d="M310 380 c0 -5 5 -10 10 -10 6 0 10 5 10 10 0 6 -4 10 -10 10 -5 0 -10 -4 -10 -10z"/>
<path d="M150 373 c0 -7 4 -13 8 -13 4 0 16 -13 25 -30 10 -16 23 -35 30 -42 7 -7 24 -29 37 -48 13 -19 27 -37 30 -40 3 -3 18 -22 34 -43 15 -21 31 -36 34 -32 4 3 2 9 -4 13 -5 4 -21 23 -34 42 -13 19 -27 37 -30 40 -3 3 -17 21 -30 40 -52 74 -99 128 -100 113z"/>
<path d="M90 345 c0 -8 5 -15 10 -15 6 0 10 7 10 15 0 8 -4 15 -10 15 -5 0 -10 -7 -10 -15z"/>
<path d="M333 310 c-24 -29 -30 -60 -13 -60 6 0 10 -7 10 -15 0 -8 5 -15 10 -15 6 0 10 7 10 15 0 8 -4 15 -10 15 -5 0 -10 9 -10 20 0 11 5 20 10 20 6 0 10 7 10 16 0 8 5 12 10 9 6 -3 10 1 10 9 0 23 -12 19 -37 -14z"/>
<path d="M390 155 c0 -8 5 -15 10 -15 6 0 10 7 10 15 0 8 -4 15 -10 15 -5 0 -10 -7 -10 -15z"/>
<path d="M90 140 c0 -5 5 -10 10 -10 6 0 10 5 10 10 0 6 -4 10 -10 10 -5 0 -10 -4 -10 -10z"/>
<path d="M270 105 c0 -8 5 -15 10 -15 6 0 10 7 10 15 0 8 -4 15 -10 15 -5 0 -10 -7 -10 -15z"/>
<path d="M130 85 c0 -8 5 -15 10 -15 6 0 10 7 10 15 0 8 -4 15 -10 15 -5 0 -10 -7 -10 -15z"/>
</g>
</g>
  <g id="id10:id10" transform="matrix(1.25,0,0,1.25,0.0,0.0)"><g transform="translate(0.000000,20.000000) scale(0.040000,-0.040000)" fill="#ffffff" stroke="none">
<path d="M30 250 c0 -140 4 -220 10 -220 6 0 10 9 10 21 0 11 4 18 10 14 5 -3 7 -12 3 -20 -4 -13 22 -15 187 -15 165 0 191 2 187 15 -4 8 -2 17 3 20 6 4 10 -3 10 -14 0 -12 5 -21 10 -21 6 0 10 80 10 220 0 140 -4 220 -10 220 -5 0 -10 -9 -10 -21 0 -11 -4 -18 -10 -14 -5 3 -7 12 -3 20 4 13 -22 15 -187 15 -165 0 -191 -2 -187 -15 4 -8 2 -17 -3 -20 -6 -4 -10 3 -10 14 0 12 -4 21 -10 21 -6 0 -10 -80 -10 -220z m137 204 c-3 -3 -12 -4 -19 -1 -8 3 -5 6 6 6 11 1 17 -2 13 -5z m193 -12 c0 -4 -34 -6 -76 -4 -72 4 -109 -6 -90 -25 4 -4 11 -2 15 5 6 9 12 8 25 -7 11 -12 14 -21 7 -26 -6 -3 -11 1 -11 9 0 9 -4 16 -10 16 -14 0 -12 -12 6 -35 13 -17 16 -18 25 -5 7 11 8 8 4 -11 -8 -34 16 -45 39 -17 10 11 15 23 12 26 -4 3 -13 -3 -21 -14 -11 -14 -14 -15 -14 -4 0 8 13 25 30 38 16 13 29 19 29 13 0 -6 5 -11 11 -11 6 0 8 7 5 16 -3 8 -2 12 3 9 5 -3 12 -1 16 5 11 18 45 11 45 -9 0 -11 3 -28 6 -38 4 -11 3 -14 -3 -6 -6 8 -13 8 -28 -3 -15 -11 -16 -17 -7 -26 9 -9 12 -8 12 6 0 10 5 14 11 10 7 -4 -3 -21 -27 -45 -35 -36 -37 -40 -21 -57 13 -14 14 -21 5 -30 -6 -6 -8 -15 -4 -19 4 -4 12 -1 17 7 8 11 9 8 5 -13 -4 -15 -2 -27 4 -27 5 0 10 5 10 12 0 6 9 3 20 -7 15 -14 17 -21 9 -32 -7 -7 -9 -16 -5 -20 3 -4 13 2 21 13 13 17 14 17 15 2 0 -10 -4 -18 -10 -18 -5 0 -10 -11 -10 -25 0 -24 -3 -25 -55 -25 -30 0 -55 -4 -55 -10 0 -5 14 -10 32 -10 17 0 29 -2 27 -4 -2 -3 -54 -1 -114 3 -89 7 -97 8 -45 10 66 1 102 13 86 28 -5 4 -11 2 -13 -5 -4 -10 -9 -9 -24 4 -15 13 -16 20 -8 31 7 7 9 17 5 20 -4 4 -12 1 -17 -7 -8 -12 -10 -10 -5 9 3 14 -1 30 -10 38 -8 9 -16 14 -17 12 -1 -2 -13 -16 -26 -31 -20 -23 -22 -30 -11 -43 7 -9 8 -15 2 -15 -6 0 -12 6 -15 13 -2 6 -8 9 -12 5 -4 -4 -3 -13 3 -20 7 -9 7 -18 -2 -31 -14 -19 -36 -23 -36 -7 0 6 -12 10 -26 10 -25 0 -25 2 -19 42 8 43 35 86 35 54 0 -26 13 -18 50 31 23 31 31 48 22 51 -6 2 -12 10 -12 18 0 8 -4 14 -10 14 -5 0 -10 -7 -10 -15 0 -8 5 -15 10 -15 6 0 10 -8 10 -17 0 -15 -4 -13 -20 7 -13 17 -16 28 -8 37 5 7 6 18 2 24 -5 9 -10 7 -16 -7 -6 -14 -7 -12 -3 9 3 15 1 27 -5 27 -5 0 -10 -5 -10 -12 0 -6 -9 -3 -20 7 -15 14 -17 21 -9 32 7 7 9 16 5 20 -3 4 -13 -2 -21 -13 -13 -17 -14 -17 -15 -1 0 9 5 17 10 17 6 0 10 11 10 25 0 24 3 25 54 25 30 0 58 5 61 10 7 12 175 14 175 2z m89 -160 c-1 -70 -3 -120 -5 -112 -7 35 -10 248 -2 244 4 -3 7 -62 7 -132z m-392 -79 c-2 -27 -3 -5 -3 47 0 52 1 74 3 48 2 -27 2 -69 0 -95z m173 -48 c0 -8 -4 -15 -10 -15 -5 0 -10 7 -10 15 0 8 5 15 10 15 6 0 10 -7 10 -15z m-166 -20 c3 -8 1 -15 -4 -15 -6 0 -10 7 -10 15 0 8 2 15 4 15 2 0 6 -7 10 -15z"/>
<path d="M310 380 c0 -5 5 -10 10 -10 6 0 10 5 10 10 0 6 -4 10 -10 10 -5 0 -10 -4 -10 -10z"/>
<path d="M150 373 c0 -7 4 -13 8 -13 4 0 16 -13 25 -30 10 -16 23 -35 30 -42 7 -7 24 -29 37 -48 13 -19 27 -37 30 -40 3 -3 18 -22 34 -43 15 -21 31 -36 34 -32 4 3 2 9 -4 13 -5 4 -21 23 -34 42 -13 19 -27 37 -30 40 -3 3 -17 21 -30 40 -52 74 -99 128 -100 113z"/>
<path d="M90 345 c0 -8 5 -15 10 -15 6 0 10 7 10 15 0 8 -4 15 -10 15 -5 0 -10 -7 -10 -15z"/>
<path d="M333 310 c-24 -29 -30 -60 -13 -60 6 0 10 -7 10 -15 0 -8 5 -15 10 -15 6 0 10 7 10 15 0 8 -4 15 -10 15 -5 0 -10 9 -10 20 0 11 5 20 10 20 6 0 10 7 10 16 0 8 5 12 10 9 6 -3 10 1 10 9 0 23 -12 19 -37 -14z"/>
<path d="M390 155 c0 -8 5 -15 10 -15 6 0 10 7 10 15 0 8 -4 15 -10 15 -5 0 -10 -7 -10 -15z"/>
<path d="M90 140 c0 -5 5 -10 10 -10 6 0 10 5 10 10 0 6 -4 10 -10 10 -5 0 -10 -4 -10 -10z"/>
<path d="M270 105 c0 -8 5 -15 10 -15 6 0 10 7 10 15 0 8 -4 15 -10 15 -5 0 -10 -7 -10 -15z"/>
<path d="M130 85 c0 -8 5 -15 10 -15 6 0 10 7 10 15 0 8 -4 15 -10 15 -5 0 -10 -7 -10 -15z"/>
</g>
</g>
  <g id="id11:id11" transform="matrix(1.25,0,0,1.25,0.0,0.0)"><g transform="translate(0.000000,20.000000) scale(0.040000,-0.040000)" fill="#ffffff" stroke="none">
<path d="M30 250 c0 -140 4 -220 10 -220 6 0 10 9 10 21 0 11 4 18 10 14 5 -3 7 -12 3 -20 -4 -13 22 -15 187 -15 165 0 191 2 187 15 -4 8 -2 17 3 20 6 4 10 -3 10 -14 0 -12 5 -21 10 -21 6 0 10 80 10 220 0 140 -4 220 -10 220 -5 0 -10 -9 -10 -21 0 -11 -4 -18 -10 -14 -5 3 -7 12 -3 20 4 13 -22 15 -187 15 -165 0 -191 -2 -187 -15 4 -8 2 -17 -3 -20 -6 -4 -10 3 -10 14 0 12 -4 21 -10 21 -6 0 -10 -80 -10 -220z m137 204 c-3 -3 -12 -4 -19 -1 -8 3 -5 6 6 6 11 1 17 -2 13 -5z m193 -12 c0 -4 -34 -6 -76 -4 -72 4 -109 -6 -90 -25 4 -4 11 -2 15 5 6 9 12 8 25 -7 11 -12 14 -21 7 -26 -6 -3 -11 1 -11 9 0 9 -4 16 -10 16 -14 0 -12 -12 6 -35 13 -17 16 -18 25 -5 7 11 8 8 4 -11 -8 -34 16 -45 39 -17 10 11 15 23 12 26 -4 3 -13 -3 -21 -14 -11 -14 -14 -15 -14 -4 0 8 13 25 30 38 16 13 29 19 29 13 0 -6 5 -11 11 -11 6 0 8 7 5 16 -3 8 -2 12 3 9 5 -3 12 -1 16 5 11 18 45 11 45 -9 0 -11 3 -28 6 -38 4 -11 3 -14 -3 -6 -6 8 -13 8 -28 -3 -15 -11 -16 -17 -7 -26 9 -9 12 -8 12 6 0 10 5 14 11 10 7 -4 -3 -21 -27 -45 -35 -36 -37 -40 -21 -57 13 -14 14 -21 5 -30 -6 -6 -8 -15 -4 -19 4 -4 12 -1 17 7 8 11 9 8 5 -13 -4 -15 -2 -27 4 -27 5 0 10 5 10 12 0 6 9 3 20 -7 15 -14 17 -21 9 -32 -7 -7 -9 -16 -5 -20 3 -4 13 2 21 13 13 17 14 17 15 2 0 -10 -4 -18 -10 -18 -5 0 -10 -11 -10 -25 0 -24 -3 -25 -55 -25 -30 0 -55 -4 -55 -10 0 -5 14 -10 32 -10 17 0 29 -2 27 -4 -2 -3 -54 -1 -114 3 -89 7 -97 8 -45 10 66 1 102 13 86 28 -5 4 -11 2 -13 -5 -4 -10 -9 -9 -24 4 -15 13 -16 20 -8 31 7 7 9 17 5 20 -4 4 -12 1 -17 -7 -8 -12 -10 -10 -5 9 3 14 -1 30 -10 38 -8 9 -16 14 -17 12 -1 -2 -13 -16 -26 -31 -20 -23 -22 -30 -11 -43 7 -9 8 -15 2 -15 -6 0 -12 6 -15 13 -2 6 -8 9 -12 5 -4 -4 -3 -13 3 -20 7 -9 7 -18 -2 -31 -14 -19 -36 -23 -36 -7 0 6 -12 10 -26 10 -25 0 -25 2 -19 42 8 43 35 86 35 54 0 -26 13 -18 50 31 23 31 31 48 22 51 -6 2 -12 10 -12 18 0 8 -4 14 -10 14 -5 0 -10 -7 -10 -15 0 -8 5 -15 10 -15 6 0 10 -8 10 -17 0 -15 -4 -13 -20 7 -13 17 -16 28 -8 37 5 7 6 18 2 24 -5 9 -10 7 -16 -7 -6 -14 -7 -12 -3 9 3 15 1 27 -5 27 -5 0 -10 -5 -10 -12 0 -6 -9 -3 -20 7 -15 14 -17 21 -9 32 7 7 9 16 5 20 -3 4 -13 -2 -21 -13 -13 -17 -14 -17 -15 -1 0 9 5 17 10 17 6 0 10 11 10 25 0 24 3 25 54 25 30 0 58 5 61 10 7 12 175 14 175 2z m89 -160 c-1 -70 -3 -120 -5 -112 -7 35 -10 248 -2 244 4 -3 7 -62 7 -132z m-392 -79 c-2 -27 -3 -5 -3 47 0 52 1 74 3 48 2 -27 2 -69 0 -95z m173 -48 c0 -8 -4 -15 -10 -15 -5 0 -10 7 -10 15 0 8 5 15 10 15 6 0 10 -7 10 -15z m-166 -20 c3 -8 1 -15 -4 -15 -6 0 -10 7 -10 15 0 8 2 15 4 15 2 0 6 -7 10 -15z"/>
<path d="M310 380 c0 -5 5 -10 10 -10 6 0 10 5 10 10 0 6 -4 10 -10 10 -5 0 -10 -4 -10 -10z"/>
<path d="M150 373 c0 -7 4 -13 8 -13 4 0 16 -13 25 -30 10 -16 23 -35 30 -42 7 -7 24 -29 37 -48 13 -19 27 -37 30 -40 3 -3 18 -22 34 -43 15 -21 31 -36 34 -32 4 3 2 9 -4 13 -5 4 -21 23 -34 42 -13 19 -27 37 -30 40 -3 3 -17 21 -30 40 -52 74 -99 128 -100 113z"/>
<path d="M90 345 c0 -8 5 -15 10 -15 6 0 10 7 10 15 0 8 -4 15 -10 15 -5 0 -10 -7 -10 -15z"/>
<path d="M333 310 c-24 -29 -30 -60 -13 -60 6 0 10 -7 10 -15 0 -8 5 -15 10 -15 6 0 10 7 10 15 0 8 -4 15 -10 15 -5 0 -10 9 -10 20 0 11 5 20 10 20 6 0 10 7 10 16 0 8 5 12 10 9 6 -3 10 1 10 9 0 23 -12 19 -37 -14z"/>
<path d="M390 155 c0 -8 5 -15 10 -15 6 0 10 7 10 15 0 8 -4 15 -10 15 -5 0 -10 -7 -10 -15z"/>
<path d="M90 140 c0 -5 5 -10 10 -10 6 0 10 5 10 10 0 6 -4 10 -10 10 -5 0 -10 -4 -10 -10z"/>
<path d="M270 105 c0 -8 5 -15 10 -15 6 0 10 7 10 15 0 8 -4 15 -10 15 -5 0 -10 -7 -10 -15z"/>
<path d="M130 85 c0 -8 5 -15 10 -15 6 0 10 7 10 15 0 8 -4 15 -10 15 -5 0 -10 -7 -10 -15z"/>
</g>
</g>
  <g id="id12:id12" transform="matrix(1.25,0,0,1.25,0.0,0.0)"><g transform="translate(0.000000,20.000000) scale(0.040000,-0.040000)" fill="#ffffff" stroke="none">
<path d="M30 250 c0 -140 4 -220 10 -220 6 0 10 9 10 21 0 11 4 18 10 14 5 -3 7 -12 3 -20 -4 -13 22 -15 187 -15 165 0 191 2 187 15 -4 8 -2 17 3 20 6 4 10 -3 10 -14 0 -12 5 -21 10 -21 6 0 10 80 10 220 0 140 -4 220 -10 220 -5 0 -10 -9 -10 -21 0 -11 -4 -18 -10 -14 -5 3 -7 12 -3 20 4 13 -22 15 -187 15 -165 0 -191 -2 -187 -15 4 -8 2 -17 -3 -20 -6 -4 -10 3 -10 14 0 12 -4 21 -10 21 -6 0 -10 -80 -10 -220z m137 204 c-3 -3 -12 -4 -19 -1 -8 3 -5 6 6 6 11 1 17 -2 13 -5z m193 -12 c0 -4 -34 -6 -76 -4 -72 4 -109 -6 -90 -25 4 -4 11 -2 15 5 6 9 12 8 25 -7 11 -12 14 -21 7 -26 -6 -3 -11 1 -11 9 0 9 -4 16 -10 16 -14 0 -12 -12 6 -35 13 -17 16 -18 25 -5 7 11 8 8 4 -11 -8 -34 16 -45 39 -17 10 11 15 23 12 26 -4 3 -13 -3 -21 -14 -11 -14 -14 -15 -14 -4 0 8 13 25 30 38 16 13 29 19 29 13 0 -6 5 -11 11 -11 6 0 8 7 5 16 -3 8 -2 12 3 9 5 -3 12 -1 16 5 11 18 45 11 45 -9 0 -11 3 -28 6 -38 4 -11 3 -14 -3 -6 -6 8 -13 8 -28 -3 -15 -11 -16 -17 -7 -26 9 -9 12 -8 12 6 0 10 5 14 11 10 7 -4 -3 -21 -27 -45 -35 -36 -37 -40 -21 -57 13 -14 14 -21 5 -30 -6 -6 -8 -15 -4 -19 4 -4 12 -1 17 7 8 11 9 8 5 -13 -4 -15 -2 -27 4 -27 5 0 10 5 10 12 0 6 9 3 20 -7 15 -14 17 -21 9 -32 -7 -7 -9 -16 -5 -20 3 -4 13 2 21 13 13 17 14 17 15 2 0 -10 -4 -18 -10 -18 -5 0 -10 -11 -10 -25 0 -24 -3 -25 -55 -25 -30 0 -55 -4 -55 -10 0 -5 14 -10 32 -10 17 0 29 -2 27 -4 -2 -3 -54 -1 -114 3 -89 7 -97 8 -45 10 66 1 102 13 86 28 -5 4 -11 2 -13 -5 -4 -10 -9 -9 -24 4 -15 13 -16 20 -8 31 7 7 9 17 5 20 -4 4 -12 1 -17 -7 -8 -12 -10 -10 -5 9 3 14 -1 30 -10 38 -8 9 -16 14 -17 12 -1 -2 -13 -16 -26 -31 -20 -23 -22 -30 -11 -43 7 -9 8 -15 2 -15 -6 0 -12 6 -15 13 -2 6 -8 9 -12 5 -4 -4 -3 -13 3 -20 7 -9 7 -18 -2 -31 -14 -19 -36 -23 -36 -7 0 6 -12 10 -26 10 -25 0 -25 2 -19 42 8 43 35 86 35 54 0 -26 13 -18 50 31 23 31 31 48 22 51 -6 2 -12 10 -12 18 0 8 -4 14 -10 14 -5 0 -10 -7 -10 -15 0 -8 5 -15 10 -15 6 0 10 -8 10 -17 0 -15 -4 -13 -20 7 -13 17 -16 28 -8 37 5 7 6 18 2 24 -5 9 -10 7 -16 -7 -6 -14 -7 -12 -3 9 3 15 1 27 -5 27 -5 0 -10 -5 -10 -12 0 -6 -9 -3 -20 7 -15 14 -17 21 -9 32 7 7 9 16 5 20 -3 4 -13 -2 -21 -13 -13 -17 -14 -17 -15 -1 0 9 5 17 10 17 6 0 10 11 10 25 0 24 3 25 54 25 30 0 58 5 61 10 7 12 175 14 175 2z m89 -160 c-1 -70 -3 -120 -5 -112 -7 35 -10 248 -2 244 4 -3 7 -62 7 -132z m-392 -79 c-2 -27 -3 -5 -3 47 0 52 1 74 3 48 2 -27 2 -69 0 -95z m173 -48 c0 -8 -4 -15 -10 -15 -5 0 -10 7 -10 15 0 8 5 15 10 15 6 0 10 -7 10 -15z m-166 -20 c3 -8 1 -15 -4 -15 -6 0 -10 7 -10 15 0 8 2 15 4 15 2 0 6 -7 10 -15z"/>
<path d="M310 380 c0 -5 5 -10 10 -10 6 0 10 5 10 10 0 6 -4 10 -10 10 -5 0 -10 -4 -10 -10z"/>
<path d="M150 373 c0 -7 4 -13 8 -13 4 0 16 -13 25 -30 10 -16 23 -35 30 -42 7 -7 24 -29 37 -48 13 -19 27 -37 30 -40 3 -3 18 -22 34 -43 15 -21 31 -36 34 -32 4 3 2 9 -4 13 -5 4 -21 23 -34 42 -13 19 -27 37 -30 40 -3 3 -17 21 -30 40 -52 74 -99 128 -100 113z"/>
<path d="M90 345 c0 -8 5 -15 10 -15 6 0 10 7 10 15 0 8 -4 15 -10 15 -5 0 -10 -7 -10 -15z"/>
<path d="M333 310 c-24 -29 -30 -60 -13 -60 6 0 10 -7 10 -15 0 -8 5 -15 10 -15 6 0 10 7 10 15 0 8 -4 15 -10 15 -5 0 -10 9 -10 20 0 11 5 20 10 20 6 0 10 7 10 16 0 8 5 12 10 9 6 -3 10 1 10 9 0 23 -12 19 -37 -14z"/>
<path d="M390 155 c0 -8 5 -15 10 -15 6 0 10 7 10 15 0 8 -4 15 -10 15 -5 0 -10 -7 -10 -15z"/>
<path d="M90 140 c0 -5 5 -10 10 -10 6 0 10 5 10 10 0 6 -4 10 -10 10 -5 0 -10 -4 -10 -10z"/>
<path d="M270 105 c0 -8 5 -15 10 -15 6 0 10 7 10 15 0 8 -4 15 -10 15 -5 0 -10 -7 -10 -15z"/>
<path d="M130 85 c0 -8 5 -15 10 -15 6 0 10 7 10 15 0 8 -4 15 -10 15 -5 0 -10 -7 -10 -15z"/>
</g>
</g>
  <g id="id13:id13" transform="matrix(1.25,0,0,1.25,0.0,0.0)"><g transform="translate(0.000000,20.000000) scale(0.040000,-0.040000)" fill="#ffffff" stroke="none">
<path d="M30 250 c0 -140 4 -220 10 -220 6 0 10 9 10 21 0 11 4 18 10 14 5 -3 7 -12 3 -20 -4 -13 22 -15 187 -15 165 0 191 2 187 15 -4 8 -2 17 3 20 6 4 10 -3 10 -14 0 -12 5 -21 10 -21 6 0 10 80 10 220 0 140 -4 220 -10 220 -5 0 -10 -9 -10 -21 0 -11 -4 -18 -10 -14 -5 3 -7 12 -3 20 4 13 -22 15 -187 15 -165 0 -191 -2 -187 -15 4 -8 2 -17 -3 -20 -6 -4 -10 3 -10 14 0 12 -4 21 -10 21 -6 0 -10 -80 -10 -220z m137 204 c-3 -3 -12 -4 -19 -1 -8 3 -5 6 6 6 11 1 17 -2 13 -5z m193 -12 c0 -4 -34 -6 -76 -4 -72 4 -109 -6 -90 -25 4 -4 11 -2 15 5 6 9 12 8 25 -7 11 -12 14 -21 7 -26 -6 -3 -11 1 -11 9 0 9 -4 16 -10 16 -14 0 -12 -12 6 -35 13 -17 16 -18 25 -5 7 11 8 8 4 -11 -8 -34 16 -45 39 -17 10 11 15 23 12 26 -4 3 -13 -3 -21 -14 -11 -14 -14 -15 -14 -4 0 8 13 25 30 38 16 13 29 19 29 13 0 -6 5 -11 11 -11 6 0 8 7 5 16 -3 8 -2 12 3 9 5 -3 12 -1 16 5 11 18 45 11 45 -9 0 -11 3 -28 6 -38 4 -11 3 -14 -3 -6 -6 8 -13 8 -28 -3 -15 -11 -16 -17 -7 -26 9 -9 12 -8 12 6 0 10 5 14 11 10 7 -4 -3 -21 -27 -45 -35 -36 -37 -40 -21 -57 13 -14 14 -21 5 -30 -6 -6 -8 -15 -4 -19 4 -4 12 -1 17 7 8 11 9 8 5 -13 -4 -15 -2 -27 4 -27 5 0 10 5 10 12 0 6 9 3 20 -7 15 -14 17 -21 9 -32 -7 -7 -9 -16 -5 -20 3 -4 13 2 21 13 13 17 14 17 15 2 0 -10 -4 -18 -10 -18 -5 0 -10 -11 -10 -25 0 -24 -3 -25 -55 -25 -30 0 -55 -4 -55 -10 0 -5 14 -10 32 -10 17 0 29 -2 27 -4 -2 -3 -54 -1 -114 3 -89 7 -97 8 -45 10 66 1 102 13 86 28 -5 4 -11 2 -13 -5 -4 -10 -9 -9 -24 4 -15 13 -16 20 -8 31 7 7 9 17 5 20 -4 4 -12 1 -17 -7 -8 -12 -10 -10 -5 9 3 14 -1 30 -10 38 -8 9 -16 14 -17 12 -1 -2 -13 -16 -26 -31 -20 -23 -22 -30 -11 -43 7 -9 8 -15 2 -15 -6 0 -12 6 -15 13 -2 6 -8 9 -12 5 -4 -4 -3 -13 3 -20 7 -9 7 -18 -2 -31 -14 -19 -36 -23 -36 -7 0 6 -12 10 -26 10 -25 0 -25 2 -19 42 8 43 35 86 35 54 0 -26 13 -18 50 31 23 31 31 48 22 51 -6 2 -12 10 -12 18 0 8 -4 14 -10 14 -5 0 -10 -7 -10 -15 0 -8 5 -15 10 -15 6 0 10 -8 10 -17 0 -15 -4 -13 -20 7 -13 17 -16 28 -8 37 5 7 6 18 2 24 -5 9 -10 7 -16 -7 -6 -14 -7 -12 -3 9 3 15 1 27 -5 27 -5 0 -10 -5 -10 -12 0 -6 -9 -3 -20 7 -15 14 -17 21 -9 32 7 7 9 16 5 20 -3 4 -13 -2 -21 -13 -13 -17 -14 -17 -15 -1 0 9 5 17 10 17 6 0 10 11 10 25 0 24 3 25 54 25 30 0 58 5 61 10 7 12 175 14 175 2z m89 -160 c-1 -70 -3 -120 -5 -112 -7 35 -10 248 -2 244 4 -3 7 -62 7 -132z m-392 -79 c-2 -27 -3 -5 -3 47 0 52 1 74 3 48 2 -27 2 -69 0 -95z m173 -48 c0 -8 -4 -15 -10 -15 -5 0 -10 7 -10 15 0 8 5 15 10 15 6 0 10 -7 10 -15z m-166 -20 c3 -8 1 -15 -4 -15 -6 0 -10 7 -10 15 0 8 2 15 4 15 2 0 6 -7 10 -15z"/>
<path d="M310 380 c0 -5 5 -10 10 -10 6 0 10 5 10 10 0 6 -4 10 -10 10 -5 0 -10 -4 -10 -10z"/>
<path d="M150 373 c0 -7 4 -13 8 -13 4 0 16 -13 25 -30 10 -16 23 -35 30 -42 7 -7 24 -29 37 -48 13 -19 27 -37 30 -40 3 -3 18 -22 34 -43 15 -21 31 -36 34 -32 4 3 2 9 -4 13 -5 4 -21 23 -34 42 -13 19 -27 37 -30 40 -3 3 -17 21 -30 40 -52 74 -99 128 -100 113z"/>
<path d="M90 345 c0 -8 5 -15 10 -15 6 0 10 7 10 15 0 8 -4 15 -10 15 -5 0 -10 -7 -10 -15z"/>
<path d="M333 310 c-24 -29 -30 -60 -13 -60 6 0 10 -7 10 -15 0 -8 5 -15 10 -15 6 0 10 7 10 15 0 8 -4 15 -10 15 -5 0 -10 9 -10 20 0 11 5 20 10 20 6 0 10 7 10 16 0 8 5 12 10 9 6 -3 10 1 10 9 0 23 -12 19 -37 -14z"/>
<path d="M390 155 c0 -8 5 -15 10 -15 6 0 10 7 10 15 0 8 -4 15 -10 15 -5 0 -10 -7 -10 -15z"/>
<path d="M90 140 c0 -5 5 -10 10 -10 6 0 10 5 10 10 0 6 -4 10 -10 10 -5 0 -10 -4 -10 -10z"/>
<path d="M270 105 c0 -8 5 -15 10 -15 6 0 10 7 10 15 0 8 -4 15 -10 15 -5 0 -10 -7 -10 -15z"/>
<path d="M130 85 c0 -8 5 -15 10 -15 6 0 10 7 10 15 0 8 -4 15 -10 15 -5 0 -10 -7 -10 -15z"/>
</g>
</g>
  <g id="id14:id14" transform="matrix(1.25,0,0,1.25,0.0,0.0)"><g transform="translate(0.000000,20.000000) scale(0.040000,-0.040000)" fill="#ffffff" stroke="none">
<path d="M30 250 c0 -140 4 -220 10 -220 6 0 10 9 10 21 0 11 4 18 10 14 5 -3 7 -12 3 -20 -4 -13 22 -15 187 -15 165 0 191 2 187 15 -4 8 -2 17 3 20 6 4 10 -3 10 -14 0 -12 5 -21 10 -21 6 0 10 80 10 220 0 140 -4 220 -10 220 -5 0 -10 -9 -10 -21 0 -11 -4 -18 -10 -14 -5 3 -7 12 -3 20 4 13 -22 15 -187 15 -165 0 -191 -2 -187 -15 4 -8 2 -17 -3 -20 -6 -4 -10 3 -10 14 0 12 -4 21 -10 21 -6 0 -10 -80 -10 -220z m137 204 c-3 -3 -12 -4 -19 -1 -8 3 -5 6 6 6 11 1 17 -2 13 -5z m193 -12 c0 -4 -34 -6 -76 -4 -72 4 -109 -6 -90 -25 4 -4 11 -2 15 5 6 9 12 8 25 -7 11 -12 14 -21 7 -26 -6 -3 -11 1 -11 9 0 9 -4 16 -10 16 -14 0 -12 -12 6 -35 13 -17 16 -18 25 -5 7 11 8 8 4 -11 -8 -34 16 -45 39 -17 10 11 15 23 12 26 -4 3 -13 -3 -21 -14 -11 -14 -14 -15 -14 -4 0 8 13 25 30 38 16 13 29 19 29 13 0 -6 5 -11 11 -11 6 0 8 7 5 16 -3 8 -2 12 3 9 5 -3 12 -1 16 5 11 18 45 11 45 -9 0 -11 3 -28 6 -38 4 -11 3 -14 -3 -6 -6 8 -13 8 -28 -3 -15 -11 -16 -17 -7 -26 9 -9 12 -8 12 6 0 10 5 14 11 10 7 -4 -3 -21 -27 -45 -35 -36 -37 -40 -21 -57 13 -14 14 -21 5 -30 -6 -6 -8 -15 -4 -19 4 -4 12 -1 17 7 8 11 9 8 5 -13 -4 -15 -2 -27 4 -27 5 0 10 5 10 12 0 6 9 3 20 -7 15 -14 17 -21 9 -32 -7 -7 -9 -16 -5 -20 3 -4 13 2 21 13 13 17 14 17 15 2 0 -10 -4 -18 -10 -18 -5 0 -10 -11 -10 -25 0 -24 -3 -25 -55 -25 -30 0 -55 -4 -55 -10 0 -5 14 -10 32 -10 17 0 29 -2 27 -4 -2 -3 -54 -1 -114 3 -89 7 -97 8 -45 10 66 1 102 13 86 28 -5 4 -11 2 -13 -5 -4 -10 -9 -9 -24 4 -15 13 -16 20 -8 31 7 7 9 17 5 20 -4 4 -12 1 -17 -7 -8 -12 -10 -10 -5 9 3 14 -1 30 -10 38 -8 9 -16 14 -17 12 -1 -2 -13 -16 -26 -31 -20 -23 -22 -30 -11 -43 7 -9 8 -15 2 -15 -6 0 -12 6 -15 13 -2 6 -8 9 -12 5 -4 -4 -3 -13 3 -20 7 -9 7 -18 -2 -31 -14 -19 -36 -23 -36 -7 0 6 -12 10 -26 10 -25 0 -25 2 -19 42 8 43 35 86 35 54 0 -26 13 -18 50 31 23 31 31 48 22 51 -6 2 -12 10 -12 18 0 8 -4 14 -10 14 -5 0 -10 -7 -10 -15 0 -8 5 -15 10 -15 6 0 10 -8 10 -17 0 -15 -4 -13 -20 7 -13 17 -16 28 -8 37 5 7 6 18 2 24 -5 9 -10 7 -16 -7 -6 -14 -7 -12 -3 9 3 15 1 27 -5 27 -5 0 -10 -5 -10 -12 0 -6 -9 -3 -20 7 -15 14 -17 21 -9 32 7 7 9 16 5 20 -3 4 -13 -2 -21 -13 -13 -17 -14 -17 -15 -1 0 9 5 17 10 17 6 0 10 11 10 25 0 24 3 25 54 25 30 0 58 5 61 10 7 12 175 14 175 2z m89 -160 c-1 -70 -3 -120 -5 -112 -7 35 -10 248 -2 244 4 -3 7 -62 7 -132z m-392 -79 c-2 -27 -3 -5 -3 47 0 52 1 74 3 48 2 -27 2 -69 0 -95z m173 -48 c0 -8 -4 -15 -10 -15 -5 0 -10 7 -10 15 0 8 5 15 10 15 6 0 10 -7 10 -15z m-166 -20 c3 -8 1 -15 -4 -15 -6 0 -10 7 -10 15 0 8 2 15 4 15 2 0 6 -7 10 -15z"/>
<path d="M310 380 c0 -5 5 -10 10 -10 6 0 10 5 10 10 0 6 -4 10 -10 10 -5 0 -10 -4 -10 -10z"/>
<path d="M150 373 c0 -7 4 -13 8 -13 4 0 16 -13 25 -30 10 -16 23 -35 30 -42 7 -7 24 -29 37 -48 13 -19 27 -37 30 -40 3 -3 18 -22 34 -43 15 -21 31 -36 34 -32 4 3 2 9 -4 13 -5 4 -21 23 -34 42 -13 19 -27 37 -30 40 -3 3 -17 21 -30 40 -52 74 -99 128 -100 113z"/>
<path d="M90 345 c0 -8 5 -15 10 -15 6 0 10 7 10 15 0 8 -4 15 -10 15 -5 0 -10 -7 -10 -15z"/>
<path d="M333 310 c-24 -29 -30 -60 -13 -60 6 0 10 -7 10 -15 0 -8 5 -15 10 -15 6 0 10 7 10 15 0 8 -4 15 -10 15 -5 0 -10 9 -10 20 0 11 5 20 10 20 6 0 10 7 10 16 0 8 5 12 10 9 6 -3 10 1 10 9 0 23 -12 19 -37 -14z"/>
<path d="M390 155 c0 -8 5 -15 10 -15 6 0 10 7 10 15 0 8 -4 15 -10 15 -5 0 -10 -7 -10 -15z"/>
<path d="M90 140 c0 -5 5 -10 10 -10 6 0 10 5 10 10 0 6 -4 10 -10 10 -5 0 -10 -4 -10 -10z"/>
<path d="M270 105 c0 -8 5 -15 10 -15 6 0 10 7 10 15 0 8 -4 15 -10 15 -5 0 -10 -7 -10 -15z"/>
<path d="M130 85 c0 -8 5 -15 10 -15 6 0 10 7 10 15 0 8 -4 15 -10 15 -5 0 -10 -7 -10 -15z"/>
</g>
</g>
  <g id="id15:id15" transform="matrix(1.25,0,0,1.25,0.0,0.0)"><g transform="translate(0.000000,20.000000) scale(0.040000,-0.040000)" fill="#ffffff" stroke="none">
<path d="M30 250 c0 -140 4 -220 10 -220 6 0 10 9 10 21 0 11 4 18 10 14 5 -3 7 -12 3 -20 -4 -13 22 -15 187 -15 165 0 191 2 187 15 -4 8 -2 17 3 20 6 4 10 -3 10 -14 0 -12 5 -21 10 -21 6 0 10 80 10 220 0 140 -4 220 -10 220 -5 0 -10 -9 -10 -21 0 -11 -4 -18 -10 -14 -5 3 -7 12 -3 20 4 13 -22 15 -187 15 -165 0 -191 -2 -187 -15 4 -8 2 -17 -3 -20 -6 -4 -10 3 -10 14 0 12 -4 21 -10 21 -6 0 -10 -80 -10 -220z m137 204 c-3 -3 -12 -4 -19 -1 -8 3 -5 6 6 6 11 1 17 -2 13 -5z m193 -12 c0 -4 -34 -6 -76 -4 -72 4 -109 -6 -90 -25 4 -4 11 -2 15 5 6 9 12 8 25 -7 11 -12 14 -21 7 -26 -6 -3 -11 1 -11 9 0 9 -4 16 -10 16 -14 0 -12 -12 6 -35 13 -17 16 -18 25 -5 7 11 8 8 4 -11 -8 -34 16 -45 39 -17 10 11 15 23 12 26 -4 3 -13 -3 -21 -14 -11 -14 -14 -15 -14 -4 0 8 13 25 30 38 16 13 29 19 29 13 0 -6 5 -11 11 -11 6 0 8 7 5 16 -3 8 -2 12 3 9 5 -3 12 -1 16 5 11 18 45 11 45 -9 0 -11 3 -28 6 -38 4 -11 3 -14 -3 -6 -6 8 -13 8 -28 -3 -15 -11 -16 -17 -7 -26 9 -9 12 -8 12 6 0 10 5 14 11 10 7 -4 -3 -21 -27 -45 -35 -36 -37 -40 -21 -57 13 -14 14 -21 5 -30 -6 -6 -8 -15 -4 -19 4 -4 12 -1 17 7 8 11 9 8 5 -13 -4 -15 -2 -27 4 -27 5 0 10 5 10 12 0 6 9 3 20 -7 15 -14 17 -21 9 -32 -7 -7 -9 -16 -5 -20 3 -4 13 2 21 13 13 17 14 17 15 2 0 -10 -4 -18 -10 -18 -5 0 -10 -11 -10 -25 0 -24 -3 -25 -55 -25 -30 0 -55 -4 -55 -10 0 -5 14 -10 32 -10 17 0 29 -2 27 -4 -2 -3 -54 -1 -114 3 -89 7 -97 8 -45 10 66 1 102 13 86 28 -5 4 -11 2 -13 -5 -4 -10 -9 -9 -24 4 -15 13 -16 20 -8 31 7 7 9 17 5 20 -4 4 -12 1 -17 -7 -8 -12 -10 -10 -5 9 3 14 -1 30 -10 38 -8 9 -16 14 -17 12 -1 -2 -13 -16 -26 -31 -20 -23 -22 -30 -11 -43 7 -9 8 -15 2 -15 -6 0 -12 6 -15 13 -2 6 -8 9 -12 5 -4 -4 -3 -13 3 -20 7 -9 7 -18 -2 -31 -14 -19 -36 -23 -36 -7 0 6 -12 10 -26 10 -25 0 -25 2 -19 42 8 43 35 86 35 54 0 -26 13 -18 50 31 23 31 31 48 22 51 -6 2 -12 10 -12 18 0 8 -4 14 -10 14 -5 0 -10 -7 -10 -15 0 -8 5 -15 10 -15 6 0 10 -8 10 -17 0 -15 -4 -13 -20 7 -13 17 -16 28 -8 37 5 7 6 18 2 24 -5 9 -10 7 -16 -7 -6 -14 -7 -12 -3 9 3 15 1 27 -5 27 -5 0 -10 -5 -10 -12 0 -6 -9 -3 -20 7 -15 14 -17 21 -9 32 7 7 9 16 5 20 -3 4 -13 -2 -21 -13 -13 -17 -14 -17 -15 -1 0 9 5 17 10 17 6 0 10 11 10 25 0 24 3 25 54 25 30 0 58 5 61 10 7 12 175 14 175 2z m89 -160 c-1 -70 -3 -120 -5 -112 -7 35 -10 248 -2 244 4 -3 7 -62 7 -132z m-392 -79 c-2 -27 -3 -5 -3 47 0 52 1 74 3 48 2 -27 2 -69 0 -95z m173 -48 c0 -8 -4 -15 -10 -15 -5 0 -10 7 -10 15 0 8 5 15 10 15 6 0 10 -7 10 -15z m-166 -20 c3 -8 1 -15 -4 -15 -6 0 -10 7 -10 15 0 8 2 15 4 15 2 0 6 -7 10 -15z"/>
<path d="M310 380 c0 -5 5 -10 10 -10 6 0 10 5 10 10 0 6 -4 10 -10 10 -5 0 -10 -4 -10 -10z"/>
<path d="M150 373 c0 -7 4 -13 8 -13 4 0 16 -13 25 -30 10 -16 23 -35 30 -42 7 -7 24 -29 37 -48 13 -19 27 -37 30 -40 3 -3 18 -22 34 -43 15 -21 31 -36 34 -32 4 3 2 9 -4 13 -5 4 -21 23 -34 42 -13 19 -27 37 -30 40 -3 3 -17 21 -30 40 -52 74 -99 128 -100 113z"/>
<path d="M90 345 c0 -8 5 -15 10 -15 6 0 10 7 10 15 0 8 -4 15 -10 15 -5 0 -10 -7 -10 -15z"/>
<path d="M333 310 c-24 -29 -30 -60 -13 -60 6 0 10 -7 10 -15 0 -8 5 -15 10 -15 6 0 10 7 10 15 0 8 -4 15 -10 15 -5 0 -10 9 -10 20 0 11 5 20 10 20 6 0 10 7 10 16 0 8 5 12 10 9 6 -3 10 1 10 9 0 23 -12 19 -37 -14z"/>
<path d="M390 155 c0 -8 5 -15 10 -15 6 0 10 7 10 15 0 8 -4 15 -10 15 -5 0 -10 -7 -10 -15z"/>
<path d="M90 140 c0 -5 5 -10 10 -10 6 0 10 5 10 10 0 6 -4 10 -10 10 -5 0 -10 -4 -10 -10z"/>
<path d="M270 105 c0 -8 5 -15 10 -15 6 0 10 7 10 15 0 8 -4 15 -10 15 -5 0 -10 -7 -10 -15z"/>
<path d="M130 85 c0 -8 5 -15 10 -15 6 0 10 7 10 15 0 8 -4 15 -10 15 -5 0 -10 -7 -10 -15z"/>
</g>
</g>
</svg>
