<svg xmlns="http://www.w3.org/2000/svg" width="23.332" height="23.332" viewBox="0 0 23.332 23.332"><path d="M105.152,89.527a5.653,5.653,0,0,1,.013,7.984l-.013.014-2.5,2.5a5.656,5.656,0,1,1-8-8l1.381-1.381a.6.6,0,0,1,1.016.395A6.856,6.856,0,0,0,97.41,93a.6.6,0,0,1-.141.618l-.487.487a2.679,2.679,0,1,0,3.764,3.813l2.5-2.5a2.678,2.678,0,0,0,0-3.789,2.787,2.787,0,0,0-.385-.319.6.6,0,0,1-.258-.469,1.482,1.482,0,0,1,.435-1.109l.783-.783a.6.6,0,0,1,.766-.064,5.67,5.67,0,0,1,.764.64Zm5.244-5.244a5.662,5.662,0,0,0-8,0l-2.5,2.5-.013.014a5.657,5.657,0,0,0,.777,8.624.6.6,0,0,0,.766-.064l.783-.783a1.482,1.482,0,0,0,.435-1.109.6.6,0,0,0-.258-.469,2.787,2.787,0,0,1-.385-.319,2.678,2.678,0,0,1,0-3.789l2.5-2.5a2.679,2.679,0,1,1,3.764,3.813l-.487.487a.6.6,0,0,0-.141.618A6.856,6.856,0,0,1,108,93.267a.6.6,0,0,0,1.016.395l1.381-1.381a5.661,5.661,0,0,0,0-8Z" transform="matrix(0.966, -0.259, 0.259, 0.966, -111.217, -50.813)" fill="#acadb3"/></svg>