<svg id="Layer_1" data-name="Layer 1" xmlns="http://www.w3.org/2000/svg" viewBox="0 0 504 504"><path d="M162.42139,352.55983l5.45019,14.53222,5.47363-14.53222h3.14844v17.293H174.314V355.46608h-.04882l-5.40137,14.38671h-1.96094l-5.40137-14.38671h-.04882v14.38671H159.273v-17.293Z" style="fill:#386097"/><path d="M184.75244,357.04029q4.67432,0,4.67481,3.36719v7.2168q0,.70313.65332.70312a1.75807,1.75807,0,0,0,.62988-.12109V369.804a2.97563,2.97563,0,0,1-1.47754.33984q-1.74317,0-1.74316-1.9375a5.492,5.492,0,0,1-4.40821,1.9375,4.64373,4.64373,0,0,1-3.04-.9082,3.18333,3.18333,0,0,1-1.10156-2.6045,3.42884,3.42884,0,0,1,1.08985-2.66406q1.08984-.99169,5.06152-1.501a4.20417,4.20417,0,0,0,1.8291-.52149,1.20214,1.20214,0,0,0,.47168-1.0293q0-2.05811-2.78516-2.05859a3.8108,3.8108,0,0,0-2.28808.56934,2.28508,2.28508,0,0,0-.83594,1.80468h-2.05859Q179.666,357.03981,184.75244,357.04029Zm-3.63281,9.44629a1.61087,1.61087,0,0,0,.62988,1.35547,2.884,2.884,0,0,0,1.792.48535,4.39486,4.39486,0,0,0,2.749-.82421,2.41491,2.41491,0,0,0,1.07812-1.96192V363.386a3.29312,3.29312,0,0,1-1.45312.50879l-2.10742.31445a4.05991,4.05991,0,0,0-2.03418.73926A1.88922,1.88922,0,0,0,181.11963,366.48658Z" style="fill:#386097"/><path d="M198.606,357.04029q4.30956,0,4.31054,4.48047v8.332h-2.05859V361.303a2.46084,2.46084,0,0,0-.6543-1.74414,2.48754,2.48754,0,0,0-1.91308-.70215,3.47311,3.47311,0,0,0-2.72461,1.06543,4.01482,4.01482,0,0,0-.957,2.78613v7.14453h-2.0586V357.33131h1.9375v1.98535h.04883A4.43478,4.43478,0,0,1,198.606,357.04029Z" style="fill:#386097"/><path d="M212.26611,357.04029A5.26675,5.26675,0,0,1,216.48,358.845a7.08659,7.08659,0,0,1,1.54981,4.78321,6.92983,6.92983,0,0,1-1.56153,4.72265,5.23818,5.23818,0,0,1-4.1543,1.793,5.78829,5.78829,0,0,1-2.27636-.47266,3.83737,3.83737,0,0,1-1.76856-1.48925h-.04785v6.46679H206.1626V357.33131h2.05859v1.69531h.04785Q209.26221,357.04029,212.26611,357.04029Zm-4.11816,6.53907a5.37775,5.37775,0,0,0,1.0293,3.46386,3.52535,3.52535,0,0,0,2.91894,1.28418,3.30083,3.30083,0,0,0,2.77344-1.27246,5.73489,5.73489,0,0,0,.98047-3.57226,5.09322,5.09322,0,0,0-1.05371-3.3418,3.48919,3.48919,0,0,0-2.84571-1.28418,3.3963,3.3963,0,0,0-2.77343,1.25977A5.318,5.318,0,0,0,208.148,363.57936Z" style="fill:#386097"/><path d="M225.73193,357.04029a5.71834,5.71834,0,0,1,4.44434,1.792,7.67539,7.67539,0,0,1,0,9.4707,5.64418,5.64418,0,0,1-4.44434,1.84082,5.75371,5.75371,0,0,1-4.41992-1.78027,6.70143,6.70143,0,0,1-1.65918-4.75977,6.79616,6.79616,0,0,1,1.63477-4.7832A5.73731,5.73731,0,0,1,225.73193,357.04029Zm-3.89941,6.56348a5.15732,5.15732,0,0,0,1.08984,3.415,3.66934,3.66934,0,0,0,5.60743.0127,5.11389,5.11389,0,0,0,1.10156-3.42774,5.20629,5.20629,0,0,0-1.08985-3.42676,3.50223,3.50223,0,0,0-2.834-1.32031,3.453,3.453,0,0,0-2.77344,1.332A5.182,5.182,0,0,0,221.83252,363.60377Z" style="fill:#386097"/><path d="M234.76514,357.33131l2.834,10.24512h.04785l2.51953-10.24512h2.252l2.63965,10.24512h.02441l2.80957-10.24512h2.13184l-3.97266,12.49707-.02344.02441h-2.18066l-2.56738-9.9541h-.02344l-2.51953,9.9541h-2.22754l-4.02051-12.52148Z" style="fill:#386097"/><path d="M256.46777,357.04029a4.99894,4.99894,0,0,1,4.165,1.91309,7.891,7.891,0,0,1,1.502,5.01367v.24219h-9.37354v.14551a3.9897,3.9897,0,0,0,1.0415,2.89453,3.789,3.789,0,0,0,2.8584,1.07812,2.95453,2.95453,0,0,0,3.24512-2.44629h2.03516a5.06413,5.06413,0,0,1-1.81641,3.18458,5.64225,5.64225,0,0,1-3.53613,1.07812,5.36083,5.36083,0,0,1-4.48194-1.9375,7.36633,7.36633,0,0,1-1.52539-4.69922,6.62187,6.62187,0,0,1,1.6709-4.626A5.45215,5.45215,0,0,1,256.46777,357.04029Zm3.48731,5.35254a3.79439,3.79439,0,0,0-1.10254-2.53125,3.435,3.435,0,0,0-2.53027-1.00488,3.35848,3.35848,0,0,0-2.42188.957,3.92328,3.92328,0,0,0-1.13916,2.5791Z" style="fill:#386097"/><path d="M270.78125,357.04029V359.22a4.394,4.394,0,0,0-3.42773,1.22363,5.57835,5.57835,0,0,0-1.10157,3.81446v5.59472h-2.05859V357.33131h1.9375V359.971h.04883a4.59086,4.59086,0,0,1,4.31054-2.93067Z" style="fill:#386097"/><path d="M281.02539,352.14772a8.25338,8.25338,0,0,1,5.04981,1.46582,6.17722,6.17722,0,0,1,2.38574,4.27441h-2.30078a4.31638,4.31638,0,0,0-1.67188-2.82129,5.69228,5.69228,0,0,0-3.46289-.98144,5.29149,5.29149,0,0,0-4.31152,1.98632,8.20714,8.20714,0,0,0-1.62207,5.35254,7.48107,7.48107,0,0,0,1.63476,4.917,5.29557,5.29557,0,0,0,4.29883,1.98632,5.57771,5.57771,0,0,0,3.97168-1.47754,5.09746,5.09746,0,0,0,1.57422-3.89941v-.2666H281.0498v-1.9375h7.58008v9.10644h-1.45312l-.60547-2.15527a6.23813,6.23813,0,0,1-2.39746,1.90137,7.47621,7.47621,0,0,1-3.14844.666,7.71138,7.71138,0,0,1-5.88574-2.51953,8.74593,8.74593,0,0,1-2.34961-6.20019,10.21886,10.21886,0,0,1,2.19238-6.75684A7.43007,7.43007,0,0,1,281.02539,352.14772Z" style="fill:#386097"/><path d="M298.46387,357.04029V359.22a4.394,4.394,0,0,0-3.42774,1.22363,5.5784,5.5784,0,0,0-1.10156,3.81446v5.59472H291.876V357.33131h1.9375V359.971h.04882a4.59087,4.59087,0,0,1,4.31055-2.93067Z" style="fill:#386097"/><path d="M304.85742,357.04029a5.71835,5.71835,0,0,1,4.44434,1.792,7.67542,7.67542,0,0,1,0,9.4707,5.64419,5.64419,0,0,1-4.44434,1.84082,5.75371,5.75371,0,0,1-4.41992-1.78027,6.70139,6.70139,0,0,1-1.65918-4.75977,6.79616,6.79616,0,0,1,1.63477-4.7832A5.73731,5.73731,0,0,1,304.85742,357.04029Zm-3.89941,6.56348a5.15732,5.15732,0,0,0,1.08984,3.415,3.66933,3.66933,0,0,0,5.60742.0127,5.11385,5.11385,0,0,0,1.10157-3.42774A5.20634,5.20634,0,0,0,307.667,360.177a3.50224,3.50224,0,0,0-2.834-1.32031,3.453,3.453,0,0,0-2.77344,1.332A5.182,5.182,0,0,0,300.958,363.60377Z" style="fill:#386097"/><path d="M315.126,357.33131v8.52539a2.43434,2.43434,0,0,0,.67871,1.78027,2.49541,2.49541,0,0,0,1.86523.69043,3.49376,3.49376,0,0,0,2.76074-1.0664,4.04088,4.04088,0,0,0,.94434-2.78516v-7.14453h2.05859v12.52148h-1.9375v-1.98632h-.04785a4.33552,4.33552,0,0,1-4.06933,2.27734q-4.311,0-4.31153-4.457v-8.35547Z" style="fill:#386097"/><path d="M332.27441,357.04029a5.26675,5.26675,0,0,1,4.21387,1.80469,7.08659,7.08659,0,0,1,1.54981,4.78321,6.92983,6.92983,0,0,1-1.56153,4.72265,5.23817,5.23817,0,0,1-4.15429,1.793,5.7883,5.7883,0,0,1-2.27637-.47266,3.83737,3.83737,0,0,1-1.76856-1.48925h-.04785v6.46679H326.1709V357.33131h2.05859v1.69531h.04785Q329.27051,357.04029,332.27441,357.04029Zm-4.11816,6.53907a5.37775,5.37775,0,0,0,1.0293,3.46386,3.52535,3.52535,0,0,0,2.91894,1.28418,3.30083,3.30083,0,0,0,2.77344-1.27246,5.73489,5.73489,0,0,0,.98047-3.57226,5.09322,5.09322,0,0,0-1.05371-3.3418,3.48919,3.48919,0,0,0-2.84571-1.28418,3.39632,3.39632,0,0,0-2.77343,1.25977A5.318,5.318,0,0,0,328.15625,363.57936Z" style="fill:#386097"/><path d="M305.58654,132.22581a13.89587,13.89587,0,0,0-19.64787-.00922L264.926,153.18343a13.89423,13.89423,0,0,0,19.63881,19.66l21.0096-20.97447A13.91289,13.91289,0,0,0,305.58654,132.22581Z" style="fill:#5c7d70"/><path d="M305.57437,224.27794l-21.0096-20.96979A13.89418,13.89418,0,1,0,264.926,222.968l21.01271,20.96682a13.79283,13.79283,0,0,0,9.81473,4.06364h0a13.8906,13.8906,0,0,0,9.821-23.72052Z" style="fill:#4c79af"/><path d="M263.53084,188.07111h0v-.04569a13.80676,13.80676,0,0,0-4.05447-9.78127l-45.98851-46.02756a13.87753,13.87753,0,1,0-19.63726,19.61432l36.20107,36.2402L193.849,224.30835a13.87912,13.87912,0,0,0,19.63882,19.61726L259.47325,197.892a13.75587,13.75587,0,0,0,4.05447-9.77518.21048.21048,0,0,0,.00312-.0457Z" style="fill:#c25700"/><path d="M187.21045,288.83424v4.56055H164.5249v12.93847h21.14649v4.56055H164.5249v14.0791h22.85645v4.55957H159.10986V288.83424Z" style="fill:#386097"/><path d="M197.86963,300.06373l7.01074,10.25977h.05664l7.35352-10.25977H218.104l-10.1455,13.56543,11.39941,15.90332H213.145l-8.208-12.19824-8.208,12.19824h-5.87109l11.05859-15.5039-10.26074-13.96485Z" style="fill:#386097"/><path d="M236.34229,299.37916a12.39611,12.39611,0,0,1,9.918,4.24707q3.64746,4.24659,3.64844,11.25684,0,6.89795-3.67676,11.11523a12.32384,12.32384,0,0,1-9.77539,4.21778,13.59676,13.59676,0,0,1-5.35742-1.11133,9.02135,9.02135,0,0,1-4.16113-3.50489h-.11426v15.21875H221.979V300.06373h4.84473V304.054h.11426Q229.27442,299.37966,236.34229,299.37916Zm-9.68946,15.39063a12.659,12.659,0,0,0,2.42188,8.15039,8.29861,8.29861,0,0,0,6.86914,3.02148,7.7633,7.7633,0,0,0,6.52636-2.99316q2.3086-2.99121,2.3086-8.40723a12.00024,12.00024,0,0,0-2.47949-7.86621,8.21255,8.21255,0,0,0-6.69727-3.02051,7.993,7.993,0,0,0-6.52734,2.96387Q226.65185,309.58326,226.65283,314.76979Z" style="fill:#386097"/><path d="M266.83691,299.37916a11.76877,11.76877,0,0,1,9.80371,4.50293q3.5332,4.50439,3.53418,11.79981v.56933H258.11523v.3418a9.38635,9.38635,0,0,0,2.45118,6.81152,8.91477,8.91477,0,0,0,6.72656,2.53711q6.32665,0,7.63769-5.75683h4.78809a11.89725,11.89725,0,0,1-4.27539,7.49511,13.27,13.27,0,0,1-8.32129,2.53614q-6.95508,0-10.5459-4.55957a17.32493,17.32493,0,0,1-3.59033-11.05762,15.58544,15.58544,0,0,1,3.93311-10.8877A12.82616,12.82616,0,0,1,266.83691,299.37916Zm8.208,12.59766a8.92581,8.92581,0,0,0-2.59375-5.957,8.07963,8.07963,0,0,0-5.957-2.36524,7.90908,7.90908,0,0,0-5.69922,2.251,9.249,9.249,0,0,0-2.67969,6.07129Z" style="fill:#386097"/><path d="M299.83887,299.37916V304.509q-5.47266,0-8.06641,2.87891-2.59424,2.87842-2.59277,8.97754v13.167H284.334V300.06373h4.56055v6.21289h.11426q3.36182-6.89648,10.14551-6.89746Z" style="fill:#386097"/><path d="M308.332,288.83424V294.763h-4.8457v-5.92871Zm0,11.22949v29.46875h-4.8457V300.06373Z" style="fill:#386097"/><path d="M324.68945,299.37916q5.98536,0,8.86328,2.3086,2.87842,2.30859,3.16309,6.92578h-4.84473v-.05664a4.7098,4.7098,0,0,0-2.08007-3.64844,8.33149,8.33149,0,0,0-4.75977-1.25391,9.21221,9.21221,0,0,0-4.58887.96875,3.13726,3.13726,0,0,0-.19922,5.44336,13.69935,13.69935,0,0,0,4.50293,1.68164l4.56055,1.02637a15.00213,15.00213,0,0,1,6.498,2.87793,6.58619,6.58619,0,0,1,2.22265,5.27246,7.98231,7.98231,0,0,1-3.36328,6.84082q-3.36327,2.45069-9.17676,2.4502-5.64256,0-8.94921-2.4795-3.30617-2.47851-3.53418-7.49511h4.8457a5.17465,5.17465,0,0,0,2.166,4.21777,9.68758,9.68758,0,0,0,5.75684,1.48242q7.125,0,7.125-4.38965a3.51569,3.51569,0,0,0-1.73828-3.07715q-1.74024-1.13964-7.43848-2.33691-5.417-1.08252-7.752-3.02148a6.58016,6.58016,0,0,1-2.33789-5.3584,7.30059,7.30059,0,0,1,2.99316-6.07031A12.87281,12.87281,0,0,1,324.68945,299.37916Z" style="fill:#386097"/><path d="M335.83932,291.94334a4.328,4.328,0,0,1,.95164-1.37848,4.4362,4.4362,0,0,1,1.40226-.91741,4.38889,4.38889,0,0,1,5.72979,2.29589,4.20119,4.20119,0,0,1,.34985,1.71692,4.30081,4.30081,0,0,1-.34985,1.7464,4.45349,4.45349,0,0,1-.94594,1.39036,4.26161,4.26161,0,0,1-1.39085.91693,4.56389,4.56389,0,0,1-3.393,0,4.30116,4.30116,0,0,1-1.40226-.91693,4.37457,4.37457,0,0,1-.95164-1.39036,4.30127,4.30127,0,0,1-.3508-1.7464A4.20177,4.20177,0,0,1,335.83932,291.94334Zm.71777,3.20663a3.64833,3.64833,0,0,0,.7596,1.1855,3.50941,3.50941,0,0,0,1.14462.78858,3.55465,3.55465,0,0,0,1.43079.28616,3.48263,3.48263,0,0,0,1.41367-.28616,3.52582,3.52582,0,0,0,1.13892-.78858,3.63277,3.63277,0,0,0,.7596-1.1855,3.95178,3.95178,0,0,0,.27475-1.48971,3.84527,3.84527,0,0,0-.27475-1.46024,3.54545,3.54545,0,0,0-1.89852-1.95649,3.48263,3.48263,0,0,0-1.41367-.28616,3.56154,3.56154,0,0,0-2.57541,1.06856,3.60225,3.60225,0,0,0-.7596,1.17409,3.86358,3.86358,0,0,0-.27475,1.46024A3.97041,3.97041,0,0,0,336.55709,295.15Zm3.604-4.02469a2.09041,2.09041,0,0,1,1.349.36221,1.34033,1.34033,0,0,1,.43826,1.098,1.24233,1.24233,0,0,1-.385,1.01057,1.73487,1.73487,0,0,1-.95829.3798l1.46026,2.25453h-.85277l-1.3899-2.19607h-.84136v2.19607h-.79477v-5.10514Zm-.3508,2.26641c.17968,0,.3489-.0057.50862-.01758a1.29057,1.29057,0,0,0,.42685-.09935.67109.67109,0,0,0,.29757-.251.85681.85681,0,0,0,.11123-.47343.736.736,0,0,0-.09982-.4088.68328.68328,0,0,0-.25669-.23339,1.13106,1.13106,0,0,0-.36221-.11123,2.927,2.927,0,0,0-.40309-.029h-1.05146v1.62375Z" style="fill:#386097"/></svg>