<?xml version="1.0" encoding="utf-8"?>
<!-- Generator: Adobe Illustrator 27.7.0, SVG Export Plug-In . SVG Version: 6.00 Build 0)  -->
<svg version="1.1" id="Icons" xmlns="http://www.w3.org/2000/svg" xmlns:xlink="http://www.w3.org/1999/xlink" x="0px" y="0px"
	 viewBox="0 0 60 60" style="enable-background:new 0 0 60 60;" xml:space="preserve">
<style type="text/css">
	.st0{fill:#FFFFFF;}
</style>
<path class="st0" d="M52.7,0H7.3C3.3,0,0,3.3,0,7.3v45.3c0,4,3.3,7.3,7.3,7.3h45.3c4,0,7.3-3.3,7.3-7.3V7.3C60,3.3,56.7,0,52.7,0
	L52.7,0z M38.5,49.7L27,34.2L12.7,49.7H9L25.3,32L9.1,10.3h12.5l10.6,14.2l13.2-14.2h3.7L33.9,26.8L51,49.7H38.5z"/>
<polygon class="st0" points="14.5,13.1 39.9,47 45.6,47 20.2,13.1 "/>
</svg>
