<?xml version="1.0" encoding="utf-8"?>
<!-- Generator: Adobe Illustrator 27.7.0, SVG Export Plug-In . SVG Version: 6.00 Build 0)  -->
<svg version="1.1" id="Icons" xmlns="http://www.w3.org/2000/svg" xmlns:xlink="http://www.w3.org/1999/xlink" x="0px" y="0px"
	 viewBox="0 0 60 60" style="enable-background:new 0 0 60 60;" xml:space="preserve">
<style type="text/css">
	.st0{fill:#FFFFFF;}
</style>
<path class="st0" d="M30.8,30.6c-3.9,0.2-5.2,2.1-5.1,3.8c0.1,2.3,2.6,3.4,5,3.2c2.3-0.1,5-1,5.5-6.7c-1.2-0.3-2.6-0.4-4-0.4
	C31.7,30.6,31.3,30.6,30.8,30.6z"/>
<path class="st0" d="M52.7,0H7.3C3.3,0,0,3.3,0,7.3v45.3c0,4,3.3,7.3,7.3,7.3h45.3c4,0,7.3-3.3,7.3-7.3V7.3C60,3.3,56.7,0,52.7,0z
	 M18.6,43.1c2.6,3.3,6.5,4.9,11.8,5c4.7,0,7.8-1.2,10.4-3.7c3-3,2.9-6.6,2-8.8c-0.6-1.3-1.6-2.4-2.9-3.2c-0.3,2.5-1.1,4.4-2.3,5.9
	c-1.6,2-3.8,3.1-6.7,3.2c-2.2,0.1-4.2-0.4-5.9-1.5c-1.9-1.3-3-3.2-3.1-5.4c-0.2-4.4,3.3-7.6,8.7-7.9c1.9-0.1,3.8,0,5.4,0.3
	c-0.2-1.4-0.7-2.4-1.3-3.2c-0.9-1.1-2.3-1.6-4.2-1.6c0,0,0,0-0.1,0c-1.5,0-3.6,0.4-4.9,2.4l-3.2-2.2c1.8-2.7,4.6-4.1,8-4.1
	c0,0,0.1,0,0.1,0c5.7,0,9.2,3.6,9.5,9.9c0.2,0.1,0.4,0.2,0.6,0.3c2.7,1.3,4.6,3.2,5.7,5.6c1.4,3.3,1.6,8.8-2.8,13.1
	c-3.3,3.3-7.4,4.8-13.1,4.9h0c-6.4,0-11.4-2.2-14.7-6.4c-3-3.8-4.5-9-4.5-15.5v0v0c0.1-6.6,1.6-11.8,4.5-15.6
	C18.9,10.2,23.9,8,30.3,8h0c6.4,0,11.5,2.2,14.9,6.4c1.7,2.1,2.9,4.6,3.7,7.5l-3.7,1c-0.7-2.4-1.6-4.4-2.9-6c-2.7-3.3-6.7-5-12-5
	c-5.2,0-9.2,1.7-11.8,5c-2.4,3.1-3.7,7.5-3.7,13.1C14.9,35.7,16.2,40.1,18.6,43.1L18.6,43.1z"/>
</svg>
