<svg xmlns="http://www.w3.org/2000/svg" width="26" height="25.002" viewBox="0 0 26 25.002">
  <g id="Atoms_Icons_Social_Instagram" data-name="Atoms / Icons / Social / Instagram" transform="translate(0 0)">
    <path id="Path_2951" data-name="Path 2951" d="M13,.162c-3.531,0-3.973.014-5.36.075A9.876,9.876,0,0,0,4.484.818a6.4,6.4,0,0,0-2.3,1.442,6.109,6.109,0,0,0-1.5,2.214,8.869,8.869,0,0,0-.6,3.034C.015,8.842,0,9.267,0,12.662s.015,3.821.078,5.154a8.869,8.869,0,0,0,.6,3.034,6.109,6.109,0,0,0,1.5,2.214,6.4,6.4,0,0,0,2.3,1.442,9.876,9.876,0,0,0,3.156.581c1.387.061,1.829.075,5.36.075s3.973-.014,5.36-.075a9.876,9.876,0,0,0,3.156-.581,6.4,6.4,0,0,0,2.3-1.442,6.109,6.109,0,0,0,1.5-2.214,8.869,8.869,0,0,0,.6-3.034c.063-1.333.078-1.759.078-5.154s-.015-3.821-.078-5.154a8.869,8.869,0,0,0-.6-3.034,6.109,6.109,0,0,0-1.5-2.214,6.4,6.4,0,0,0-2.3-1.442A9.875,9.875,0,0,0,18.36.237C16.973.176,16.531.162,13,.162Zm0,2.252c3.471,0,3.882.013,5.253.073a7.446,7.446,0,0,1,2.414.43,4.047,4.047,0,0,1,1.495.935,3.862,3.862,0,0,1,.972,1.437,6.685,6.685,0,0,1,.448,2.321c.063,1.318.076,1.714.076,5.051s-.013,3.733-.076,5.051a6.685,6.685,0,0,1-.448,2.321,3.862,3.862,0,0,1-.972,1.437,4.046,4.046,0,0,1-1.495.935,7.443,7.443,0,0,1-2.414.43c-1.371.06-1.782.073-5.253.073s-3.882-.013-5.253-.073a7.443,7.443,0,0,1-2.414-.43,4.047,4.047,0,0,1-1.495-.935,3.861,3.861,0,0,1-.972-1.437,6.686,6.686,0,0,1-.448-2.321C2.356,16.4,2.342,16,2.342,12.662s.013-3.733.076-5.051A6.686,6.686,0,0,1,2.866,5.29a3.862,3.862,0,0,1,.972-1.437,4.048,4.048,0,0,1,1.495-.935,7.446,7.446,0,0,1,2.414-.43C9.118,2.427,9.529,2.414,13,2.414Z" transform="translate(0 -0.162)" fill="#fff"/>
    <path id="Path_2952" data-name="Path 2952" d="M131.459,135.288a4.179,4.179,0,1,1,4.491-4.167A4.338,4.338,0,0,1,131.459,135.288Zm0-10.586a6.437,6.437,0,1,0,6.918,6.419A6.683,6.683,0,0,0,131.459,124.7Z" transform="translate(-118.459 -118.621)" fill="#fff"/>
    <path id="Path_2953" data-name="Path 2953" d="M364.933,90.289a1.5,1.5,0,1,1-1.5-1.5A1.5,1.5,0,0,1,364.933,90.289Z" transform="translate(-343.457 -84.46)" fill="#fff"/>
  </g>
</svg>
