<svg xmlns="http://www.w3.org/2000/svg" width="24" height="24" viewBox="0 0 24 24">
  <g id="Atoms_Icons_Globe" data-name="Atoms / Icons / Globe" transform="translate(0.5 0.5)">
    <g id="Group_1510" data-name="Group 1510">
      <path id="Path_990" data-name="Path 990" d="M17.5,958.362A11.5,11.5,0,1,1,6,969.862,11.508,11.508,0,0,1,17.5,958.362Zm.523,1.111V964.9H21.87a13.256,13.256,0,0,0-.931-2.565C20.131,960.7,19.1,959.716,18.023,959.473Zm-1.045,0c-1.082.243-2.108,1.229-2.916,2.859a13.256,13.256,0,0,0-.931,2.565h3.847Zm3.545.384a8.581,8.581,0,0,1,1.348,2.009,14.639,14.639,0,0,1,1.07,3.03H26.7A10.468,10.468,0,0,0,20.522,959.857Zm-6.044,0A10.468,10.468,0,0,0,8.3,964.9H12.06a14.639,14.639,0,0,1,1.07-3.03A8.58,8.58,0,0,1,14.478,959.857Zm12.717,6.085H23.168a21.66,21.66,0,0,1,.335,3.4h4.435A10.385,10.385,0,0,0,27.195,965.942Zm-5.088,0H18.023v3.4h4.435A20.566,20.566,0,0,0,22.107,965.942Zm-5.129,0H12.893a20.566,20.566,0,0,0-.351,3.4h4.435Zm-5.146,0H7.805a10.385,10.385,0,0,0-.743,3.4H11.5A21.659,21.659,0,0,1,11.832,965.942Zm16.107,4.443H23.5a21.555,21.555,0,0,1-.335,3.4h4.027a10.432,10.432,0,0,0,.743-3.4Zm-5.48,0H18.023v3.4h4.084A20.576,20.576,0,0,0,22.458,970.385Zm-5.48,0H12.542a20.577,20.577,0,0,0,.351,3.4h4.084Zm-5.48,0H7.062a10.433,10.433,0,0,0,.743,3.4h4.027A21.556,21.556,0,0,1,11.5,970.385Zm15.216,4.443H22.94a14.6,14.6,0,0,1-1.07,3.022,8.721,8.721,0,0,1-1.348,2.026A10.472,10.472,0,0,0,26.713,974.828Zm-4.843,0H18.023v5.431c1.082-.243,2.108-1.238,2.916-2.867A13.211,13.211,0,0,0,21.87,974.828Zm-4.892,0H13.13a13.212,13.212,0,0,0,.931,2.565c.808,1.629,1.834,2.624,2.916,2.867Zm-4.917,0H8.287a10.472,10.472,0,0,0,6.191,5.048,8.721,8.721,0,0,1-1.348-2.026A14.6,14.6,0,0,1,12.06,974.828Z" transform="translate(-6 -958.362)" fill="#fff" stroke="#fff" stroke-width="1"/>
    </g>
  </g>
</svg>
