<svg xmlns="http://www.w3.org/2000/svg" width="62.081" height="50.244"><path data-name="Path 3365" d="M51.269 18.087a2.96 2.96 0 0 1-3.784 1.745 2.913 2.913 0 0 1-1.764-3.744L50.93 1.922A2.962 2.962 0 0 1 54.714.177a2.913 2.913 0 0 1 1.764 3.744Z" fill="#fff"/><path data-name="Path 3366" d="M11.198 27.255A2.961 2.961 0 0 1 7.415 29a2.912 2.912 0 0 1-1.765-3.739l5.957-16.2a2.961 2.961 0 0 1 3.781-1.748 2.913 2.913 0 0 1 1.767 3.748Z" fill="#fff"/><g data-name="Group 3568"><path data-name="Path 3367" d="M20.371 27.255A2.962 2.962 0 0 1 16.587 29a2.912 2.912 0 0 1-1.764-3.739l5.956-16.2a2.96 2.96 0 0 1 3.783-1.746 2.913 2.913 0 0 1 1.766 3.746Z" fill="#fff"/></g><g data-name="Group 3569"><path data-name="Path 3368" d="M29.54 27.255A2.961 2.961 0 0 1 25.757 29a2.912 2.912 0 0 1-1.769-3.739l5.957-16.2a2.961 2.961 0 0 1 3.784-1.746 2.912 2.912 0 0 1 1.764 3.745Z" fill="#fff"/></g><g data-name="Group 3570"><path data-name="Path 3369" d="M38.707 27.256a2.96 2.96 0 0 1-3.782 1.745 2.912 2.912 0 0 1-1.765-3.743l8.583-23.335A2.96 2.96 0 0 1 45.526.178a2.912 2.912 0 0 1 1.765 3.744Z" fill="#fff"/></g><g data-name="Group 3574"><g data-name="Group 3571"><path data-name="Path 3370" d="M61.05 38.38a1.022 1.022 0 1 1-1.035 1.017 1.019 1.019 0 0 1 1.035-1.017Zm0 1.9a.873.873 0 1 0-.847-.878.845.845 0 0 0 .847.873Zm-.4-1.471h.465c.285 0 .42.112.42.342a.309.309 0 0 1-.317.325l.344.528h-.2l-.325-.516h-.2v.516h-.186Zm.186.529h.194c.166 0 .317-.008.317-.195 0-.158-.136-.185-.262-.185h-.248Z" fill="#fff"/></g><g data-name="Group 3573"><g data-name="Group 3572" fill="#fff"><path data-name="Path 3371" d="m1.692 38.499 2.928 7.727 2.941-7.727h1.692v9.2H8.082v-7.65h-.026l-2.9 7.65H4.099l-2.9-7.65h-.026v7.65H0v-9.2Z"/><path data-name="Path 3372" d="M13.605 40.881q2.512 0 2.512 1.79v3.838q0 .374.351.374a.943.943 0 0 0 .338-.064v.85a1.616 1.616 0 0 1-.794.18q-.937 0-.937-1.03a2.964 2.964 0 0 1-2.368 1.03 2.512 2.512 0 0 1-1.633-.483 1.684 1.684 0 0 1-.592-1.385 1.814 1.814 0 0 1 .586-1.417 5.607 5.607 0 0 1 2.72-.8 2.274 2.274 0 0 0 .983-.277.637.637 0 0 0 .254-.547q0-1.095-1.5-1.095a2.065 2.065 0 0 0-1.23.3 1.208 1.208 0 0 0-.449.959h-1.104q.13-2.222 2.863-2.223Zm-1.954 5.023a.853.853 0 0 0 .338.721 1.562 1.562 0 0 0 .963.258 2.38 2.38 0 0 0 1.477-.438 1.281 1.281 0 0 0 .579-1.043v-1.144a1.778 1.778 0 0 1-.781.27l-1.132.167a2.2 2.2 0 0 0-1.093.393 1 1 0 0 0-.351.816Z"/><path data-name="Path 3373" d="M21.088 40.881a2.077 2.077 0 0 1 2.316 2.383v4.43h-1.105v-4.546a1.3 1.3 0 0 0-.351-.927 1.344 1.344 0 0 0-1.028-.374 1.876 1.876 0 0 0-1.464.567 2.119 2.119 0 0 0-.514 1.481v3.8h-1.108v-6.658h1.041v1.056h.024a2.388 2.388 0 0 1 2.189-1.212Z"/><path data-name="Path 3374" d="M28.1 40.881a2.844 2.844 0 0 1 2.264.96 3.744 3.744 0 0 1 .833 2.543 3.66 3.66 0 0 1-.839 2.511 2.826 2.826 0 0 1-2.232.953 3.133 3.133 0 0 1-1.223-.251 2.056 2.056 0 0 1-.95-.792h-.026v3.439h-1.106v-9.208h1.106v.9h.026a2.169 2.169 0 0 1 2.147-1.055Zm-2.212 3.477a2.838 2.838 0 0 0 .553 1.841 1.9 1.9 0 0 0 1.568.683 1.78 1.78 0 0 0 1.49-.676 3.024 3.024 0 0 0 .527-1.9 2.693 2.693 0 0 0-.566-1.777 1.883 1.883 0 0 0-1.529-.682 1.832 1.832 0 0 0-1.49.67 2.807 2.807 0 0 0-.558 1.841Z"/><path data-name="Path 3375" d="M35.19 40.881a3.087 3.087 0 0 1 2.388.953 4.047 4.047 0 0 1 0 5.035 3.046 3.046 0 0 1-2.388.979 3.108 3.108 0 0 1-2.375-.947 3.541 3.541 0 0 1-.892-2.531 3.592 3.592 0 0 1 .878-2.544 3.1 3.1 0 0 1 2.389-.945Zm-2.1 3.49a2.724 2.724 0 0 0 .585 1.816 1.985 1.985 0 0 0 3.013.006 2.7 2.7 0 0 0 .592-1.822 2.75 2.75 0 0 0-.585-1.822 1.89 1.89 0 0 0-1.523-.7 1.863 1.863 0 0 0-1.49.708 2.735 2.735 0 0 0-.587 1.814Z"/><path data-name="Path 3376" d="m40.043 41.036 1.523 5.447h.026l1.354-5.447h1.21l1.418 5.447h.013l1.51-5.447h1.145l-2.134 6.645-.013.013h-1.171l-1.379-5.293h-.013l-1.353 5.293h-1.2l-2.16-6.658Z"/><path data-name="Path 3377" d="M51.597 40.881a2.7 2.7 0 0 1 2.238 1.017 4.166 4.166 0 0 1 .807 2.666v.129h-5.037v.077a2.109 2.109 0 0 0 .56 1.539 2.048 2.048 0 0 0 1.536.573 1.585 1.585 0 0 0 1.744-1.3h1.093a2.681 2.681 0 0 1-.976 1.693 3.051 3.051 0 0 1-1.9.573 2.893 2.893 0 0 1-2.408-1.03 3.889 3.889 0 0 1-.82-2.5 3.5 3.5 0 0 1 .9-2.46 2.942 2.942 0 0 1 2.263-.977Zm1.874 2.846a2.007 2.007 0 0 0-.592-1.346 1.854 1.854 0 0 0-1.36-.534 1.816 1.816 0 0 0-1.3.509 2.08 2.08 0 0 0-.612 1.372Z"/><path data-name="Path 3378" d="M59.314 40.881v1.159a2.375 2.375 0 0 0-1.842.65 2.944 2.944 0 0 0-.592 2.028v2.975h-1.106v-6.658h1.041v1.4h.026a2.467 2.467 0 0 1 2.317-1.554Z"/></g></g></g></svg>
