<svg xmlns="http://www.w3.org/2000/svg" width="44.523" height="56.378"><g data-name="Group 3362" fill="#fff"><path data-name="Path 2892" d="m1.774 51.327 1.247 3.324 1.252-3.324h.72v3.955h-.5v-3.29h-.012l-1.235 3.29h-.448l-1.235-3.29h-.011v3.29h-.5v-3.955Z"/><path data-name="Path 2893" d="M6.882 52.351q1.069 0 1.069.77v1.651q0 .161.149.161a.4.4 0 0 0 .144-.028v.365a.68.68 0 0 1-.338.078q-.4 0-.4-.443a1.256 1.256 0 0 1-1.008.443 1.062 1.062 0 0 1-.7-.208.728.728 0 0 1-.252-.6.784.784 0 0 1 .249-.609 2.372 2.372 0 0 1 1.158-.343.962.962 0 0 0 .418-.119.275.275 0 0 0 .108-.235q0-.471-.637-.471a.871.871 0 0 0-.523.13.523.523 0 0 0-.191.413h-.471q.061-.955 1.225-.955Zm-.831 2.16a.368.368 0 0 0 .144.31.66.66 0 0 0 .41.111 1 1 0 0 0 .629-.189.552.552 0 0 0 .247-.449v-.493a.754.754 0 0 1-.332.116l-.482.072a.928.928 0 0 0-.465.169.432.432 0 0 0-.151.353Z"/><path data-name="Path 2894" d="M10.05 52.351q.986 0 .986 1.025v1.906h-.471v-1.955a.563.563 0 0 0-.15-.4.569.569 0 0 0-.438-.161.794.794 0 0 0-.623.244.918.918 0 0 0-.219.637v1.634h-.471v-2.864h.443v.454h.011a1.014 1.014 0 0 1 .932-.52Z"/><path data-name="Path 2895" d="M13.174 52.351a1.2 1.2 0 0 1 .964.413 1.621 1.621 0 0 1 .354 1.094 1.585 1.585 0 0 1-.357 1.08 1.2 1.2 0 0 1-.95.41 1.324 1.324 0 0 1-.521-.108.878.878 0 0 1-.4-.341h-.011v1.479h-.471v-3.961h.471v.388h.011a.921.921 0 0 1 .91-.454Zm-.942 1.5a1.23 1.23 0 0 0 .235.792.806.806 0 0 0 .668.294.755.755 0 0 0 .634-.291 1.311 1.311 0 0 0 .224-.817 1.165 1.165 0 0 0-.241-.764.8.8 0 0 0-.651-.294.777.777 0 0 0-.634.288 1.216 1.216 0 0 0-.235.788Z"/><path data-name="Path 2896" d="M16.254 52.351a1.308 1.308 0 0 1 1.016.41 1.755 1.755 0 0 1 0 2.166 1.291 1.291 0 0 1-1.016.421 1.316 1.316 0 0 1-1.011-.407 1.533 1.533 0 0 1-.379-1.089 1.554 1.554 0 0 1 .374-1.094 1.312 1.312 0 0 1 1.016-.407Zm-.892 1.5a1.179 1.179 0 0 0 .249.781.839.839 0 0 0 1.282 0 1.17 1.17 0 0 0 .252-.784 1.191 1.191 0 0 0-.249-.784.8.8 0 0 0-.648-.3.79.79 0 0 0-.634.3 1.185 1.185 0 0 0-.251.788Z"/><path data-name="Path 2897" d="m18.321 52.417.648 2.343h.011l.576-2.343h.515l.6 2.343h.006l.643-2.343h.489l-.909 2.858-.005.006h-.5l-.587-2.277h.001l-.576 2.277h-.514l-.92-2.864Z"/><path data-name="Path 2898" d="M23.283 52.351a1.143 1.143 0 0 1 .953.438 1.8 1.8 0 0 1 .344 1.147v.055h-2.144v.033a.912.912 0 0 0 .238.662.867.867 0 0 0 .654.247.676.676 0 0 0 .742-.56h.465a1.158 1.158 0 0 1-.415.728 1.29 1.29 0 0 1-.809.247 1.226 1.226 0 0 1-1.025-.443 1.685 1.685 0 0 1-.349-1.075 1.514 1.514 0 0 1 .382-1.058 1.247 1.247 0 0 1 .964-.421Zm.8 1.224a.868.868 0 0 0-.252-.579.786.786 0 0 0-.579-.23.768.768 0 0 0-.554.219.9.9 0 0 0-.26.59Z"/><path data-name="Path 2899" d="M26.556 52.351v.5a1 1 0 0 0-.784.28 1.276 1.276 0 0 0-.252.872v1.28h-.471v-2.864h.443v.6h.011a1.05 1.05 0 0 1 .986-.67Z"/><path data-name="Path 2900" d="M28.9 51.232a1.888 1.888 0 0 1 1.155.335 1.413 1.413 0 0 1 .546.978h-.526a.987.987 0 0 0-.382-.645 1.3 1.3 0 0 0-.792-.224 1.21 1.21 0 0 0-.986.454 1.877 1.877 0 0 0-.371 1.224 1.711 1.711 0 0 0 .374 1.125 1.211 1.211 0 0 0 .983.454 1.276 1.276 0 0 0 .908-.338 1.166 1.166 0 0 0 .36-.892v-.061h-1.263v-.443h1.734v2.086h-.332l-.139-.493a1.426 1.426 0 0 1-.548.435 1.71 1.71 0 0 1-.72.152 1.764 1.764 0 0 1-1.346-.576 2 2 0 0 1-.537-1.418 2.337 2.337 0 0 1 .5-1.545 1.7 1.7 0 0 1 1.382-.608Z"/><path data-name="Path 2901" d="M32.888 52.351v.5a1 1 0 0 0-.784.28 1.276 1.276 0 0 0-.252.872v1.28h-.471v-2.864h.443v.6h.011a1.05 1.05 0 0 1 .986-.67Z"/><path data-name="Path 2902" d="M34.35 52.351a1.308 1.308 0 0 1 1.016.41 1.756 1.756 0 0 1 0 2.166 1.291 1.291 0 0 1-1.016.421 1.316 1.316 0 0 1-1.011-.407 1.533 1.533 0 0 1-.379-1.089 1.554 1.554 0 0 1 .374-1.094 1.312 1.312 0 0 1 1.016-.407Zm-.892 1.5a1.179 1.179 0 0 0 .249.781.839.839 0 0 0 1.282 0 1.169 1.169 0 0 0 .252-.784 1.191 1.191 0 0 0-.249-.784.8.8 0 0 0-.648-.3.79.79 0 0 0-.634.3 1.185 1.185 0 0 0-.251.788Z"/><path data-name="Path 2903" d="M36.7 52.417v1.95a.557.557 0 0 0 .155.407.571.571 0 0 0 .427.158.8.8 0 0 0 .631-.244.924.924 0 0 0 .216-.637v-1.634h.471v2.864h-.441v-.454h-.011a.992.992 0 0 1-.931.521.887.887 0 0 1-.986-1.019v-1.911Z"/><path data-name="Path 2904" d="M40.622 52.351a1.2 1.2 0 0 1 .964.413 1.621 1.621 0 0 1 .354 1.094 1.585 1.585 0 0 1-.357 1.08 1.2 1.2 0 0 1-.95.41 1.324 1.324 0 0 1-.521-.108.878.878 0 0 1-.4-.341h-.011v1.479h-.471v-3.961h.471v.388h.011a.921.921 0 0 1 .91-.454Zm-.942 1.5a1.23 1.23 0 0 0 .235.792.806.806 0 0 0 .668.294.755.755 0 0 0 .634-.291 1.312 1.312 0 0 0 .224-.817 1.165 1.165 0 0 0-.241-.764.8.8 0 0 0-.651-.294.777.777 0 0 0-.634.288 1.216 1.216 0 0 0-.235.788Z"/></g><g data-name="Group 3364"><g data-name="Group 3363" fill="#fff"><path data-name="Path 2905" d="M34.518.934a3.178 3.178 0 0 0-4.494 0l-4.806 4.8a3.18 3.18 0 0 0 4.492 4.5l4.805-4.8a3.182 3.182 0 0 0 .003-4.5Z"/><path data-name="Path 2906" d="m34.515 21.987-4.805-4.8a3.18 3.18 0 1 0-4.492 4.5l4.806 4.8a3.155 3.155 0 0 0 2.245.929 3.177 3.177 0 0 0 2.246-5.425Z"/><path data-name="Path 2907" d="M24.899 13.707v-.01a3.158 3.158 0 0 0-.927-2.237L13.454.933a3.174 3.174 0 1 0-4.491 4.486l8.275 8.288-8.28 8.288a3.175 3.175 0 0 0 4.492 4.487l10.521-10.529a3.146 3.146 0 0 0 .927-2.236.048.048 0 0 0 0-.01Z"/></g></g><g data-name="Group 3365"><path data-name="Rectangle 2004" fill="none" d="M0 34.888h44.523v15.303H0z"/><path data-name="Path 2908" d="M7.444 36.752v1.043H2.256v2.959h4.836v1.043H2.256v3.22h5.227v1.043H1.017v-9.308Z" fill="#fff"/><path data-name="Path 2909" d="m9.882 39.32 1.6 2.346h.013l1.682-2.346h1.33l-2.32 3.1 2.607 3.637h-1.419l-1.877-2.79-1.878 2.79H8.278l2.529-3.546-2.347-3.194Z" fill="#fff"/><path data-name="Path 2910" d="M18.68 39.164a2.835 2.835 0 0 1 2.268.971 3.815 3.815 0 0 1 .834 2.575 3.73 3.73 0 0 1-.841 2.542 2.819 2.819 0 0 1-2.236.965 3.11 3.11 0 0 1-1.225-.254 2.063 2.063 0 0 1-.952-.8h-.026v3.481h-1.107v-9.321h1.108v.913h.026a2.167 2.167 0 0 1 2.151-1.072Zm-2.216 3.52a2.9 2.9 0 0 0 .554 1.864 1.9 1.9 0 0 0 1.571.691 1.776 1.776 0 0 0 1.493-.685 3.084 3.084 0 0 0 .528-1.923 2.745 2.745 0 0 0-.567-1.8 1.878 1.878 0 0 0-1.532-.691 1.828 1.828 0 0 0-1.493.678 2.864 2.864 0 0 0-.554 1.867Z" fill="#fff"/><path data-name="Path 2911" d="M25.655 39.164a2.692 2.692 0 0 1 2.242 1.03 4.247 4.247 0 0 1 .808 2.7v.13H23.66v.078a2.147 2.147 0 0 0 .561 1.558 2.039 2.039 0 0 0 1.538.58 1.591 1.591 0 0 0 1.747-1.317h1.1a2.721 2.721 0 0 1-.978 1.714 3.035 3.035 0 0 1-1.9.58 2.884 2.884 0 0 1-2.412-1.043 3.962 3.962 0 0 1-.821-2.529 3.565 3.565 0 0 1 .9-2.49 2.933 2.933 0 0 1 2.26-.991Zm1.877 2.881a2.041 2.041 0 0 0-.593-1.362 1.848 1.848 0 0 0-1.362-.541 1.809 1.809 0 0 0-1.3.515 2.115 2.115 0 0 0-.613 1.389Z" fill="#fff"/><path data-name="Path 2912" d="M33.203 39.164v1.173a2.365 2.365 0 0 0-1.845.658 3 3 0 0 0-.593 2.053v3.011h-1.108v-6.74H30.7v1.421h.026a2.471 2.471 0 0 1 2.32-1.577Z" fill="#fff"/><path data-name="Path 2913" d="M35.15 36.752v1.356h-1.108v-1.356Zm0 2.568v6.74h-1.108v-6.742Z" fill="#fff"/><path data-name="Path 2914" d="M38.886 39.164a3.213 3.213 0 0 1 2.027.528 2.085 2.085 0 0 1 .723 1.584h-1.107v-.013a1.077 1.077 0 0 0-.476-.834 1.906 1.906 0 0 0-1.089-.287 2.107 2.107 0 0 0-1.05.222.718.718 0 0 0-.046 1.245 3.133 3.133 0 0 0 1.03.385l1.043.235a3.432 3.432 0 0 1 1.486.658 1.506 1.506 0 0 1 .508 1.206 1.826 1.826 0 0 1-.769 1.565 3.5 3.5 0 0 1-2.1.56 3.336 3.336 0 0 1-2.047-.567 2.134 2.134 0 0 1-.81-1.716h1.108a1.184 1.184 0 0 0 .5.965 2.216 2.216 0 0 0 1.317.339q1.63 0 1.63-1a.8.8 0 0 0-.4-.7 5.816 5.816 0 0 0-1.7-.534 4.092 4.092 0 0 1-1.773-.691 1.5 1.5 0 0 1-.535-1.226 1.67 1.67 0 0 1 .685-1.388 2.944 2.944 0 0 1 1.845-.536Z" fill="#fff"/></g><g data-name="Group 3366"><path data-name="Path 2915" d="M41.436 37.464a.99.99 0 0 1 .218-.315 1.014 1.014 0 0 1 .321-.21 1 1 0 0 1 1.31.525.961.961 0 0 1 .08.393.984.984 0 0 1-.08.4 1.019 1.019 0 0 1-.216.318.975.975 0 0 1-.318.21 1.044 1.044 0 0 1-.776 0 .983.983 0 0 1-.321-.21 1 1 0 0 1-.218-.318.984.984 0 0 1-.08-.4.961.961 0 0 1 .08-.393Zm.164.733a.834.834 0 0 0 .174.271.8.8 0 0 0 .262.18.813.813 0 0 0 .327.065.8.8 0 0 0 .323-.065.807.807 0 0 0 .26-.18.831.831 0 0 0 .174-.271.9.9 0 0 0 .063-.341.88.88 0 0 0-.063-.334.811.811 0 0 0-.434-.447.8.8 0 0 0-.323-.065.814.814 0 0 0-.589.244.824.824 0 0 0-.174.269.884.884 0 0 0-.063.334.908.908 0 0 0 .063.34Zm.824-.92a.478.478 0 0 1 .309.083.307.307 0 0 1 .1.251.284.284 0 0 1-.088.231.4.4 0 0 1-.219.087l.334.516h-.2l-.318-.5h-.192v.5h-.182v-1.168Zm-.08.518h.116a.3.3 0 0 0 .1-.023.153.153 0 0 0 .068-.057.2.2 0 0 0 .025-.108.168.168 0 0 0-.023-.093.156.156 0 0 0-.059-.053.258.258 0 0 0-.083-.025.671.671 0 0 0-.092-.007h-.24v.371Z" fill="#fff"/></g></svg>
