<svg xmlns="http://www.w3.org/2000/svg" width="54.85" height="71.767"><g data-name="Group 3578"><g data-name="Group 3575"><path data-name="Path 3379" d="M29.217 3.02v-.008A3.043 3.043 0 0 0 26.142 0H3.116a3.012 3.012 0 1 0 0 6.022l19.945.006v19.517a3.081 3.081 0 0 0 6.161 0V3.016Z" fill="#fff"/></g><g data-name="Group 3576"><path data-name="Path 3380" d="M20.217 11.809a3.043 3.043 0 0 0-3.076-3.01H3.116a3.007 3.007 0 1 0 0 6.012h10.948v10.734a3.077 3.077 0 0 0 6.152 0Z" fill="#fff"/></g><g data-name="Group 3577"><path data-name="Path 3381" d="M11.222 20.523a2.969 2.969 0 0 0-2.992-2.935h-5.2a2.932 2.932 0 1 0 0 5.864h2.208v2.172a2.99 2.99 0 0 0 5.979 0Z" fill="#fff"/></g></g><g data-name="Group 3581" fill="#fff"><g data-name="Group 3579"><path data-name="Path 3382" d="M7.982 38.174v1.09H4.669v8.637H3.346v-8.638H.033v-1.09Z"/><path data-name="Path 3383" d="M9.876 40.695q2.686 0 2.687 1.894v4.06q0 .4.376.4a1.019 1.019 0 0 0 .362-.068v.9a1.745 1.745 0 0 1-.849.191q-1 0-1-1.09a3.186 3.186 0 0 1-2.534 1.09 2.709 2.709 0 0 1-1.747-.511 1.773 1.773 0 0 1-.633-1.465 1.908 1.908 0 0 1 .627-1.5 6.046 6.046 0 0 1 2.91-.845 2.453 2.453 0 0 0 1.051-.293.671.671 0 0 0 .271-.579q0-1.158-1.6-1.158a2.226 2.226 0 0 0-1.315.32 1.273 1.273 0 0 0-.48 1.015H6.813q.139-2.361 3.063-2.361Zm-2.088 5.314a.9.9 0 0 0 .362.763 1.685 1.685 0 0 0 1.03.273 2.566 2.566 0 0 0 1.58-.463 1.352 1.352 0 0 0 .619-1.1V44.27a1.915 1.915 0 0 1-.835.286l-1.211.177a2.367 2.367 0 0 0-1.169.415 1.054 1.054 0 0 0-.377.86Z"/><path data-name="Path 3384" d="M15.583 38.174v9.727H14.4v-9.728Z"/><path data-name="Path 3385" d="M20.344 40.695a2.9 2.9 0 0 1 2.394 1.076 4.373 4.373 0 0 1 .863 2.82v.136h-5.387v.082a2.08 2.08 0 0 0 2.242 2.235 1.692 1.692 0 0 0 1.865-1.376h1.169a2.831 2.831 0 0 1-1.044 1.792 3.29 3.29 0 0 1-2.032.606 3.11 3.11 0 0 1-2.576-1.09 4.083 4.083 0 0 1-.877-2.643 3.679 3.679 0 0 1 .961-2.6 3.164 3.164 0 0 1 2.422-1.038Zm2 3.011a2.113 2.113 0 0 0-.633-1.424 2 2 0 0 0-1.455-.565 1.954 1.954 0 0 0-1.392.538 2.19 2.19 0 0 0-.654 1.451Z"/><path data-name="Path 3386" d="M28.239 40.695a2.209 2.209 0 0 1 2.478 2.521v4.687h-1.183v-4.809a1.369 1.369 0 0 0-.376-.981 1.447 1.447 0 0 0-1.1-.4 2.019 2.019 0 0 0-1.566.6 2.227 2.227 0 0 0-.55 1.567v4.019h-1.183v-7.044h1.114v1.122h.028a2.56 2.56 0 0 1 2.338-1.282Z"/><path data-name="Path 3387" d="M33.792 38.746v2.112h1.434v1.021h-1.434v4.415a.656.656 0 0 0 .125.45q.125.136.627.136h.682v1.022h-.975a2.055 2.055 0 0 1-1.281-.3 1.482 1.482 0 0 1-.362-1.172v-4.551h-1.225v-1.022h1.225v-2.112Z"/></g><g data-name="Group 3580"><path data-name="Path 3388" d="M3.912 50.983a4.067 4.067 0 0 1 2.673.817 2.776 2.776 0 0 1 .988 2.262H6.321q-.223-1.989-2.464-1.989a2.728 2.728 0 0 0-1.65.429 1.443 1.443 0 0 0-.578 1.233 1.152 1.152 0 0 0 .431.886 7.9 7.9 0 0 0 2.756.845 5.291 5.291 0 0 1 2.387.974 2.265 2.265 0 0 1 .787 1.833 2.418 2.418 0 0 1-1.142 2.125 4.9 4.9 0 0 1-2.743.777 4.555 4.555 0 0 1-2.993-.92 3.085 3.085 0 0 1-1.114-2.514h1.253a2.081 2.081 0 0 0 .814 1.737 3.354 3.354 0 0 0 2.081.606 3.235 3.235 0 0 0 1.866-.457 1.5 1.5 0 0 0 .654-1.315 1.283 1.283 0 0 0-.633-1.124 6.319 6.319 0 0 0-2.165-.7 6.563 6.563 0 0 1-2.875-1.035 2.065 2.065 0 0 1-.689-1.621 2.5 2.5 0 0 1 .988-2.071 4.117 4.117 0 0 1 2.62-.778Z"/><path data-name="Path 3389" d="M12.152 53.735a3.322 3.322 0 0 1 2.554 1.008 4.244 4.244 0 0 1 0 5.327 3.277 3.277 0 0 1-2.554 1.036 3.345 3.345 0 0 1-2.541-1 3.722 3.722 0 0 1-.954-2.677 3.775 3.775 0 0 1 .94-2.691 3.334 3.334 0 0 1 2.555-1.003ZM9.91 57.427a2.861 2.861 0 0 0 .627 1.921 2.139 2.139 0 0 0 3.223.007 2.835 2.835 0 0 0 .633-1.928 2.888 2.888 0 0 0-.627-1.928 2.031 2.031 0 0 0-1.629-.743 2 2 0 0 0-1.594.749 2.873 2.873 0 0 0-.632 1.923Z"/><path data-name="Path 3390" d="M17.945 51.214v9.728h-1.184v-9.728Z"/><path data-name="Path 3391" d="M20.896 53.899v4.8a1.352 1.352 0 0 0 .39 1 1.451 1.451 0 0 0 1.072.388 2.032 2.032 0 0 0 1.587-.6 2.244 2.244 0 0 0 .543-1.567v-4.021h1.183v7.04h-1.114v-1.117h-.028a2.5 2.5 0 0 1-2.339 1.281 2.2 2.2 0 0 1-2.478-2.507v-4.7Z"/><path data-name="Path 3392" d="M28.743 51.787v2.112h1.434v1.022h-1.434v4.415a.656.656 0 0 0 .125.45q.125.136.627.136h.682v1.022h-.975a2.055 2.055 0 0 1-1.281-.3 1.482 1.482 0 0 1-.362-1.172v-4.551h-1.216v-1.022h1.225v-2.112Z"/><path data-name="Path 3393" d="M32.395 51.214v1.417h-1.183v-1.417Zm0 2.684v7.044h-1.183v-7.044Z"/><path data-name="Path 3394" d="M36.989 53.735a3.322 3.322 0 0 1 2.554 1.008 4.244 4.244 0 0 1 0 5.327 3.277 3.277 0 0 1-2.554 1.035 3.345 3.345 0 0 1-2.541-1 3.722 3.722 0 0 1-.954-2.677 3.775 3.775 0 0 1 .94-2.691 3.334 3.334 0 0 1 2.555-1.002Zm-2.242 3.692a2.861 2.861 0 0 0 .627 1.921 2.139 2.139 0 0 0 3.223.007 2.835 2.835 0 0 0 .633-1.928 2.888 2.888 0 0 0-.627-1.928 2.031 2.031 0 0 0-1.629-.743 2 2 0 0 0-1.594.749 2.873 2.873 0 0 0-.633 1.923Z"/><path data-name="Path 3395" d="M45.284 53.735a2.209 2.209 0 0 1 2.478 2.521v4.687h-1.178v-4.809a1.369 1.369 0 0 0-.376-.981 1.447 1.447 0 0 0-1.1-.4 2.019 2.019 0 0 0-1.566.6 2.227 2.227 0 0 0-.55 1.567v4.019h-1.183v-7.044h1.114v1.117h.028a2.56 2.56 0 0 1 2.333-1.277Z"/><path data-name="Path 3396" d="M51.592 53.735a3.487 3.487 0 0 1 2.165.552 2.16 2.16 0 0 1 .773 1.655h-1.183v-.014a1.121 1.121 0 0 0-.508-.872 2.069 2.069 0 0 0-1.162-.3 2.291 2.291 0 0 0-1.121.232.742.742 0 0 0-.049 1.3 3.391 3.391 0 0 0 1.1.4l1.114.245a3.7 3.7 0 0 1 1.587.688 1.559 1.559 0 0 1 .543 1.26 1.9 1.9 0 0 1-.821 1.635 3.8 3.8 0 0 1-2.241.586 3.619 3.619 0 0 1-2.186-.593 2.213 2.213 0 0 1-.863-1.792h1.183a1.229 1.229 0 0 0 .529 1.008 2.4 2.4 0 0 0 1.406.354q1.74 0 1.74-1.049a.837.837 0 0 0-.425-.736 6.3 6.3 0 0 0-1.817-.559 4.423 4.423 0 0 1-1.893-.722 1.558 1.558 0 0 1-.571-1.281 1.732 1.732 0 0 1 .731-1.451 3.193 3.193 0 0 1 1.969-.546Z"/></g></g><g data-name="Group 3587"><g data-name="Group 3584"><g data-name="Group 3583"><g data-name="Group 3582"><path data-name="Path 3397" d="M44.309 66.696h.131c.113 0 .215-.005.215-.13 0-.107-.092-.125-.177-.125h-.168v.255Zm-.126-.354h.314c.193 0 .284.075.284.229a.208.208 0 0 1-.215.218l.233.353h-.139l-.22-.345h-.134v.345h-.126v-.8Zm.27.985a.585.585 0 1 0-.573-.588.569.569 0 0 0 .573.588Zm0-1.269a.685.685 0 1 1-.7.681.687.687 0 0 1 .7-.681Z" fill="#fff" fill-rule="evenodd"/></g></g></g><g data-name="Group 3586"><g data-name="Group 3585" fill="#fff"><path data-name="Path 3398" d="m.793 66.488 1.331 3.474 1.337-3.474h.769v4.133h-.532v-3.439h-.012l-1.315 3.439h-.479L.571 67.182H.559v3.439H.027v-4.133Z"/><path data-name="Path 3399" d="M6.247 67.558q1.142 0 1.142.8v1.725q0 .168.16.168a.437.437 0 0 0 .154-.029v.382a.739.739 0 0 1-.361.081q-.426 0-.426-.463a1.354 1.354 0 0 1-1.077.463 1.152 1.152 0 0 1-.742-.217.754.754 0 0 1-.269-.623.811.811 0 0 1 .266-.637 2.572 2.572 0 0 1 1.236-.359 1.043 1.043 0 0 0 .447-.125.285.285 0 0 0 .115-.246q0-.492-.68-.492a.946.946 0 0 0-.559.136.542.542 0 0 0-.2.431h-.5q.054-.995 1.294-.995Zm-.887 2.258a.382.382 0 0 0 .154.324.716.716 0 0 0 .438.116 1.09 1.09 0 0 0 .671-.2.574.574 0 0 0 .263-.469v-.515a.816.816 0 0 1-.355.122l-.515.075a1 1 0 0 0-.5.177.447.447 0 0 0-.157.37Z"/><path data-name="Path 3400" d="M9.63 67.558a.939.939 0 0 1 1.053 1.071v1.992h-.5v-2.044a.581.581 0 0 0-.16-.417.615.615 0 0 0-.467-.168.858.858 0 0 0-.665.255.947.947 0 0 0-.234.666v1.708h-.5v-2.993h.463v.475h.012a1.088 1.088 0 0 1 .998-.545Z"/><path data-name="Path 3401" d="M12.966 67.558a1.3 1.3 0 0 1 1.029.431 1.67 1.67 0 0 1 .379 1.143 1.634 1.634 0 0 1-.381 1.129 1.292 1.292 0 0 1-1.015.429 1.441 1.441 0 0 1-.556-.113.933.933 0 0 1-.432-.356h-.012v1.546h-.5v-4.139h.5v.405h.012a.989.989 0 0 1 .976-.475Zm-1.006 1.563a1.266 1.266 0 0 0 .251.828.869.869 0 0 0 .713.307.813.813 0 0 0 .677-.3 1.35 1.35 0 0 0 .239-.854 1.2 1.2 0 0 0-.257-.8.86.86 0 0 0-.7-.307.837.837 0 0 0-.677.3 1.253 1.253 0 0 0-.245.826Z"/><path data-name="Path 3402" d="M16.256 67.558a1.412 1.412 0 0 1 1.085.428 1.8 1.8 0 0 1 0 2.264 1.393 1.393 0 0 1-1.085.44 1.421 1.421 0 0 1-1.079-.426 1.581 1.581 0 0 1-.405-1.138 1.6 1.6 0 0 1 .4-1.143 1.417 1.417 0 0 1 1.084-.425Zm-.952 1.569a1.216 1.216 0 0 0 .266.816.909.909 0 0 0 1.37 0 1.205 1.205 0 0 0 .269-.819 1.227 1.227 0 0 0-.266-.819.863.863 0 0 0-.692-.316.85.85 0 0 0-.677.318 1.221 1.221 0 0 0-.271.82Z"/><path data-name="Path 3403" d="m18.462 67.631.692 2.449h.012l.615-2.449h.55l.645 2.449h.006l.686-2.449h.521l-.97 2.987-.006.006h-.533l-.627-2.379h-.006l-.611 2.376h-.544l-.986-2.99Z"/><path data-name="Path 3404" d="M23.763 67.558a1.232 1.232 0 0 1 1.017.457 1.858 1.858 0 0 1 .367 1.2v.058h-2.289v.035a.884.884 0 0 0 .952.95.719.719 0 0 0 .793-.585h.5a1.205 1.205 0 0 1-.444.761 1.4 1.4 0 0 1-.864.258 1.321 1.321 0 0 1-1.095-.463 1.736 1.736 0 0 1-.373-1.123A1.563 1.563 0 0 1 22.735 68a1.344 1.344 0 0 1 1.028-.442Zm.852 1.279a.9.9 0 0 0-.269-.605.849.849 0 0 0-.618-.24.83.83 0 0 0-.592.229.929.929 0 0 0-.278.616Z"/><path data-name="Path 3405" d="M27.258 67.558v.521a1.087 1.087 0 0 0-.837.292 1.314 1.314 0 0 0-.269.912v1.337h-.5v-2.993h.473v.631h.012a1.122 1.122 0 0 1 1.053-.7Z"/><path data-name="Path 3406" d="M29.76 66.389a2.048 2.048 0 0 1 1.233.35 1.47 1.47 0 0 1 .583 1.022h-.562a1.028 1.028 0 0 0-.408-.674 1.412 1.412 0 0 0-.846-.235 1.3 1.3 0 0 0-1.053.475 1.933 1.933 0 0 0-.4 1.279 1.764 1.764 0 0 0 .4 1.175 1.3 1.3 0 0 0 1.05.475 1.379 1.379 0 0 0 .97-.353 1.205 1.205 0 0 0 .384-.932v-.064h-1.349v-.463h1.851v2.177h-.355l-.148-.515a1.518 1.518 0 0 1-.586.454 1.86 1.86 0 0 1-.769.159 1.9 1.9 0 0 1-1.438-.6 2.066 2.066 0 0 1-.574-1.482 2.409 2.409 0 0 1 .535-1.615 1.832 1.832 0 0 1 1.482-.633Z"/><path data-name="Path 3407" d="M34.02 67.558v.521a1.086 1.086 0 0 0-.837.292 1.314 1.314 0 0 0-.269.912v1.337h-.5v-2.993h.473v.631h.012a1.122 1.122 0 0 1 1.053-.7Z"/><path data-name="Path 3408" d="M35.581 67.558a1.412 1.412 0 0 1 1.085.428 1.8 1.8 0 0 1 0 2.264 1.393 1.393 0 0 1-1.085.44 1.421 1.421 0 0 1-1.079-.426 1.581 1.581 0 0 1-.405-1.138 1.6 1.6 0 0 1 .4-1.143 1.417 1.417 0 0 1 1.084-.425Zm-.952 1.569a1.216 1.216 0 0 0 .266.816.909.909 0 0 0 1.37 0 1.205 1.205 0 0 0 .269-.819 1.227 1.227 0 0 0-.266-.819.863.863 0 0 0-.692-.316.85.85 0 0 0-.677.318 1.221 1.221 0 0 0-.271.82Z"/><path data-name="Path 3409" d="M38.089 67.631v2.038a.575.575 0 0 0 .166.426.617.617 0 0 0 .456.165.863.863 0 0 0 .674-.255.953.953 0 0 0 .231-.666v-1.708h.5v2.993h-.473v-.475h-.006a1.064 1.064 0 0 1-.994.544.936.936 0 0 1-1.053-1.065v-2Z"/><path data-name="Path 3410" d="M42.277 67.558a1.3 1.3 0 0 1 1.029.431 1.67 1.67 0 0 1 .379 1.143 1.634 1.634 0 0 1-.381 1.129 1.292 1.292 0 0 1-1.015.429 1.441 1.441 0 0 1-.556-.113.933.933 0 0 1-.432-.356h-.012v1.546h-.5v-4.139h.5v.405h.012a.989.989 0 0 1 .976-.475Zm-1.006 1.563a1.266 1.266 0 0 0 .251.828.869.869 0 0 0 .713.307.813.813 0 0 0 .677-.3 1.35 1.35 0 0 0 .239-.854 1.2 1.2 0 0 0-.257-.8.86.86 0 0 0-.7-.307.837.837 0 0 0-.677.3 1.253 1.253 0 0 0-.246.826Z"/></g></g></g></svg>
