<svg xmlns="http://www.w3.org/2000/svg" width="109" height="59.346"><path data-name="Path 3229" d="m1.909 45.954 3.3 8.81 3.318-8.81h1.913v10.484H9.118v-8.722h-.029l-3.274 8.722h-1.19l-3.274-8.722h-.029v8.722H0V45.954Z" fill="#fff"/><path data-name="Path 3230" d="M15.352 48.67q2.834 0 2.834 2.041v4.376q0 .426.4.426a1.055 1.055 0 0 0 .382-.073v.969a1.808 1.808 0 0 1-.9.206q-1.057 0-1.057-1.175a3.329 3.329 0 0 1-2.672 1.175 2.815 2.815 0 0 1-1.843-.55 1.929 1.929 0 0 1-.668-1.579 2.078 2.078 0 0 1 .661-1.615 6.281 6.281 0 0 1 3.069-.91 2.548 2.548 0 0 0 1.109-.316.73.73 0 0 0 .286-.624q0-1.248-1.689-1.248a2.31 2.31 0 0 0-1.387.345 1.383 1.383 0 0 0-.507 1.094h-1.248q.146-2.541 3.23-2.542Zm-2.2 5.727a.977.977 0 0 0 .382.822 1.749 1.749 0 0 0 1.087.294 2.666 2.666 0 0 0 1.667-.5 1.465 1.465 0 0 0 .653-1.189v-1.307a1.991 1.991 0 0 1-.881.308l-1.277.191a2.464 2.464 0 0 0-1.233.448 1.147 1.147 0 0 0-.401.933Z" fill="#fff"/><path data-name="Path 3231" d="M23.795 48.671q2.613 0 2.614 2.716v5.051H25.16v-5.183a1.418 1.418 0 0 0-1.556-1.483 2.105 2.105 0 0 0-1.652.646 2.432 2.432 0 0 0-.58 1.689v4.332h-1.248v-7.591h1.175v1.2h.029a2.688 2.688 0 0 1 2.467-1.377Z" fill="#fff"/><path data-name="Path 3232" d="M31.702 48.671a3.193 3.193 0 0 1 2.555 1.094 4.3 4.3 0 0 1 .94 2.9 4.2 4.2 0 0 1-.947 2.863 3.175 3.175 0 0 1-2.518 1.087 3.5 3.5 0 0 1-1.38-.286 2.324 2.324 0 0 1-1.072-.9h-.029v3.921h-1.248v-10.5h1.248v1.028h.029a2.441 2.441 0 0 1 2.422-1.207Zm-2.5 3.965a3.261 3.261 0 0 0 .624 2.1 2.138 2.138 0 0 0 1.77.778 2 2 0 0 0 1.681-.771 3.474 3.474 0 0 0 .595-2.166 3.091 3.091 0 0 0-.639-2.026 2.116 2.116 0 0 0-1.725-.778 2.059 2.059 0 0 0-1.682.764 3.225 3.225 0 0 0-.62 2.099Z" fill="#fff"/><path data-name="Path 3233" d="M39.708 48.67a3.466 3.466 0 0 1 2.694 1.087 4.652 4.652 0 0 1 0 5.741 3.419 3.419 0 0 1-2.694 1.116 3.489 3.489 0 0 1-2.68-1.079 4.063 4.063 0 0 1-1.006-2.885 4.122 4.122 0 0 1 .991-2.9 3.478 3.478 0 0 1 2.695-1.08Zm-2.364 3.979a3.127 3.127 0 0 0 .661 2.07 2.225 2.225 0 0 0 3.4.007 3.1 3.1 0 0 0 .668-2.078 3.157 3.157 0 0 0-.661-2.078 2.123 2.123 0 0 0-1.718-.8 2.093 2.093 0 0 0-1.681.808 3.14 3.14 0 0 0-.67 2.075Z" fill="#fff"/><path data-name="Path 3234" d="m45.184 48.845 1.718 6.211h.029l1.527-6.211h1.366l1.6 6.211h.015l1.7-6.211h1.292l-2.408 7.577-.015.015h-1.322l-1.556-6.035h-.015l-1.527 6.035h-1.344l-2.44-7.592Z" fill="#fff"/><path data-name="Path 3235" d="M58.221 48.671a3.032 3.032 0 0 1 2.526 1.16 4.785 4.785 0 0 1 .91 3.04v.147h-5.683v.088a2.418 2.418 0 0 0 .631 1.755 2.3 2.3 0 0 0 1.733.654 1.791 1.791 0 0 0 1.968-1.483h1.233a3.065 3.065 0 0 1-1.1 1.931 3.418 3.418 0 0 1-2.144.653 3.249 3.249 0 0 1-2.717-1.175 4.463 4.463 0 0 1-.925-2.849 4.015 4.015 0 0 1 1.013-2.8 3.3 3.3 0 0 1 2.555-1.121Zm2.114 3.245a2.3 2.3 0 0 0-.668-1.535 2.081 2.081 0 0 0-1.535-.609 2.038 2.038 0 0 0-1.468.58 2.383 2.383 0 0 0-.69 1.564Z" fill="#fff"/><path data-name="Path 3236" d="M66.928 48.67v1.322a2.662 2.662 0 0 0-2.078.742 3.379 3.379 0 0 0-.668 2.313v3.392h-1.248v-7.591h1.175v1.6h.029a2.784 2.784 0 0 1 2.614-1.777Z" fill="#fff"/><path data-name="Path 3237" d="M72.699 45.701a5 5 0 0 1 3.062.888 3.747 3.747 0 0 1 1.446 2.592h-1.395a2.619 2.619 0 0 0-1.013-1.711 3.455 3.455 0 0 0-2.1-.595 3.206 3.206 0 0 0-2.614 1.2 4.976 4.976 0 0 0-.984 3.245 4.534 4.534 0 0 0 .991 2.981 3.21 3.21 0 0 0 2.606 1.2 3.38 3.38 0 0 0 2.408-.9 3.09 3.09 0 0 0 .954-2.364v-.162h-3.348V50.9h4.6v5.521h-.881l-.367-1.307a3.779 3.779 0 0 1-1.454 1.153 4.527 4.527 0 0 1-1.909.4 4.674 4.674 0 0 1-3.568-1.527 5.3 5.3 0 0 1-1.426-3.739 6.2 6.2 0 0 1 1.329-4.1 4.5 4.5 0 0 1 3.663-1.6Z" fill="#fff"/><path data-name="Path 3238" d="M82.928 48.67v1.322a2.662 2.662 0 0 0-2.078.742 3.379 3.379 0 0 0-.668 2.313v3.392h-1.248v-7.591h1.17v1.6h.029a2.784 2.784 0 0 1 2.614-1.777Z" fill="#fff"/><path data-name="Path 3239" d="M86.836 48.67a3.466 3.466 0 0 1 2.694 1.087 4.652 4.652 0 0 1 0 5.741 3.419 3.419 0 0 1-2.694 1.116 3.489 3.489 0 0 1-2.68-1.079 4.063 4.063 0 0 1-1.006-2.885 4.122 4.122 0 0 1 .991-2.9 3.478 3.478 0 0 1 2.695-1.08Zm-2.364 3.979a3.127 3.127 0 0 0 .661 2.07 2.225 2.225 0 0 0 3.4.007 3.1 3.1 0 0 0 .668-2.078 3.157 3.157 0 0 0-.661-2.078 2.124 2.124 0 0 0-1.718-.8 2.093 2.093 0 0 0-1.681.808 3.14 3.14 0 0 0-.669 2.075Z" fill="#fff"/><path data-name="Path 3240" d="M92.94 48.845v5.169a1.474 1.474 0 0 0 .411 1.079 1.512 1.512 0 0 0 1.131.419 2.119 2.119 0 0 0 1.674-.646 2.451 2.451 0 0 0 .573-1.689v-4.332h1.248v7.591h-1.175v-1.2h-.029a2.628 2.628 0 0 1-2.467 1.38q-2.614 0-2.614-2.7v-5.071Z" fill="#fff"/><path data-name="Path 3241" d="M103.306 48.671a3.194 3.194 0 0 1 2.555 1.094 4.3 4.3 0 0 1 .94 2.9 4.2 4.2 0 0 1-.947 2.863 3.175 3.175 0 0 1-2.518 1.087 3.5 3.5 0 0 1-1.38-.286 2.324 2.324 0 0 1-1.072-.9h-.029v3.921h-1.248v-10.5h1.248v1.028h.029a2.441 2.441 0 0 1 2.422-1.207Zm-2.5 3.965a3.261 3.261 0 0 0 .624 2.1 2.138 2.138 0 0 0 1.77.778 2 2 0 0 0 1.681-.771 3.474 3.474 0 0 0 .595-2.166 3.091 3.091 0 0 0-.639-2.026 2.116 2.116 0 0 0-1.725-.778 2.059 2.059 0 0 0-1.681.764 3.225 3.225 0 0 0-.621 2.099Z" fill="#fff"/><path data-name="Path 3242" d="M37.077 21.364a2.025 2.025 0 0 1-3.806-1.386l4.09-11.23a2.026 2.026 0 0 1 3.806 1.388l-4.09 11.228Z" fill="#fff" fill-rule="evenodd"/><path data-name="Path 3243" d="M44.065 24.301a2.652 2.652 0 1 1-4.985-1.814l5.55-15.236a2.652 2.652 0 1 1 4.983 1.817Z" fill="#fff" fill-rule="evenodd"/><path data-name="Path 3244" d="M52.858 27.888a3.555 3.555 0 0 1-6.68-2.432l7.294-20.023a3.554 3.554 0 1 1 6.681 2.428l-7.294 20.025Z" fill="#fff" fill-rule="evenodd"/><path data-name="Path 3245" d="M63.901 32.368a4.701 4.701 0 0 1-8.835-3.216l9.492-26.056a4.7 4.7 0 1 1 8.836 3.209v.007Z" fill="#fff" fill-rule="evenodd"/><path data-name="Path 3246" d="M106.835 46.618a1.111 1.111 0 0 1 .244-.354 1.139 1.139 0 0 1 .36-.236 1.127 1.127 0 0 1 1.471.589 1.079 1.079 0 0 1 .09.441 1.1 1.1 0 0 1-.09.448 1.144 1.144 0 0 1-.243.357 1.094 1.094 0 0 1-.357.235 1.172 1.172 0 0 1-.871 0 1.1 1.1 0 0 1-.36-.235 1.123 1.123 0 0 1-.244-.357 1.1 1.1 0 0 1-.09-.448 1.079 1.079 0 0 1 .09-.44Zm.184.823a.937.937 0 0 0 .2.3.9.9 0 0 0 .294.2.913.913 0 0 0 .367.073.894.894 0 0 0 .363-.073.905.905 0 0 0 .292-.2.933.933 0 0 0 .2-.3 1.014 1.014 0 0 0 .071-.382.987.987 0 0 0-.071-.375.91.91 0 0 0-.487-.5.894.894 0 0 0-.363-.073.914.914 0 0 0-.661.274.925.925 0 0 0-.2.3.992.992 0 0 0-.071.375 1.02 1.02 0 0 0 .071.382Zm.925-1.033a.537.537 0 0 1 .346.093.344.344 0 0 1 .113.282.319.319 0 0 1-.1.259.445.445 0 0 1-.246.1l.375.579h-.219l-.357-.564h-.216v.564h-.2V46.41Zm-.09.582h.131a.332.332 0 0 0 .11-.025.173.173 0 0 0 .076-.064.22.22 0 0 0 .029-.122.189.189 0 0 0-.026-.1.175.175 0 0 0-.066-.06.291.291 0 0 0-.093-.029.755.755 0 0 0-.1-.007h-.27V47Z" fill="#fff"/></svg>
