<svg id="Layer_1" data-name="Layer 1" xmlns="http://www.w3.org/2000/svg" viewBox="0 0 504 504"><path d="M342.88675,219.43969a12.92841,12.92841,0,0,1-16.57372,7.72318h0a12.92716,12.92716,0,0,1-7.72472-16.56905l22.81548-62.69973a12.93547,12.93547,0,0,1,16.5752-7.72394h0a12.9305,12.9305,0,0,1,7.72778,16.56912Z" style="fill:#c25700"/><path d="M167.36611,260.01938a12.93271,12.93271,0,0,1-16.57219,7.7233h0a12.92662,12.92662,0,0,1-7.72778-16.56758l26.09238-71.68743a12.93009,12.93009,0,0,1,16.57315-7.72926h0a12.92958,12.92958,0,0,1,7.72766,16.5752Z" style="fill:#386097"/><path d="M207.54867,260.01938a12.93439,12.93439,0,0,1-16.57366,7.7233h0a12.92576,12.92576,0,0,1-7.72619-16.56758l26.09245-71.68743a12.92929,12.92929,0,0,1,16.57213-7.72926h0a12.93087,12.93087,0,0,1,7.72772,16.5752Z" style="fill:#4c79af"/><path d="M247.70806,260.01938a12.93148,12.93148,0,0,1-16.57149,7.7233h0a12.92485,12.92485,0,0,1-7.727-16.56758l26.09085-71.68743a12.93149,12.93149,0,0,1,16.57436-7.72926h0a12.92684,12.92684,0,0,1,7.72485,16.5752Z" style="fill:#5c7d70"/><path d="M287.85516,260.01938a12.92919,12.92919,0,0,1-16.56765,7.7233h0a12.92375,12.92375,0,0,1-7.73066-16.56758l37.59276-103.281a12.92887,12.92887,0,0,1,16.56912-7.72394h0a12.92487,12.92487,0,0,1,7.72932,16.56912Z" style="fill:#9d323d"/><path d="M385.72381,309.25371a4.52394,4.52394,0,1,1-4.53139,4.50284A4.48727,4.48727,0,0,1,385.72381,309.25371Zm0,8.38929a3.8655,3.8655,0,1,0-3.71019-3.88645A3.72363,3.72363,0,0,0,385.72381,317.643Zm-1.74659-6.5101h2.03594c1.24929,0,1.83842.49729,1.83842,1.51445a1.36049,1.36049,0,0,1-1.38926,1.43919l1.50689,2.33584h-.88455l-1.42261-2.2815h-.86951v2.2815h-.81532Zm.81532,2.34179h.85c.72788,0,1.38773-.03462,1.38773-.86184,0-.701-.59508-.81991-1.1497-.81991h-1.088Z" style="fill:#386097"/><path d="M125.72852,309.77858l12.8247,34.20019,12.88184-34.20019h7.41015v40.69824h-5.12988v-33.8584h-.11426l-12.71093,33.8584h-4.6167l-12.71094-33.8584h-.11426v33.8584h-5.12988V309.77858Z" style="fill:#386097"/><path d="M177.91113,320.3235q11.00025,0,11.001,7.92285v16.98633q0,1.65381,1.53906,1.65332a4.09544,4.09544,0,0,0,1.48194-.28516v3.76172a7.01924,7.01924,0,0,1-3.47706.79785q-4.10376,0-4.104-4.55957a12.92159,12.92159,0,0,1-10.374,4.55957,10.92624,10.92624,0,0,1-7.15332-2.13672,7.48855,7.48855,0,0,1-2.59375-6.12793,8.06708,8.06708,0,0,1,2.56543-6.26953q2.56494-2.33789,11.91259-3.53418a9.887,9.887,0,0,0,4.30372-1.22558,2.82934,2.82934,0,0,0,1.11132-2.42286q0-4.84423-6.55468-4.84472a8.97017,8.97017,0,0,0-5.38672,1.33984,5.3694,5.3694,0,0,0-1.96631,4.2461h-4.84522Q165.94019,320.325,177.91113,320.3235Zm-8.5498,22.23047a3.79162,3.79162,0,0,0,1.48193,3.1914A6.78987,6.78987,0,0,0,175.061,346.886a10.34881,10.34881,0,0,0,6.46972-1.93848,5.68578,5.68578,0,0,0,2.53662-4.61719v-5.07226a7.73443,7.73443,0,0,1-3.42041,1.19629l-4.959.74121a9.5597,9.5597,0,0,0-4.7876,1.73828A4.45075,4.45075,0,0,0,169.36133,342.554Z" style="fill:#386097"/><path d="M210.68506,320.3235q10.14551,0,10.146,10.54492v19.6084h-4.84472v-20.1211a5.79375,5.79375,0,0,0-1.53906-4.10351,5.85411,5.85411,0,0,0-4.50293-1.65332,8.17044,8.17044,0,0,0-6.4126,2.50781,9.43777,9.43777,0,0,0-2.25147,6.55469v16.81543h-4.84521V321.00807h4.56006v4.67383h.11377A10.437,10.437,0,0,1,210.68506,320.3235Z" style="fill:#386097"/><path d="M241.37988,320.3235a12.39676,12.39676,0,0,1,9.918,4.24707q3.64746,4.24658,3.64844,11.25683,0,6.898-3.67725,11.11524a12.32246,12.32246,0,0,1-9.77539,4.21777,13.60263,13.60263,0,0,1-5.35791-1.11133,9.0311,9.0311,0,0,1-4.16113-3.50488h-.11377V361.763h-4.84522V321.00807h4.84522v3.99023h.11377Q234.31176,320.324,241.37988,320.3235Zm-9.68994,15.39062a12.65636,12.65636,0,0,0,2.42236,8.15039A8.29641,8.29641,0,0,0,240.981,346.886a7.76328,7.76328,0,0,0,6.52636-2.99317q2.30861-2.99121,2.3086-8.40722a12.0029,12.0029,0,0,0-2.47949-7.86621,8.21283,8.21283,0,0,0-6.69776-3.02051,7.99111,7.99111,0,0,0-6.52637,2.96387Q231.68872,330.5276,231.68994,335.71412Z" style="fill:#386097"/><path d="M272.45605,320.3235q6.61084,0,10.459,4.21875t3.84766,11.22851a16.02582,16.02582,0,0,1-3.84766,11.05762q-3.84667,4.333-10.459,4.332a13.54117,13.54117,0,0,1-10.40234-4.18945q-3.90527-4.18945-3.90527-11.2002,0-7.0664,3.84765-11.25781Q265.84423,320.3235,272.45605,320.3235Zm-9.17675,15.44726a12.13879,12.13879,0,0,0,2.56445,8.03711,8.63541,8.63541,0,0,0,13.19531.02832,12.02083,12.02083,0,0,0,2.59375-8.06543,12.25412,12.25412,0,0,0-2.56445-8.06543,8.24475,8.24475,0,0,0-6.66992-3.10644,8.12576,8.12576,0,0,0-6.52637,3.13476A12.18932,12.18932,0,0,0,263.2793,335.77076Z" style="fill:#386097"/><path d="M293.71582,321.00807l6.66895,24.11035h.11425l5.92774-24.11035h5.30078l6.21289,24.11035h.05762l6.6123-24.11035H329.626l-9.34766,29.41211-.05762.05664h-5.12988l-6.042-23.42676h-.05664l-5.92871,23.42676h-5.24317l-9.46191-29.46875Z" style="fill:#386097"/><path d="M344.32129,320.3235a11.76878,11.76878,0,0,1,9.80371,4.50293q3.53321,4.50439,3.53418,11.7998v.56934H335.59961v.34179a9.38636,9.38636,0,0,0,2.45117,6.81153,8.91483,8.91483,0,0,0,6.72656,2.53711q6.32667,0,7.6377-5.75684h4.78808a11.89721,11.89721,0,0,1-4.27539,7.49512,13.27,13.27,0,0,1-8.32128,2.53613q-6.95508,0-10.5459-4.55957a17.32518,17.32518,0,0,1-3.59082-11.05762,15.58577,15.58577,0,0,1,3.93359-10.88769A12.82616,12.82616,0,0,1,344.32129,320.3235Zm8.208,12.59765a8.92586,8.92586,0,0,0-2.59375-5.957,8.07966,8.07966,0,0,0-5.957-2.36523,7.90906,7.90906,0,0,0-5.69922,2.251,9.249,9.249,0,0,0-2.67969,6.07129Z" style="fill:#386097"/><path d="M378.12109,320.3235v5.12988q-5.47264,0-8.0664,2.87891-2.59423,2.87841-2.59278,8.97754v13.167h-4.8457V321.00807h4.56055V327.221h.11426q3.36182-6.89649,10.1455-6.89746Z" style="fill:#386097"/></svg>