<svg id="Layer_1" data-name="Layer 1" xmlns="http://www.w3.org/2000/svg" viewBox="0 0 504 504"><path d="M259.681,113.90357v-.035a12.59332,12.59332,0,0,0-12.589-12.60151H152.811a12.59617,12.59617,0,1,0-.01042,25.19234l81.66184.02462.00163,81.65493a12.612,12.612,0,0,0,25.224.01746l-.007-94.2528Z" style="fill:#c25700"/><path d="M222.8296,150.67274a12.58943,12.58943,0,0,0-12.59272-12.59083H152.811a12.57509,12.57509,0,1,0-.01042,25.15014h44.83666l.00339,44.90686a12.59448,12.59448,0,1,0,25.189.01746Z" style="fill:#4c79af"/><path d="M186.00253,187.12606a12.28747,12.28747,0,0,0-12.2524-12.27862H152.47947a12.26543,12.26543,0,1,0-.00528,24.53086l9.03955.01231.00364,9.08526a12.24079,12.24079,0,1,0,24.48155.01407Z" style="fill:#386097"/><path d="M172.73438,260.97291v4.56055H159.168v36.13769h-5.415V265.53346H140.1875v-4.56055Z" style="fill:#386097"/><path d="M180.48633,271.51783q10.99952,0,11.001,7.92286V296.427q0,1.65381,1.53907,1.65332a4.09475,4.09475,0,0,0,1.48144-.28515v3.76172a7.01993,7.01993,0,0,1-3.47656.79785q-4.1045,0-4.10449-4.55957a12.921,12.921,0,0,1-10.374,4.55957,10.92724,10.92724,0,0,1-7.15332-2.13672,7.48858,7.48858,0,0,1-2.59375-6.12793,8.06706,8.06706,0,0,1,2.56543-6.26953q2.56494-2.3379,11.91309-3.53418a9.89164,9.89164,0,0,0,4.30371-1.22559,2.83182,2.83182,0,0,0,1.11133-2.42285q0-4.84423-6.55567-4.84473a8.96587,8.96587,0,0,0-5.38574,1.33985,5.3697,5.3697,0,0,0-1.96679,4.24609h-4.84473Q168.51466,271.5193,180.48633,271.51783Zm-8.55078,22.23047a3.79329,3.79329,0,0,0,1.48242,3.19141,6.78792,6.78792,0,0,0,4.21777,1.14062,10.34885,10.34885,0,0,0,6.46973-1.93847,5.68523,5.68523,0,0,0,2.53613-4.61719V286.4524a7.7299,7.7299,0,0,1-3.41992,1.19629l-4.959.74121a9.56347,9.56347,0,0,0-4.78809,1.73829A4.45366,4.45366,0,0,0,171.93555,293.7483Z" style="fill:#386097"/><path d="M203.85547,260.97291v40.69824h-4.8457V260.97291Z" style="fill:#386097"/><path d="M223.34863,271.51783a11.7688,11.7688,0,0,1,9.80371,4.50293q3.5332,4.50439,3.53418,11.79981v.56933H214.627v.3418a9.38637,9.38637,0,0,0,2.45117,6.81152,8.9148,8.9148,0,0,0,6.72657,2.53711q6.32666,0,7.63769-5.75683h4.78809a11.89727,11.89727,0,0,1-4.27539,7.49511,13.27,13.27,0,0,1-8.32129,2.53614q-6.95508,0-10.5459-4.55957a17.32526,17.32526,0,0,1-3.59082-11.05762,15.58579,15.58579,0,0,1,3.93359-10.8877A12.82621,12.82621,0,0,1,223.34863,271.51783Zm8.208,12.59766a8.92581,8.92581,0,0,0-2.59375-5.957,8.07967,8.07967,0,0,0-5.957-2.36524,7.90908,7.90908,0,0,0-5.69922,2.251,9.249,9.249,0,0,0-2.67969,6.07129Z" style="fill:#386097"/><path d="M255.667,271.51783q10.144,0,10.14551,10.54493v19.60839h-4.84473V281.55006a5.50564,5.50564,0,0,0-6.042-5.75684,8.17217,8.17217,0,0,0-6.41308,2.50782,9.44205,9.44205,0,0,0-2.251,6.55468v16.81543H241.417V272.2024h4.55957v4.67383h.11426A10.43543,10.43543,0,0,1,255.667,271.51783Z" style="fill:#386097"/><path d="M278.40918,263.36744v8.835h5.87109v4.27442h-5.87109v18.46875a2.7846,2.7846,0,0,0,.5127,1.88086q.51269.56982,2.56542.56933h2.793v4.27539H280.29q-3.76171,0-5.24414-1.2539t-1.48145-4.90235V276.47682h-5.0166V272.2024h5.0166v-8.835Z" style="fill:#386097"/><path d="M156.07031,314.56178q6.89649,0,10.94434,3.41992a11.72476,11.72476,0,0,1,4.04687,9.46191h-5.12988q-.9126-8.32177-10.08887-8.32226-4.39012,0-6.75488,1.7959a6.08668,6.08668,0,0,0-2.36523,5.1582,4.86065,4.86065,0,0,0,1.7666,3.70508q1.76659,1.59668,11.28613,3.53418,6.55371,1.3125,9.77539,4.07519a9.56895,9.56895,0,0,1,3.2207,7.667,10.17556,10.17556,0,0,1-4.67382,8.8916,19.74164,19.74164,0,0,1-11.2295,3.249q-7.69482,0-12.25488-3.84766a13.02672,13.02672,0,0,1-4.55957-10.51562h5.12988a8.78078,8.78078,0,0,0,3.334,7.2666,13.52715,13.52715,0,0,0,8.52148,2.53711q4.96,0,7.63867-1.91016a6.34136,6.34136,0,0,0,2.67872-5.5,5.39494,5.39494,0,0,0-2.59375-4.70214q-2.59425-1.73877-8.86329-2.93555-8.95019-1.76661-11.7705-4.332a8.7269,8.7269,0,0,1-2.82129-6.78321,10.54438,10.54438,0,0,1,4.04687-8.66406Q149.4004,314.56179,156.07031,314.56178Z" style="fill:#386097"/><path d="M189.81445,326.07545q6.61085,0,10.459,4.21875t3.84765,11.22852a16.02581,16.02581,0,0,1-3.84765,11.05761q-3.84669,4.333-10.459,4.332a13.54334,13.54334,0,0,1-10.40332-4.18945q-3.90381-4.18946-3.90429-11.20019,0-7.06641,3.84765-11.25782Q183.20264,326.07546,189.81445,326.07545Zm-9.17773,15.44727a12.13925,12.13925,0,0,0,2.56543,8.03711,8.63543,8.63543,0,0,0,13.19531.02832,12.0259,12.0259,0,0,0,2.59375-8.06543,12.25455,12.25455,0,0,0-2.56543-8.06543,8.24285,8.24285,0,0,0-6.66894-3.10645,8.12306,8.12306,0,0,0-6.52637,3.13477A12.18979,12.18979,0,0,0,180.63672,341.52272Z" style="fill:#386097"/><path d="M213.52539,315.53053v40.69824h-4.8457V315.53053Z" style="fill:#386097"/><path d="M225.6084,326.76V346.8235a5.723,5.723,0,0,0,1.5957,4.18945,5.87,5.87,0,0,0,4.38867,1.625q4.27589,0,6.49805-2.50781a9.51309,9.51309,0,0,0,2.22363-6.55567V326.76h4.84473v29.46875h-4.55957v-4.67383h-.11426q-3.022,5.35841-9.57617,5.35742-10.147,0-10.14551-10.4873V326.76Z" style="fill:#386097"/><path d="M257.75684,317.92506v8.835h5.87109v4.27442h-5.87109v18.46875a2.78456,2.78456,0,0,0,.51269,1.88085q.5127.56984,2.56543.56934h2.793v4.27539H259.6377q-3.76173,0-5.24415-1.25391t-1.48144-4.90234V331.03444h-5.0166V326.76h5.0166v-8.835Z" style="fill:#386097"/><path d="M272.69043,315.53053v5.92871h-4.8457v-5.92871Zm0,11.22949v29.46875h-4.8457V326.76Z" style="fill:#386097"/><path d="M291.499,326.07545q6.61085,0,10.459,4.21875t3.84765,11.22852a16.02581,16.02581,0,0,1-3.84765,11.05761q-3.84669,4.333-10.459,4.332a13.54334,13.54334,0,0,1-10.40332-4.18945q-3.90381-4.18946-3.90429-11.20019,0-7.06641,3.84765-11.25782Q284.88721,326.07546,291.499,326.07545Zm-9.17773,15.44727a12.13925,12.13925,0,0,0,2.56543,8.03711,8.63543,8.63543,0,0,0,13.19531.02832,12.0259,12.0259,0,0,0,2.59375-8.06543,12.25455,12.25455,0,0,0-2.56543-8.06543,8.24285,8.24285,0,0,0-6.66894-3.10645,8.12306,8.12306,0,0,0-6.52637,3.13477A12.18979,12.18979,0,0,0,282.32129,341.52272Z" style="fill:#386097"/><path d="M325.4707,326.07545q10.144,0,10.14551,10.54492v19.6084h-4.84473V336.10768a5.50564,5.50564,0,0,0-6.042-5.75684,8.1722,8.1722,0,0,0-6.41308,2.50781,9.4421,9.4421,0,0,0-2.251,6.55469v16.81543H311.2207V326.76h4.55957v4.67383h.11426A10.43543,10.43543,0,0,1,325.4707,326.07545Z" style="fill:#386097"/><path d="M351.292,326.07545q5.98536,0,8.86328,2.30859,2.87843,2.3086,3.16309,6.92579h-4.84473v-.05664a4.70978,4.70978,0,0,0-2.08008-3.64844,8.33143,8.33143,0,0,0-4.75976-1.25391,9.21221,9.21221,0,0,0-4.58887.96875,3.13726,3.13726,0,0,0-.19922,5.44336,13.69917,13.69917,0,0,0,4.50293,1.68164l4.56055,1.02637a15.00219,15.00219,0,0,1,6.49805,2.87793,6.58619,6.58619,0,0,1,2.22265,5.27246,7.98231,7.98231,0,0,1-3.36328,6.84082q-3.36328,2.45068-9.17676,2.45019-5.64258,0-8.94922-2.47949-3.30615-2.47851-3.53417-7.49511h4.8457a5.17468,5.17468,0,0,0,2.166,4.21777A9.68758,9.68758,0,0,0,352.375,352.638q7.125,0,7.125-4.38965a3.51569,3.51569,0,0,0-1.73828-3.07715q-1.74024-1.13964-7.43848-2.33691-5.417-1.08252-7.752-3.02148a6.58016,6.58016,0,0,1-2.33789-5.3584,7.30061,7.30061,0,0,1,2.99316-6.07032A12.87287,12.87287,0,0,1,351.292,326.07545Z" style="fill:#386097"/><path d="M321.47205,380.29962h.53714c.462,0,.8783-.0228.8783-.54557,0-.44685-.37737-.521-.72622-.521h-.68922v1.06658Zm-.51434-1.48294H322.245c.789,0,1.16354.31558,1.16354.95826a.86.86,0,0,1-.88028.91069l.95533,1.47777h-.55993l-.90123-1.44171h-.55034v1.44171h-.51434v-3.34672Zm1.1038,4.12051a2.44729,2.44729,0,1,0-2.34722-2.46066,2.35518,2.35518,0,0,0,2.34722,2.46066Zm0-5.31066a2.86446,2.86446,0,1,1-2.86912,2.85,2.84032,2.84032,0,0,1,2.86912-2.85Z" style="fill:#386097;fill-rule:evenodd"/><path d="M143.30176,379.426l5.45019,14.53222,5.47364-14.53222H157.374v17.293h-2.17968V382.33229h-.04883L149.74414,396.719H147.7832l-5.40136-14.38672H142.333V396.719h-2.17969V379.426Z" style="fill:#386097"/><path d="M165.63281,383.90651q4.67431,0,4.67481,3.36718v7.2168q0,.70313.65332.70312a1.75807,1.75807,0,0,0,.62988-.12109v1.59766a2.97563,2.97563,0,0,1-1.47754.33984q-1.74317,0-1.74316-1.9375a5.492,5.492,0,0,1-4.40821,1.9375,4.64368,4.64368,0,0,1-3.04-.9082,3.18328,3.18328,0,0,1-1.10157-2.60449,3.42885,3.42885,0,0,1,1.08985-2.66407q1.08984-.9917,5.06152-1.501a4.204,4.204,0,0,0,1.8291-.52149,1.20213,1.20213,0,0,0,.47168-1.02929q0-2.05811-2.78516-2.0586a3.8108,3.8108,0,0,0-2.28808.56934,2.28508,2.28508,0,0,0-.83594,1.80469h-2.05859Q160.54639,383.906,165.63281,383.90651ZM162,393.35279a1.61087,1.61087,0,0,0,.62988,1.35547,2.88391,2.88391,0,0,0,1.792.48535,4.39484,4.39484,0,0,0,2.749-.82421,2.41491,2.41491,0,0,0,1.07812-1.96192v-2.15527a3.29312,3.29312,0,0,1-1.45312.50879l-2.10742.31445a4.05991,4.05991,0,0,0-2.03418.73926A1.88923,1.88923,0,0,0,162,393.35279Z" style="fill:#386097"/><path d="M179.48633,383.90651q4.30957,0,4.31055,4.48046v8.332h-2.0586V388.1692a2.46084,2.46084,0,0,0-.6543-1.74414,2.48754,2.48754,0,0,0-1.91308-.70215,3.47311,3.47311,0,0,0-2.72461,1.06543,4.01482,4.01482,0,0,0-.957,2.78613V396.719h-2.0586V384.19752h1.9375v1.98535h.04883A4.43477,4.43477,0,0,1,179.48633,383.90651Z" style="fill:#386097"/><path d="M193.14648,383.90651a5.26673,5.26673,0,0,1,4.21387,1.80468,7.08659,7.08659,0,0,1,1.54981,4.78321,6.92983,6.92983,0,0,1-1.56153,4.72265,5.23816,5.23816,0,0,1-4.15429,1.793,5.7883,5.7883,0,0,1-2.27637-.47266,3.83737,3.83737,0,0,1-1.76856-1.48925h-.04785v6.46679H187.043V384.19752h2.05859v1.69531h.04785Q190.14258,383.9065,193.14648,383.90651Zm-4.11816,6.53906a5.3778,5.3778,0,0,0,1.0293,3.46387,3.52537,3.52537,0,0,0,2.91894,1.28417,3.30083,3.30083,0,0,0,2.77344-1.27246,5.73489,5.73489,0,0,0,.98047-3.57226,5.09322,5.09322,0,0,0-1.05371-3.3418,3.48919,3.48919,0,0,0-2.84571-1.28418,3.39632,3.39632,0,0,0-2.77343,1.25977A5.318,5.318,0,0,0,189.02832,390.44557Z" style="fill:#386097"/><path d="M206.6123,383.90651a5.71833,5.71833,0,0,1,4.44434,1.792,7.67539,7.67539,0,0,1,0,9.4707A5.64418,5.64418,0,0,1,206.6123,397.01a5.75371,5.75371,0,0,1-4.41992-1.78027A6.70143,6.70143,0,0,1,200.5332,390.47a6.79616,6.79616,0,0,1,1.63477-4.7832A5.73733,5.73733,0,0,1,206.6123,383.90651ZM202.71289,390.47a5.1573,5.1573,0,0,0,1.08984,3.415,3.66934,3.66934,0,0,0,5.60743.0127,5.11389,5.11389,0,0,0,1.10156-3.42774,5.20636,5.20636,0,0,0-1.08984-3.42676,3.50226,3.50226,0,0,0-2.834-1.32031,3.453,3.453,0,0,0-2.77344,1.332A5.182,5.182,0,0,0,202.71289,390.47Z" style="fill:#386097"/><path d="M215.64551,384.19752l2.834,10.24512h.04785l2.51954-10.24512h2.252l2.63965,10.24512h.02441l2.80957-10.24512h2.13184l-3.97266,12.49707-.02344.02442h-2.18066l-2.56738-9.95411h-.02344l-2.51953,9.95411h-2.22754l-4.02051-12.52149Z" style="fill:#386097"/><path d="M237.34766,383.90651a4.999,4.999,0,0,1,4.165,1.91308,7.891,7.891,0,0,1,1.50195,5.01367v.24219h-9.373v.14551a3.98939,3.98939,0,0,0,1.041,2.89453,3.789,3.789,0,0,0,2.8584,1.07812,2.95452,2.95452,0,0,0,3.24511-2.44628h2.03516a5.06413,5.06413,0,0,1-1.81641,3.18457,5.64225,5.64225,0,0,1-3.53613,1.07812,5.35924,5.35924,0,0,1-4.48145-1.9375,7.36633,7.36633,0,0,1-1.52539-4.69922,6.62183,6.62183,0,0,1,1.6709-4.626A5.4504,5.4504,0,0,1,237.34766,383.90651Zm3.4873,5.35253a3.79434,3.79434,0,0,0-1.10254-2.53125,3.435,3.435,0,0,0-2.53027-1.00488,3.3585,3.3585,0,0,0-2.42188.957,3.92294,3.92294,0,0,0-1.13867,2.5791Z" style="fill:#386097"/><path d="M251.66113,383.90651v2.17968a4.39394,4.39394,0,0,0-3.42773,1.22364,5.57832,5.57832,0,0,0-1.10156,3.81445V396.719h-2.0586V384.19752h1.9375v2.63965h.04883a4.59086,4.59086,0,0,1,4.31055-2.93066Z" style="fill:#386097"/><path d="M261.90527,379.01393a8.25345,8.25345,0,0,1,5.04981,1.46582,6.17715,6.17715,0,0,1,2.38574,4.27441H267.04a4.3163,4.3163,0,0,0-1.67188-2.82129,5.69235,5.69235,0,0,0-3.46289-.98144,5.29147,5.29147,0,0,0-4.31152,1.98633,8.20709,8.20709,0,0,0-1.62207,5.35253,7.481,7.481,0,0,0,1.63477,4.917,5.29552,5.29552,0,0,0,4.29882,1.98632,5.57773,5.57773,0,0,0,3.97168-1.47753,5.0975,5.0975,0,0,0,1.57422-3.89942v-.2666h-5.52148v-1.9375h7.58008V396.719h-1.45313l-.60547-2.15528a6.23806,6.23806,0,0,1-2.39746,1.90137,7.47617,7.47617,0,0,1-3.14844.666,7.7114,7.7114,0,0,1-5.88574-2.51953,8.74593,8.74593,0,0,1-2.34961-6.20019,10.21886,10.21886,0,0,1,2.19238-6.75684A7.43007,7.43007,0,0,1,261.90527,379.01393Z" style="fill:#386097"/><path d="M279.34375,383.90651v2.17968a4.39394,4.39394,0,0,0-3.42773,1.22364,5.57832,5.57832,0,0,0-1.10157,3.81445V396.719h-2.05859V384.19752h1.9375v2.63965h.04883a4.59085,4.59085,0,0,1,4.31054-2.93066Z" style="fill:#386097"/><path d="M285.7373,383.90651a5.71833,5.71833,0,0,1,4.44434,1.792,7.67539,7.67539,0,0,1,0,9.4707A5.64418,5.64418,0,0,1,285.7373,397.01a5.75371,5.75371,0,0,1-4.41992-1.78027A6.70143,6.70143,0,0,1,279.6582,390.47a6.79616,6.79616,0,0,1,1.63477-4.7832A5.73733,5.73733,0,0,1,285.7373,383.90651ZM281.83789,390.47a5.1573,5.1573,0,0,0,1.08984,3.415,3.66934,3.66934,0,0,0,5.60743.0127,5.11389,5.11389,0,0,0,1.10156-3.42774,5.20636,5.20636,0,0,0-1.08984-3.42676,3.50226,3.50226,0,0,0-2.834-1.32031,3.453,3.453,0,0,0-2.77344,1.332A5.182,5.182,0,0,0,281.83789,390.47Z" style="fill:#386097"/><path d="M296.00586,384.19752v8.52539a2.43438,2.43438,0,0,0,.67871,1.78028,2.49544,2.49544,0,0,0,1.86523.69042,3.4938,3.4938,0,0,0,2.76075-1.0664,4.04092,4.04092,0,0,0,.94433-2.78516v-7.14453h2.0586V396.719H302.376v-1.98633h-.04786a4.33552,4.33552,0,0,1-4.06933,2.27734q-4.311,0-4.31152-4.457v-8.35547Z" style="fill:#386097"/><path d="M313.1543,383.90651a5.26672,5.26672,0,0,1,4.21386,1.80468,7.08654,7.08654,0,0,1,1.54981,4.78321,6.92987,6.92987,0,0,1-1.56152,4.72265,5.23819,5.23819,0,0,1-4.1543,1.793,5.7883,5.7883,0,0,1-2.27637-.47266,3.83734,3.83734,0,0,1-1.76855-1.48925h-.04785v6.46679h-2.0586V384.19752h2.0586v1.69531h.04785Q310.1504,383.9065,313.1543,383.90651Zm-4.11817,6.53906a5.37786,5.37786,0,0,0,1.0293,3.46387,3.52538,3.52538,0,0,0,2.91895,1.28417,3.30081,3.30081,0,0,0,2.77343-1.27246,5.73489,5.73489,0,0,0,.98047-3.57226,5.09316,5.09316,0,0,0-1.05371-3.3418,3.48919,3.48919,0,0,0-2.8457-1.28418,3.39632,3.39632,0,0,0-2.77344,1.25977A5.318,5.318,0,0,0,309.03613,390.44557Z" style="fill:#386097"/></svg>